<?xml version="1.0" standalone="no"?><!DOCTYPE svg PUBLIC "-//W3C//DTD SVG 1.1//EN" "http://www.w3.org/Graphics/SVG/1.1/DTD/svg11.dtd"><svg class="icon" width="200px" height="200.00px" viewBox="0 0 1024 1024" version="1.1" xmlns="http://www.w3.org/2000/svg"><path d="M852.537678 966.322357c7.542461 0 14.818718-3.016984 20.142807-8.341075s8.341075-12.600347 8.341075-20.142807V262.033969c0-6.743847-2.395841-13.22149-6.743848-18.368111L725.469393 67.793414c-5.412825-6.388908-13.39896-10.115771-21.740034-10.115771h-532.231543c-7.542461 0-14.818718 3.016984-20.142807 8.341075s-8.341075 12.600347-8.341075 20.142807v851.67695c0 7.542461 3.016984 14.818718 8.341075 20.142807s12.600347 8.341075 20.142807 8.341075h681.039862z" fill="#FFC466" /><path d="M881.02156 265.228423v-3.194454c0-6.743847-2.395841-13.22149-6.743848-18.368111L725.469393 67.793414c-5.412825-6.388908-13.39896-10.115771-21.740034-10.115771h-1.331023v207.55078h178.623224z" opacity=".15" /><path d="M324.565407 474.287695c0-103.553553 83.943154-187.496707 187.496707-187.496707 103.553553 0 187.496707 83.943154 187.496707 187.496707 0 103.553553-83.943154 187.496707-187.496707 187.496707-103.642288 0-187.496707-83.943154-187.496707-187.496707z m220.506066-79.062738c-82.523397-55.370537-104.795841-50.046447-104.79584 76.933102s22.272444 139.579896 104.884575 81.192374 82.612132-72.318891 82.612132-81.192374c-0.088735-8.873484-0.088735-21.562565-82.700867-76.933102z" fill="#FFFFFF" /><path d="M385.286655 842.43078l9.849567-13.221491c6.211438 6.122704 13.931369 10.82565 23.514731 10.82565 10.64818 0 17.924437-5.235355 17.924437-14.641247 0-10.381976-6.122704-16.859619-29.105026-16.859619v-15.084922c19.344194 0 25.644367-6.655113 25.644367-16.14974 0-8.25234-5.14662-13.132756-14.108838-13.221491-7.542461 0.17747-13.665165 3.726863-19.965338 9.405893l-10.648181-12.866551c9.139688-7.986135 19.255459-12.955286 31.678337-12.955286 20.409012 0 34.251646 9.938302 34.251646 28.040208 0 11.446794-6.388908 19.699133-17.658232 24.04714v0.709879c11.979203 3.283189 21.118891 12.156672 21.118891 25.910572 0 19.344194-16.948354 30.613518-37.091162 30.613518-16.770884 0.088735-28.040208-6.122704-35.405199-14.552513zM471.536915 869.2287c0-6.655113 4.170537-12.422877 11.446794-16.504679v-0.709879c-4.170537-2.75078-7.276256-6.832582-7.276257-13.39896 0-5.945234 4.170537-11.535529 8.873484-14.996187v-0.532409c-5.412825-3.993068-10.559445-11.535529-10.559446-20.852687 0-18.811785 15.262392-28.927556 32.210746-28.927556 4.436742 0 8.696014 0.887348 11.979202 1.952167h28.750087v15.351126H533.29636c2.129636 2.75078 3.726863 7.098787 3.726864 12.156672 0 17.924437-13.665165 27.064125-30.790988 27.064125-3.105719 0-6.832582-0.709879-10.293241-1.863431-2.307106 1.863432-3.460659 3.726863-3.460659 6.832582 0 4.259272 3.105719 6.566378 12.511612 6.566378h13.57643c19.255459 0 29.637435 5.945234 29.637435 19.965338 0 16.14974-16.682149 28.395147-43.3026 28.395147-18.90052 0-33.364298-6.388908-33.364298-20.497747z m56.70156-4.259272c0-5.679029-4.702946-7.098787-13.221491-7.098787h-9.672097c-4.880416 0-8.25234-0.443674-11.091854-1.153553-3.549393 2.839515-5.235355 5.945234-5.235355 9.228423 0 6.655113 7.453726 10.559445 19.077989 10.559446 11.890468 0 20.142808-5.235355 20.142808-11.535529z m-9.672097-62.735529c0-9.405893-5.235355-14.641248-12.422877-14.641247s-12.511612 5.235355-12.511612 14.641247 5.590295 14.641248 12.511612 14.641248c7.010052 0.088735 12.422877-5.235355 12.422877-14.641248zM561.868977 775.25851h17.125824l1.419757 8.252339h0.532409c6.655113-5.679029 14.996187-10.293241 23.514731-10.293241 19.699133 0 31.323397 16.14974 31.323397 40.640555 0 27.330329-16.415945 43.213865-33.896707 43.213865-7.010052 0-13.665165-3.105719-19.787868-8.696014l0.532409 13.132755v24.224611h-20.852686v-110.47487z m52.442288 38.954592c0-15.262392-4.880416-23.692201-15.794801-23.692201-5.412825 0-10.293241 2.75078-15.7948 8.25234v35.05026c5.14662 4.436742 10.293241 5.945234 14.552513 5.945234 9.583362 0.088735 17.037088-8.163605 17.037088-25.555633z" fill="#FFFFFF" /></svg>