<?xml version="1.0" standalone="no"?><!DOCTYPE svg PUBLIC "-//W3C//DTD SVG 1.1//EN" "http://www.w3.org/Graphics/SVG/1.1/DTD/svg11.dtd"><svg class="icon" width="200px" height="200.00px" viewBox="0 0 1024 1024" version="1.1" xmlns="http://www.w3.org/2000/svg"><path d="M852.537678 966.322357c7.542461 0 14.818718-3.016984 20.142807-8.341075s8.341075-12.600347 8.341075-20.142807V262.033969c0-6.743847-2.395841-13.22149-6.743848-18.368111L725.469393 67.793414c-5.412825-6.388908-13.39896-10.115771-21.740034-10.115771h-532.231543c-7.542461 0-14.818718 3.016984-20.142807 8.341075s-8.341075 12.600347-8.341075 20.142807v851.67695c0 7.542461 3.016984 14.818718 8.341075 20.142807s12.600347 8.341075 20.142807 8.341075h681.039862z" fill="#8C72FE" /><path d="M881.02156 265.228423v-3.194454c0-6.743847-2.395841-13.22149-6.743848-18.368111L725.469393 67.793414c-5.412825-6.388908-13.39896-10.115771-21.740034-10.115771h-1.331023v207.55078h178.623224z" opacity=".15" /><path d="M511.97338 286.790988v93.082842h93.082842V286.790988h-93.082842z m-93.082843 93.082842V472.956672h93.082843V379.87383h-93.082843zM511.97338 566.12825V473.045407h93.082842V566.12825h-93.082842z m-62.912999 101.157712V575.001733h125.914732v92.284229h-125.914732z m77.288042-60.872097h-28.661352v-15.528596h-27.419064V642.440208h83.588215v-51.643674h-27.507799v15.617331z" fill="#FFFFFF" /><path d="M488.041594 767.18364h-47.473136v-17.569498h70.100519v12.689082c-24.490815 29.90364-27.774003 51.466205-29.459965 92.816637h-21.207626c1.863432-36.647487 7.986135-59.984749 28.040208-87.936221zM523.269324 843.850537l35.671404-51.998613h-31.678336v-16.593414h57.855112v11.269324l-35.760138 51.998613h36.913691v16.593414h-63.001733v-11.269324z" fill="#FFFFFF" /></svg>