<?xml version="1.0" standalone="no"?><!DOCTYPE svg PUBLIC "-//W3C//DTD SVG 1.1//EN" "http://www.w3.org/Graphics/SVG/1.1/DTD/svg11.dtd"><svg class="icon" width="200px" height="200.00px" viewBox="0 0 1024 1024" version="1.1" xmlns="http://www.w3.org/2000/svg"><path d="M852.537678 966.322357c7.542461 0 14.818718-3.016984 20.142807-8.341075s8.341075-12.600347 8.341075-20.142807V262.033969c0-6.743847-2.395841-13.22149-6.743848-18.368111L725.469393 67.793414c-5.412825-6.388908-13.39896-10.115771-21.740034-10.115771h-532.231543c-7.542461 0-14.818718 3.016984-20.142807 8.341075s-8.341075 12.600347-8.341075 20.142807v851.67695c0 7.542461 3.016984 14.818718 8.341075 20.142807s12.600347 8.341075 20.142807 8.341075h681.039862z" fill="#DF3D54" /><path d="M881.02156 265.228423v-3.194454c0-6.743847-2.395841-13.22149-6.743848-18.368111L725.469393 67.793414c-5.412825-6.388908-13.39896-10.115771-21.740034-10.115771h-1.331023v207.55078h178.623224z" opacity=".15" /><path d="M647.915147 323.438475l-82.257192 21.828769v241.891162c0 35.848873-29.016291 64.865165-64.865165 64.865164-35.848873 0-64.865165-29.016291-64.865164-64.865164 0-35.848873 29.016291-64.865165 64.865164-64.865165 18.456846 0 35.05026 7.719931 46.851993 20.054073v-228.935876l100.270364-26.531715v36.558752z" fill="#FFFFFF" /><path d="M397.265858 833.468562c0-17.125823 13.842634-26.088042 45.87591-29.459966-0.266205-7.808666-3.726863-13.842634-13.57643-13.842634-7.453726 0-14.552513 3.283189-21.917504 7.542461l-7.542461-13.842634c9.405893-5.856499 20.852686-10.559445 33.364298-10.559446 20.231542 0 30.613518 12.156672 30.613518 35.22773v46.585788h-17.037088l-1.597228-8.518544h-0.443674c-7.010052 5.945234-14.996187 10.559445-24.04714 10.559446-14.286308-0.088735-23.692201-10.204506-23.692201-23.692201z m45.87591-0.621144v-16.14974c-19.344194 2.57331-25.910572 7.808666-25.910572 14.996187 0 6.300173 4.436742 8.962218 10.559445 8.962218 5.945234 0.088735 10.381976-2.75078 15.351127-7.808665zM481.475217 833.468562c0-17.125823 13.842634-26.088042 45.87591-29.459966-0.266205-7.808666-3.726863-13.842634-13.57643-13.842634-7.453726 0-14.552513 3.283189-21.917505 7.542461l-7.542461-13.842634c9.405893-5.856499 20.852686-10.559445 33.364298-10.559446 20.231542 0 30.613518 12.156672 30.613519 35.22773v46.585788h-17.125824l-1.597227-8.518544h-0.443674c-7.010052 5.945234-14.996187 10.559445-24.04714 10.559446-14.197574-0.088735-23.603466-10.204506-23.603466-23.692201z m45.87591-0.621144v-16.14974c-19.344194 2.57331-25.910572 7.808666-25.910572 14.996187 0 6.300173 4.436742 8.962218 10.559445 8.962218 5.945234 0.088735 10.381976-2.75078 15.351127-7.808665zM564.708492 815.366655c0-26.620451 19.07799-42.060312 40.72929-42.060312 9.849567 0 17.392028 3.815598 23.248526 8.873484l-9.938301 13.487695c-3.993068-3.460659-7.719931-5.235355-12.245407-5.235356-12.156672 0-20.409012 9.849567-20.409012 24.934489 0 14.996187 8.25234 24.668284 19.787868 24.668284 5.679029 0 11.091854-2.75078 15.528596-6.388908l8.25234 13.842635c-7.542461 6.655113-17.214558 9.672097-26.088042 9.672097-22.006239-0.088735-38.865858-15.439861-38.865858-41.794108z" fill="#FFFFFF" /></svg>