<?xml version="1.0" standalone="no"?><!DOCTYPE svg PUBLIC "-//W3C//DTD SVG 1.1//EN" "http://www.w3.org/Graphics/SVG/1.1/DTD/svg11.dtd"><svg class="icon" width="200px" height="200.00px" viewBox="0 0 1024 1024" version="1.1" xmlns="http://www.w3.org/2000/svg"><path d="M852.537678 966.322357c7.542461 0 14.818718-3.016984 20.142807-8.341075s8.341075-12.600347 8.341075-20.142807V262.033969c0-6.743847-2.395841-13.22149-6.743848-18.368111L725.469393 67.793414c-5.412825-6.388908-13.39896-10.115771-21.740034-10.115771h-532.231543c-7.542461 0-14.818718 3.016984-20.142807 8.341075s-8.341075 12.600347-8.341075 20.142807v851.67695c0 7.542461 3.016984 14.818718 8.341075 20.142807s12.600347 8.341075 20.142807 8.341075h681.039862z" fill="#E06AFF" /><path d="M881.02156 265.228423v-3.194454c0-6.743847-2.395841-13.22149-6.743848-18.368111L725.469393 67.793414c-5.412825-6.388908-13.39896-10.115771-21.740034-10.115771h-1.331023v207.55078h178.623224z" opacity=".15" /><path d="M441.278336 557.680693H310.483189l-34.606586 109.321317h-45.964645l121.566725-357.778856h50.312651l121.566725 357.778856h-47.828076l-34.251647-109.321317z m-11.180589-36.115078l-17.037088-54.660658c-13.22149-40.55182-24.40208-79.595147-36.115078-121.034316h-2.040902c-11.180589 41.971577-22.982322 80.571231-35.671403 121.034316l-17.569498 54.660658h108.433969zM549.62357 534.698371c0-85.895321 58.121317-139.579896 119.614558-139.579896 67.34974 0 105.416984 48.804159 105.416985 124.494974 0 9.760832-0.976083 19.07799-1.952167 25.378163H593.990988c2.92825 56.612825 37.62357 92.727903 87.847487 92.727903 25.821837 0 46.851993-7.808666 66.373657-21.030156l16.061005 29.282495c-23.425997 15.173657-51.732409 27.330329-87.847487 27.33033-70.189255 0.088735-126.80208-51.2-126.80208-138.603813z m185.89948-21.47383c0-53.684575-24.40208-82.434662-65.841248-82.434662-37.62357 0-70.810399 30.258579-76.134488 82.434662h141.975736z" fill="#FFFFFF" /><path d="M389.723397 833.468562c0-17.125823 13.842634-26.088042 45.87591-29.459966-0.266205-7.808666-3.726863-13.842634-13.57643-13.842634-7.453726 0-14.552513 3.283189-21.917504 7.542461l-7.542461-13.842634c9.405893-5.856499 20.852686-10.559445 33.364298-10.559446 20.231542 0 30.613518 12.156672 30.613518 35.22773v46.585788h-17.037088l-1.597228-8.518544h-0.443674c-7.010052 5.945234-14.996187 10.559445-24.04714 10.559446-14.286308-0.088735-23.692201-10.204506-23.692201-23.692201z m45.87591-0.621144v-16.14974c-19.344194 2.57331-25.910572 7.808666-25.910572 14.996187 0 6.300173 4.436742 8.962218 10.559445 8.962218 5.945234 0.088735 10.381976-2.75078 15.351127-7.808665zM472.956672 815.366655c0-25.910572 18.101906-42.060312 37.179896-42.060312 21.917504 0 33.364298 16.14974 33.364299 38.155979 0 3.815598-0.443674 7.719931-0.976084 9.583363H493.365685c1.685962 13.132756 10.293241 19.965338 22.094974 19.965338 6.566378 0 12.245407-1.952166 17.924436-5.590295l7.098787 12.866551c-7.808666 5.412825-17.924437 8.873484-27.951473 8.873484-22.183709-0.088735-39.575737-15.617331-39.575737-41.794108z m52.619758-8.163605c0-10.82565-4.880416-17.658232-15.084922-17.658232-8.429809 0-15.794801 5.945234-17.392028 17.658232h32.47695zM560.715425 775.25851h17.125823l1.419757 8.252339h0.532409c6.743847-5.679029 14.996187-10.293241 23.514732-10.293241 19.699133 0 31.323397 16.14974 31.323396 40.640555 0 27.330329-16.415945 43.213865-33.896707 43.213865-7.010052 0-13.665165-3.105719-19.787868-8.696014l0.532409 13.132755v24.224611h-20.852686v-110.47487z m52.531022 38.954592c0-15.262392-4.880416-23.692201-15.794801-23.692201-5.412825 0-10.293241 2.75078-15.7948 8.25234v35.05026c5.14662 4.436742 10.293241 5.945234 14.552513 5.945234 9.583362 0.088735 17.037088-8.163605 17.037088-25.555633z" fill="#FFFFFF" /></svg>