<?xml version="1.0" standalone="no"?><!DOCTYPE svg PUBLIC "-//W3C//DTD SVG 1.1//EN" "http://www.w3.org/Graphics/SVG/1.1/DTD/svg11.dtd"><svg class="icon" width="200px" height="200.00px" viewBox="0 0 1024 1024" version="1.1" xmlns="http://www.w3.org/2000/svg"><path d="M852.537678 966.322357c7.542461 0 14.818718-3.016984 20.142807-8.341075s8.341075-12.600347 8.341075-20.142807V262.033969c0-6.743847-2.395841-13.22149-6.743848-18.368111L725.469393 67.793414c-5.412825-6.388908-13.39896-10.115771-21.740034-10.115771h-532.231543c-7.542461 0-14.818718 3.016984-20.142807 8.341075s-8.341075 12.600347-8.341075 20.142807v851.67695c0 7.542461 3.016984 14.818718 8.341075 20.142807s12.600347 8.341075 20.142807 8.341075h681.039862z" fill="#E06AFF" /><path d="M881.02156 265.228423v-3.194454c0-6.743847-2.395841-13.22149-6.743848-18.368111L725.469393 67.793414c-5.412825-6.388908-13.39896-10.115771-21.740034-10.115771h-1.331023v207.55078h178.623224z" opacity=".15" /><path d="M441.278336 557.680693H310.483189l-34.606586 109.321317h-45.964645l121.566725-357.778856h50.312651l121.566725 357.778856h-47.828076l-34.251647-109.321317z m-11.180589-36.115078l-17.037088-54.660658c-13.22149-40.55182-24.40208-79.595147-36.115078-121.034316h-2.040902c-11.180589 41.971577-22.982322 80.571231-35.671403 121.034316l-17.569498 54.660658h108.433969zM549.62357 534.698371c0-85.895321 58.121317-139.579896 119.614558-139.579896 67.34974 0 105.416984 48.804159 105.416985 124.494974 0 9.760832-0.976083 19.07799-1.952167 25.378163H593.990988c2.92825 56.612825 37.62357 92.727903 87.847487 92.727903 25.821837 0 46.851993-7.808666 66.373657-21.030156l16.061005 29.282495c-23.425997 15.173657-51.732409 27.330329-87.847487 27.33033-70.189255 0.088735-126.80208-51.2-126.80208-138.603813z m185.89948-21.47383c0-53.684575-24.40208-82.434662-65.841248-82.434662-37.62357 0-70.810399 30.258579-76.134488 82.434662h141.975736z" fill="#FFFFFF" /><path d="M395.491161 833.468562c0-17.125823 13.842634-26.088042 45.87591-29.459966-0.266205-7.808666-3.726863-13.842634-13.57643-13.842634-7.453726 0-14.552513 3.283189-21.917504 7.542461l-7.542461-13.842634c9.405893-5.856499 20.852686-10.559445 33.364298-10.559446 20.231542 0 30.613518 12.156672 30.613518 35.22773v46.585788h-17.037088l-1.597227-8.518544h-0.443674c-7.010052 5.945234-14.996187 10.559445-24.047141 10.559446-14.286308-0.088735-23.692201-10.204506-23.692201-23.692201z m45.87591-0.621144v-16.14974c-19.344194 2.57331-25.910572 7.808666-25.910572 14.996187 0 6.300173 4.436742 8.962218 10.559446 8.962218 5.945234 0.088735 10.381976-2.75078 15.351126-7.808665zM478.724437 815.366655c0-25.910572 18.101906-42.060312 37.179896-42.060312 21.917504 0 33.364298 16.14974 33.364298 38.155979 0 3.815598-0.443674 7.719931-0.976083 9.583363h-49.159099c1.685962 13.132756 10.293241 19.965338 22.094974 19.965338 6.566378 0 12.245407-1.952166 17.924437-5.590295l7.098786 12.866551c-7.808666 5.412825-17.924437 8.873484-27.951473 8.873484-22.183709-0.088735-39.575737-15.617331-39.575736-41.794108z m52.619757-8.163605c0-10.82565-4.880416-17.658232-15.084922-17.658232-8.429809 0-15.794801 5.945234-17.392028 17.658232h32.47695zM580.237088 813.503224l-23.425996-38.244714h22.538648l7.986135 14.286308c2.307106 4.436742 4.702946 8.962218 7.098787 13.39896h0.532409c1.863432-4.436742 3.993068-8.962218 5.856499-13.39896l6.655113-14.286308H629.129983l-23.337262 40.640554 24.934489 39.220797h-22.449914l-8.873483-14.552513c-2.57331-4.702946-5.14662-9.583362-7.719931-14.108838h-0.709879c-2.307106 4.525477-4.436742 9.228423-6.655112 14.108838l-7.453726 14.552513h-21.6513l25.023223-41.616637z" fill="#FFFFFF" /></svg>