<?xml version="1.0" standalone="no"?><!DOCTYPE svg PUBLIC "-//W3C//DTD SVG 1.1//EN" "http://www.w3.org/Graphics/SVG/1.1/DTD/svg11.dtd"><svg class="icon" width="200px" height="200.00px" viewBox="0 0 1024 1024" version="1.1" xmlns="http://www.w3.org/2000/svg"><path d="M852.537678 966.322357c7.542461 0 14.818718-3.016984 20.142807-8.341075s8.341075-12.600347 8.341075-20.142807V262.033969c0-6.743847-2.395841-13.22149-6.743848-18.368111L725.469393 67.793414c-5.412825-6.388908-13.39896-10.115771-21.740034-10.115771h-532.231543c-7.542461 0-14.818718 3.016984-20.142807 8.341075s-8.341075 12.600347-8.341075 20.142807v851.67695c0 7.542461 3.016984 14.818718 8.341075 20.142807s12.600347 8.341075 20.142807 8.341075h681.039862z" fill="#FF9A00" /><path d="M881.02156 265.228423v-3.194454c0-6.743847-2.395841-13.22149-6.743848-18.368111L725.469393 67.793414c-5.412825-6.388908-13.39896-10.115771-21.740034-10.115771h-1.331023v207.55078h178.623224z" opacity=".15" /><path d="M509.160485 557.680693H378.365338l-34.606586 109.321317h-45.964645l121.566725-357.778856h50.312652l121.566724 357.778856h-47.828076l-34.251647-109.321317z m-11.180589-36.115078l-17.037088-54.660658c-13.22149-40.55182-24.40208-79.595147-36.115078-121.034316H442.786828c-11.180589 41.971577-22.982322 80.571231-35.671403 121.034316l-17.569498 54.660658h108.433969zM629.218718 318.540312c0-18.101906 13.132756-28.838821 30.790987-28.838822 17.569497 0 30.790988 10.736915 30.790988 28.838822 0 16.593414-13.22149 28.838821-30.790988 28.838821-17.658232-0.088735-30.790988-12.245407-30.790987-28.838821z m8.252339 83.410745h44.456153v265.050953h-44.456153v-265.050953z" fill="#FFFFFF" /><path d="M455.387175 833.468562c0-17.125823 13.842634-26.088042 45.87591-29.459966-0.266205-7.808666-3.726863-13.842634-13.57643-13.842634-7.453726 0-14.552513 3.283189-21.917504 7.542461l-7.542461-13.842634c9.405893-5.856499 20.852686-10.559445 33.364298-10.559446 20.231542 0 30.613518 12.156672 30.613518 35.22773v46.585788h-17.037088l-1.597227-8.518544h-0.443675c-7.010052 5.945234-14.996187 10.559445-24.04714 10.559446-14.286308-0.088735-23.692201-10.204506-23.692201-23.692201z m45.87591-0.621144v-16.14974c-19.344194 2.57331-25.910572 7.808666-25.910572 14.996187 0 6.300173 4.436742 8.962218 10.559445 8.962218 5.945234 0.088735 10.381976-2.75078 15.351127-7.808665zM541.637435 751.033899c0-6.832582 5.235355-11.358059 12.511612-11.358058 7.098787 0 12.422877 4.525477 12.422877 11.358058 0 6.566378-5.235355 11.446794-12.422877 11.446794-7.276256 0-12.511612-4.880416-12.511612-11.446794z m1.952166 24.224611h20.852687v79.861351h-20.852687v-79.861351z" fill="#FFFFFF" /></svg>