<?xml version="1.0" standalone="no"?><!DOCTYPE svg PUBLIC "-//W3C//DTD SVG 1.1//EN" "http://www.w3.org/Graphics/SVG/1.1/DTD/svg11.dtd"><svg class="icon" width="200px" height="200.00px" viewBox="0 0 1024 1024" version="1.1" xmlns="http://www.w3.org/2000/svg"><path d="M852.537678 966.322357c7.542461 0 14.818718-3.016984 20.142807-8.341075s8.341075-12.600347 8.341075-20.142807V262.033969c0-6.743847-2.395841-13.22149-6.743848-18.368111L725.469393 67.793414c-5.412825-6.388908-13.39896-10.115771-21.740034-10.115771h-532.231543c-7.542461 0-14.818718 3.016984-20.142807 8.341075s-8.341075 12.600347-8.341075 20.142807v851.67695c0 7.542461 3.016984 14.818718 8.341075 20.142807s12.600347 8.341075 20.142807 8.341075h681.039862z" fill="#57C021" /><path d="M881.02156 265.228423v-3.194454c0-6.743847-2.395841-13.22149-6.743848-18.368111L725.469393 67.793414c-5.412825-6.388908-13.39896-10.115771-21.740034-10.115771h-1.331023v207.55078h178.623224z" opacity=".15" /><path d="M355.569359 833.468562c0-17.125823 13.842634-26.088042 45.87591-29.459966-0.266205-7.808666-3.726863-13.842634-13.57643-13.842634-7.453726 0-14.552513 3.283189-21.917505 7.542461l-7.542461-13.842634c9.405893-5.856499 20.852686-10.559445 33.364299-10.559446 20.231542 0 30.613518 12.156672 30.613518 35.22773v46.585788h-17.037089l-1.597227-8.518544h-0.443674c-7.010052 5.945234-14.996187 10.559445-24.04714 10.559446-14.286308-0.088735-23.692201-10.204506-23.692201-23.692201z m45.87591-0.621144v-16.14974c-19.344194 2.57331-25.910572 7.808666-25.910572 14.996187 0 6.300173 4.436742 8.962218 10.559445 8.962218 5.945234 0.088735 10.381976-2.75078 15.351127-7.808665zM436.229324 845.891438l9.583362-13.132755c7.098787 5.590295 13.931369 8.696014 21.385096 8.696014 7.986135 0 11.535529-3.460659 11.535528-8.42981 0-5.945234-8.25234-8.696014-16.682149-11.979202-10.115771-3.815598-21.828769-9.938302-21.828769-23.248527 0-14.375043 11.712998-24.490815 29.637435-24.490815 11.712998 0 20.497747 4.880416 27.241594 9.849567l-9.405892 12.689081c-5.679029-3.993068-11.269324-6.832582-17.214558-6.832582-7.098787 0-10.559445 3.105719-10.559446 7.719931 0 5.856499 7.808666 7.986135 16.238475 11.091854 10.559445 3.993068 22.272444 9.228423 22.272444 24.04714 0 13.931369-11.00312 25.200693-31.767071 25.200694-10.736915 0-22.627383-4.702946-30.436049-11.18059zM514.315979 775.25851h17.125823l1.419758 8.252339h0.532409c6.655113-5.679029 14.996187-10.293241 23.514731-10.293241 19.699133 0 31.323397 16.14974 31.323397 40.640555 0 27.330329-16.415945 43.213865-33.896707 43.213865-7.010052 0-13.665165-3.105719-19.787868-8.696014l0.532409 13.132755v24.224611h-20.852687l0.088735-110.47487z m52.442288 38.954592c0-15.262392-4.880416-23.692201-15.794801-23.692201-5.412825 0-10.293241 2.75078-15.7948 8.25234v35.05026c5.14662 4.436742 10.293241 5.945234 14.552513 5.945234 9.672097 0.088735 17.037088-8.163605 17.037088-25.555633zM618.135737 813.503224l-23.337262-38.15598h22.538648l7.986135 14.286309c2.307106 4.436742 4.702946 8.962218 7.098787 13.39896h0.532409c1.863432-4.436742 3.993068-8.962218 5.856499-13.39896l6.655113-14.286309h21.6513l-23.337262 40.55182 24.934489 39.220797h-22.538648l-8.873484-14.552513c-2.57331-4.702946-5.14662-9.583362-7.719931-14.108838h-0.709878c-2.307106 4.525477-4.436742 9.228423-6.655113 14.108838l-7.453726 14.552513h-21.562565l24.934489-41.616637z" fill="#FFFFFF" /><path d="M624.826343 597.850953l-15.706066-15.706066 100.447834-100.447833-100.447834-100.536569 15.706066-15.706066 116.1539 116.1539-116.1539 116.242634z m-225.652686 0l-116.1539-116.153899 116.1539-116.1539 15.706066 15.706066-100.447834 100.447834 100.447834 100.447833-15.706066 15.706066z m143.040554-5.235355l-21.562565-5.146621 51.909879-216.690467 21.562565 5.14662-51.909879 216.690468z" fill="#FFFFFF" /><path d="M378.85338 481.164645c0-15.173657 12.334142-27.507799 27.507799-27.507799s27.507799 12.334142 27.507798 27.507799-12.334142 27.507799-27.507798 27.507799-27.507799-12.334142-27.507799-27.507799z m78.086655 1.064818c0-15.173657 12.334142-27.507799 27.507799-27.507799s27.507799 12.334142 27.507799 27.507799-12.334142 27.507799-27.507799 27.507799-27.507799-12.334142-27.507799-27.507799z" fill="#FFFFFF" /></svg>