<?xml version="1.0" standalone="no"?><!DOCTYPE svg PUBLIC "-//W3C//DTD SVG 1.1//EN" "http://www.w3.org/Graphics/SVG/1.1/DTD/svg11.dtd"><svg class="icon" width="200px" height="200.00px" viewBox="0 0 1024 1024" version="1.1" xmlns="http://www.w3.org/2000/svg"><path d="M852.537678 966.322357c7.542461 0 14.818718-3.016984 20.142807-8.341075s8.341075-12.600347 8.341075-20.142807V262.033969c0-6.743847-2.395841-13.22149-6.743848-18.368111L725.469393 67.793414c-5.412825-6.388908-13.39896-10.115771-21.740034-10.115771h-532.231543c-7.542461 0-14.818718 3.016984-20.142807 8.341075s-8.341075 12.600347-8.341075 20.142807v851.67695c0 7.542461 3.016984 14.818718 8.341075 20.142807s12.600347 8.341075 20.142807 8.341075h681.039862z" fill="#FFC466" /><path d="M881.02156 265.228423v-3.194454c0-6.743847-2.395841-13.22149-6.743848-18.368111L725.469393 67.793414c-5.412825-6.388908-13.39896-10.115771-21.740034-10.115771h-1.331023v207.55078h178.623224z" opacity=".15" /><path d="M324.565407 474.287695c0-103.553553 83.943154-187.496707 187.496707-187.496707 103.553553 0 187.496707 83.943154 187.496707 187.496707 0 103.553553-83.943154 187.496707-187.496707 187.496707-103.642288 0-187.496707-83.943154-187.496707-187.496707z m220.506066-79.062738c-82.523397-55.370537-104.795841-50.046447-104.79584 76.933102s22.272444 139.579896 104.884575 81.192374 82.612132-72.318891 82.612132-81.192374c-0.088735-8.873484-0.088735-21.562565-82.700867-76.933102z" fill="#FFFFFF" /><path d="M414.125477 833.468562c0-17.125823 13.842634-26.088042 45.875909-29.459966-0.266205-7.808666-3.726863-13.842634-13.576429-13.842634-7.453726 0-14.552513 3.283189-21.917505 7.542461l-7.542461-13.842634c9.405893-5.856499 20.852686-10.559445 33.364298-10.559446 20.231542 0 30.613518 12.156672 30.613519 35.22773v46.585788h-17.037089l-1.597227-8.518544h-0.443674c-7.010052 5.945234-14.996187 10.559445-24.04714 10.559446-14.286308-0.088735-23.692201-10.204506-23.692201-23.692201z m45.875909-0.621144v-16.14974c-19.344194 2.57331-25.910572 7.808666-25.910571 14.996187 0 6.300173 4.436742 8.962218 10.559445 8.962218 5.945234 0.088735 10.381976-2.75078 15.351126-7.808665zM493.09948 775.25851h21.118891l11.712998 39.753206c1.952166 7.808666 4.259272 16.14974 6.388908 24.22461h0.709879c1.952166-8.163605 4.259272-16.415945 6.388908-24.22461l11.712998-39.753206h20.054073l-26.62045 79.861351h-24.22461l-27.241595-79.861351zM582.455459 751.033899c0-6.832582 5.235355-11.358059 12.511612-11.358058 7.098787 0 12.422877 4.525477 12.422877 11.358058 0 6.566378-5.235355 11.446794-12.422877 11.446794-7.276256 0-12.511612-4.880416-12.511612-11.446794z m1.952167 24.224611h20.852686v79.861351h-20.852686v-79.861351z" fill="#FFFFFF" /></svg>