<?xml version="1.0" standalone="no"?><!DOCTYPE svg PUBLIC "-//W3C//DTD SVG 1.1//EN" "http://www.w3.org/Graphics/SVG/1.1/DTD/svg11.dtd"><svg class="icon" width="200px" height="200.00px" viewBox="0 0 1024 1024" version="1.1" xmlns="http://www.w3.org/2000/svg"><path d="M852.537678 966.322357c7.542461 0 14.818718-3.016984 20.142807-8.341075s8.341075-12.600347 8.341075-20.142807V262.033969c0-6.743847-2.395841-13.22149-6.743848-18.368111L725.469393 67.793414c-5.412825-6.388908-13.39896-10.115771-21.740034-10.115771h-532.231543c-7.542461 0-14.818718 3.016984-20.142807 8.341075s-8.341075 12.600347-8.341075 20.142807v851.67695c0 7.542461 3.016984 14.818718 8.341075 20.142807s12.600347 8.341075 20.142807 8.341075h681.039862z" fill="#87A0A0" /><path d="M881.02156 265.228423v-3.194454c0-6.743847-2.395841-13.22149-6.743848-18.368111L725.469393 67.793414c-5.412825-6.388908-13.39896-10.115771-21.740034-10.115771h-1.331023v207.55078h178.623224z" opacity=".15" /><path d="M423.886308 846.690052h-0.443674l-1.863431 8.429809h-16.32721v-113.758059h20.852686v28.661352l-0.443674 12.866551c6.300173-5.679029 14.286308-9.583362 22.094974-9.583362 19.699133 0 31.500867 16.14974 31.500867 40.463085 0 27.507799-16.415945 43.3026-33.896707 43.3026-7.187522 0-14.907452-3.638128-21.473831-10.381976z m33.807973-32.47695c0-15.262392-4.880416-23.692201-15.794801-23.692201-5.412825 0-10.293241 2.75078-15.794801 8.25234v35.05026c4.969151 4.436742 10.293241 5.945234 14.552513 5.945234 9.583362 0.088735 17.037088-8.163605 17.037089-25.555633zM491.058579 833.468562c0-17.125823 13.842634-26.088042 45.87591-29.459966-0.266205-7.808666-3.726863-13.842634-13.57643-13.842634-7.453726 0-14.552513 3.283189-21.917504 7.542461l-7.542461-13.842634c9.405893-5.856499 20.852686-10.559445 33.364298-10.559446 20.231542 0 30.613518 12.156672 30.613518 35.22773v46.585788h-17.125823l-1.597227-8.518544h-0.443675c-7.010052 5.945234-14.996187 10.559445-24.04714 10.559446-14.197574-0.088735-23.603466-10.204506-23.603466-23.692201z m45.87591-0.621144v-16.14974c-19.344194 2.57331-25.910572 7.808666-25.910572 14.996187 0 6.300173 4.436742 8.962218 10.559445 8.962218 5.945234 0.088735 10.381976-2.75078 15.351127-7.808665zM579.52721 827.168388v-35.316464h-11.269324v-15.528596l12.245407-0.976084 2.484575-21.385095h17.569498v21.296361H620.256499v16.504679h-19.699133v35.316464c0 9.139688 3.726863 13.39896 10.82565 13.398961 2.57331 0 5.679029-0.887348 7.808665-1.685962l3.460659 15.262391c-4.259272 1.419757-9.849567 3.016984-16.859619 3.016985-18.989255 0-26.265511-11.890468-26.265511-29.90364z" fill="#FFFFFF" /><path d="M283.392444 351.389948c0 2.395841 0.976083 4.614211 2.57331 6.300173 1.685962 1.685962 3.904333 2.57331 6.300173 2.573311h439.50364c4.880416 0 8.873484-3.993068 8.873483-8.873484v-34.517851c0-2.395841-0.976083-4.614211-2.57331-6.300173-1.685962-1.685962-3.904333-2.57331-6.300173-2.57331h-439.50364c-2.395841 0-4.614211 0.976083-6.300173 2.57331-1.685962 1.685962-2.57331 3.904333-2.57331 6.300173V351.389948z m0 289.186828c0 2.395841 0.976083 4.614211 2.57331 6.300174 1.685962 1.685962 3.904333 2.57331 6.300173 2.57331h439.50364c4.880416 0 8.873484-3.993068 8.873483-8.873484V377.389255c0-2.395841-0.976083-4.614211-2.57331-6.300174-1.685962-1.685962-3.904333-2.57331-6.300173-2.57331h-439.50364c-2.395841 0-4.614211 0.976083-6.300173 2.57331-1.685962 1.685962-2.57331 3.904333-2.57331 6.300174v263.187521z" fill="#FFFFFF" /><path d="M615.526932 322.906066c-6.211438 0-11.180589 4.969151-11.180589 11.180589 0 6.122704 4.969151 11.180589 11.180589 11.180589s11.180589-4.969151 11.18059-11.180589c0-6.122704-5.057886-11.180589-11.18059-11.180589z m48.271751 0c-6.211438 0-11.180589 4.969151-11.180589 11.180589 0 6.122704 4.969151 11.180589 11.180589 11.180589 6.122704 0 11.180589-4.969151 11.180589-11.180589 0-6.122704-5.057886-11.180589-11.180589-11.180589z m37.091161 11.180589c0-6.211438 4.969151-11.180589 11.180589-11.180589s11.180589 4.969151 11.18059 11.180589c0 6.122704-4.969151 11.180589-11.18059 11.180589s-11.180589-4.969151-11.180589-11.180589z" fill="#87A0A0" /></svg>