<?xml version="1.0" standalone="no"?><!DOCTYPE svg PUBLIC "-//W3C//DTD SVG 1.1//EN" "http://www.w3.org/Graphics/SVG/1.1/DTD/svg11.dtd"><svg class="icon" width="200px" height="200.00px" viewBox="0 0 1024 1024" version="1.1" xmlns="http://www.w3.org/2000/svg"><path d="M852.537678 966.322357c7.542461 0 14.818718-3.016984 20.142807-8.341075s8.341075-12.600347 8.341075-20.142807V262.033969c0-6.743847-2.395841-13.22149-6.743848-18.368111L725.469393 67.793414c-5.412825-6.388908-13.39896-10.115771-21.740034-10.115771h-532.231543c-7.542461 0-14.818718 3.016984-20.142807 8.341075s-8.341075 12.600347-8.341075 20.142807v851.67695c0 7.542461 3.016984 14.818718 8.341075 20.142807s12.600347 8.341075 20.142807 8.341075h681.039862z" fill="#72A9FE" /><path d="M881.02156 265.228423v-3.194454c0-6.743847-2.395841-13.22149-6.743848-18.368111L725.469393 67.793414c-5.412825-6.388908-13.39896-10.115771-21.740034-10.115771h-1.331023v207.55078h178.623224z" opacity=".15" /><path d="M591.657262 342.693934c0-21.29636 17.214558-38.510919 38.510918-38.510918s38.510919 17.214558 38.510919 38.510918-17.214558 38.510919-38.510919 38.510919-38.510919-17.214558-38.510918-38.510919z m-301.077297 310.039515h442.964298l-120.679376-159.811439c-5.057886-6.655113-12.866551-10.559445-21.207625-10.559445-8.341075 0-16.238475 3.904333-21.207626 10.559445l-47.029463 62.38059-67.34974-128.931716c-4.614211-8.784749-13.665165-14.286308-23.603466-14.286309-9.938302 0-18.989255 5.50156-23.603466 14.286309l-118.283536 226.362565z" fill="#FFFFFF" /><path d="M381.293588 846.690052h-0.443675l-1.863431 8.429809h-16.32721v-113.758059h20.852686v28.661352l-0.443674 12.866551c6.300173-5.679029 14.286308-9.583362 22.094974-9.583362 19.699133 0 31.500867 16.14974 31.500867 40.463085 0 27.507799-16.415945 43.3026-33.896707 43.3026-7.187522 0-14.907452-3.638128-21.47383-10.381976z m33.807972-32.47695c0-15.262392-4.880416-23.692201-15.794801-23.692201-5.412825 0-10.293241 2.75078-15.794801 8.25234v35.05026c4.969151 4.436742 10.293241 5.945234 14.552513 5.945234 9.583362 0.088735 17.037088-8.163605 17.037089-25.555633zM454.411092 775.25851h17.125823l1.419757 10.64818h0.532409c6.655113-7.010052 14.108839-12.689081 24.490815-12.689082 11.446794 0 18.101906 5.14662 21.917504 13.931369 7.276256-7.719931 14.996187-13.931369 25.378163-13.931369 16.948354 0 24.757019 11.979203 24.757019 32.033276v49.868977H549.268631v-47.206932c0-12.245407-3.549393-16.682149-11.091855-16.682149-4.525477 0-9.672097 3.016984-15.351126 8.962218v54.926863h-20.941421v-47.206932c0-12.245407-3.549393-16.682149-11.091855-16.682149-4.525477 0-9.672097 3.016984-15.351126 8.962218v54.926863h-20.852686v-79.861351zM591.861352 775.25851h17.125823l1.419757 8.252339h0.532409c6.655113-5.679029 14.996187-10.293241 23.514732-10.293241 19.699133 0 31.323397 16.14974 31.323397 40.640555 0 27.330329-16.415945 43.213865-33.896707 43.213865-7.010052 0-13.665165-3.105719-19.787869-8.696014l0.532409 13.132755v24.224611H591.861352v-110.47487z m52.442288 38.954592c0-15.262392-4.880416-23.692201-15.794801-23.692201-5.412825 0-10.293241 2.75078-15.794801 8.25234v35.05026c5.14662 4.436742 10.293241 5.945234 14.552513 5.945234 9.583362 0.088735 17.037088-8.163605 17.037089-25.555633z" fill="#FFFFFF" /></svg>