<?xml version="1.0" standalone="no"?><!DOCTYPE svg PUBLIC "-//W3C//DTD SVG 1.1//EN" "http://www.w3.org/Graphics/SVG/1.1/DTD/svg11.dtd"><svg class="icon" width="200px" height="200.00px" viewBox="0 0 1024 1024" version="1.1" xmlns="http://www.w3.org/2000/svg"><path d="M852.537678 966.322357c7.542461 0 14.818718-3.016984 20.142807-8.341075s8.341075-12.600347 8.341075-20.142807V262.033969c0-6.743847-2.395841-13.22149-6.743848-18.368111L725.469393 67.793414c-5.412825-6.388908-13.39896-10.115771-21.740034-10.115771h-532.231543c-7.542461 0-14.818718 3.016984-20.142807 8.341075s-8.341075 12.600347-8.341075 20.142807v851.67695c0 7.542461 3.016984 14.818718 8.341075 20.142807s12.600347 8.341075 20.142807 8.341075h681.039862z" fill="#57C021" /><path d="M881.02156 265.228423v-3.194454c0-6.743847-2.395841-13.22149-6.743848-18.368111L725.469393 67.793414c-5.412825-6.388908-13.39896-10.115771-21.740034-10.115771h-1.331023v207.55078h178.623224z" opacity=".15" /><path d="M388.756187 815.366655c0-26.620451 19.07799-42.060312 40.72929-42.060312 9.849567 0 17.392028 3.815598 23.248526 8.873484l-10.027036 13.487695c-3.993068-3.460659-7.719931-5.235355-12.245407-5.235356-12.156672 0-20.409012 9.849567-20.409012 24.934489 0 14.996187 8.25234 24.668284 19.787868 24.668284 5.679029 0 11.091854-2.75078 15.528596-6.388908l8.25234 13.842635c-7.542461 6.655113-17.214558 9.672097-26.088042 9.672097-22.006239-0.088735-38.777123-15.439861-38.777123-41.794108zM468.795009 775.25851h17.125823l1.419757 8.252339h0.532409c6.655113-5.679029 14.996187-10.293241 23.514732-10.293241 19.699133 0 31.323397 16.14974 31.323397 40.640555 0 27.330329-16.415945 43.213865-33.896708 43.213865-7.010052 0-13.665165-3.105719-19.787868-8.696014l0.532409 13.132755v24.224611h-20.763951v-110.47487z m52.531022 38.954592c0-15.262392-4.880416-23.692201-15.7948-23.692201-5.412825 0-10.293241 2.75078-15.794801 8.25234v35.05026c5.14662 4.436742 10.293241 5.945234 14.552513 5.945234 9.583362 0.088735 17.037088-8.163605 17.037088-25.555633zM560.635563 775.25851h17.125823l1.419758 8.252339h0.532409c6.655113-5.679029 14.996187-10.293241 23.514731-10.293241 19.699133 0 31.323397 16.14974 31.323397 40.640555 0 27.330329-16.415945 43.213865-33.896707 43.213865-7.010052 0-13.665165-3.105719-19.787868-8.696014l0.532409 13.132755v24.224611h-20.852687l0.088735-110.47487z m52.442288 38.954592c0-15.262392-4.880416-23.692201-15.794801-23.692201-5.412825 0-10.293241 2.75078-15.7948 8.25234v35.05026c5.14662 4.436742 10.293241 5.945234 14.552513 5.945234 9.583362 0.088735 17.037088-8.163605 17.037088-25.555633z" fill="#FFFFFF" /><path d="M624.826343 597.850953l-15.706066-15.706066 100.447834-100.447833-100.447834-100.536569 15.706066-15.706066 116.1539 116.1539-116.1539 116.242634z m-225.652686 0l-116.1539-116.153899 116.1539-116.1539 15.706066 15.706066-100.447834 100.447834 100.447834 100.447833-15.706066 15.706066z m143.040554-5.235355l-21.562565-5.146621 51.909879-216.690467 21.562565 5.14662-51.909879 216.690468z" fill="#FFFFFF" /><path d="M378.85338 481.164645c0-15.173657 12.334142-27.507799 27.507799-27.507799s27.507799 12.334142 27.507798 27.507799-12.334142 27.507799-27.507798 27.507799-27.507799-12.334142-27.507799-27.507799z m78.086655 1.064818c0-15.173657 12.334142-27.507799 27.507799-27.507799s27.507799 12.334142 27.507799 27.507799-12.334142 27.507799-27.507799 27.507799-27.507799-12.334142-27.507799-27.507799z" fill="#FFFFFF" /></svg>