<?xml version="1.0" standalone="no"?><!DOCTYPE svg PUBLIC "-//W3C//DTD SVG 1.1//EN" "http://www.w3.org/Graphics/SVG/1.1/DTD/svg11.dtd"><svg class="icon" width="200px" height="200.00px" viewBox="0 0 1024 1024" version="1.1" xmlns="http://www.w3.org/2000/svg"><path d="M852.537678 966.322357c7.542461 0 14.818718-3.016984 20.142807-8.341075s8.341075-12.600347 8.341075-20.142807V262.033969c0-6.743847-2.395841-13.22149-6.743848-18.368111L725.469393 67.793414c-5.412825-6.388908-13.39896-10.115771-21.740034-10.115771h-532.231543c-7.542461 0-14.818718 3.016984-20.142807 8.341075s-8.341075 12.600347-8.341075 20.142807v851.67695c0 7.542461 3.016984 14.818718 8.341075 20.142807s12.600347 8.341075 20.142807 8.341075h681.039862z" fill="#1FB77A" /><path d="M881.02156 265.228423v-3.194454c0-6.743847-2.395841-13.22149-6.743848-18.368111L725.469393 67.793414c-5.412825-6.388908-13.39896-10.115771-21.740034-10.115771h-1.331023v207.55078h178.623224z" opacity=".15" /><path d="M484.935875 481.989879l-97.608319-172.766725h49.780243l48.804159 91.308146c9.228423 16.593414 16.593414 31.767071 28.306413 52.264818h1.952166c9.760832-20.497747 16.593414-35.671404 25.378163-52.264818l47.828076-91.308146h47.295668l-97.608319 175.2513 104.440901 182.527556h-49.780243l-52.708492-96.632235c-9.317158-17.569497-19.07799-36.115078-30.790988-57.588908h-1.952166c-10.204506 21.47383-19.521664 40.019411-28.838822 57.588908l-51.643674 96.632235h-47.295667l104.440901-185.012131z" fill="#FFFFFF" /><path d="M404.27591 815.366655c0-26.620451 19.07799-42.060312 40.729289-42.060312 9.849567 0 17.392028 3.815598 23.248527 8.873484l-10.027036 13.487695c-3.993068-3.460659-7.719931-5.235355-12.245408-5.235356-12.156672 0-20.409012 9.849567-20.409012 24.934489 0 14.996187 8.25234 24.668284 19.787869 24.668284 5.679029 0 11.091854-2.75078 15.528596-6.388908l8.25234 13.842635c-7.542461 6.655113-17.214558 9.672097-26.088042 9.672097-22.006239-0.088735-38.777123-15.439861-38.777123-41.794108zM476.77227 845.891438l9.583363-13.132755c7.098787 5.590295 13.931369 8.696014 21.385095 8.696014 7.986135 0 11.535529-3.460659 11.535528-8.42981 0-5.945234-8.25234-8.696014-16.682149-11.979202-10.115771-3.815598-21.828769-9.938302-21.828769-23.248527 0-14.375043 11.712998-24.490815 29.637435-24.490815 11.712998 0 20.497747 4.880416 27.241594 9.849567l-9.405892 12.689081c-5.679029-3.993068-11.269324-6.832582-17.214558-6.832582-7.098787 0-10.559445 3.105719-10.559446 7.719931 0 5.856499 7.808666 7.986135 16.238475 11.091854 10.559445 3.993068 22.272444 9.228423 22.272444 24.04714 0 13.931369-11.00312 25.200693-31.767071 25.200694-10.736915 0-22.538648-4.702946-30.436049-11.18059zM545.630503 775.25851h21.11889l11.712999 39.753206c1.952166 7.808666 4.259272 16.14974 6.388908 24.22461h0.709879c1.952166-8.163605 4.259272-16.415945 6.388908-24.22461l11.712998-39.753206h20.054073l-26.620451 79.861351h-24.22461l-27.241594-79.861351z" fill="#FFFFFF" /></svg>