<?xml version="1.0" standalone="no"?><!DOCTYPE svg PUBLIC "-//W3C//DTD SVG 1.1//EN" "http://www.w3.org/Graphics/SVG/1.1/DTD/svg11.dtd"><svg class="icon" width="200px" height="200.00px" viewBox="0 0 1024 1024" version="1.1" xmlns="http://www.w3.org/2000/svg"><path d="M852.537678 966.322357c7.542461 0 14.818718-3.016984 20.142807-8.341075s8.341075-12.600347 8.341075-20.142807V262.033969c0-6.743847-2.395841-13.22149-6.743848-18.368111L725.469393 67.793414c-5.412825-6.388908-13.39896-10.115771-21.740034-10.115771h-532.231543c-7.542461 0-14.818718 3.016984-20.142807 8.341075s-8.341075 12.600347-8.341075 20.142807v851.67695c0 7.542461 3.016984 14.818718 8.341075 20.142807s12.600347 8.341075 20.142807 8.341075h681.039862z" fill="#F7CE5A" /><path d="M881.02156 265.228423v-3.194454c0-6.743847-2.395841-13.22149-6.743848-18.368111L725.469393 67.793414c-5.412825-6.388908-13.39896-10.115771-21.740034-10.115771h-1.331023v207.55078h178.623224z" opacity=".15" /><path d="M409.954939 815.366655c0-26.088042 16.238475-42.060312 33.453033-42.060312 8.962218 0 14.552513 3.460659 20.231543 8.696014l-0.887349-12.511612v-28.128943h20.941422v113.758059h-16.859619l-1.685962-8.252339h-0.443674c-5.856499 5.679029-13.842634 10.293241-22.094974 10.293241-19.787868-0.088735-32.654419-15.706066-32.65442-41.794108z m52.885962 16.238475v-35.05026c-4.880416-4.436742-9.849567-5.945234-14.818717-5.945234-8.962218 0-16.504679 8.518544-16.50468 24.490815 0 16.504679 5.945234 24.757019 16.50468 24.757019 5.590295 0 10.293241-2.307106 14.818717-8.25234zM504.368804 751.033899c0-6.832582 5.235355-11.358059 12.511612-11.358058 7.098787 0 12.422877 4.525477 12.422877 11.358058 0 6.566378-5.235355 11.446794-12.422877 11.446794-7.276256 0-12.511612-4.880416-12.511612-11.446794z m1.952167 24.224611h20.852686v79.861351h-20.852686v-79.861351zM540.395147 775.25851h21.118891l11.712998 39.753206c1.952166 7.808666 4.259272 16.14974 6.388909 24.22461h0.709878c1.952166-8.163605 4.259272-16.415945 6.388908-24.22461l11.712999-39.753206H618.481802l-26.62045 79.861351h-24.22461l-27.241595-79.861351z" fill="#FFFFFF" /><path d="M406.290191 634.010399l-34.872791-27.419065 97.608319-124.228769-97.608319-124.22877 34.872791-27.419064 119.082149 151.647834-119.082149 151.647834z m207.19584-8.962219l-60.694627-275.876603 43.302599-9.494627 60.694628 275.876603-43.3026 9.494627z" fill="#FFFFFF" /></svg>