<?xml version="1.0" standalone="no"?><!DOCTYPE svg PUBLIC "-//W3C//DTD SVG 1.1//EN" "http://www.w3.org/Graphics/SVG/1.1/DTD/svg11.dtd"><svg class="icon" width="200px" height="200.00px" viewBox="0 0 1024 1024" version="1.1" xmlns="http://www.w3.org/2000/svg"><path d="M852.537678 966.322357c7.542461 0 14.818718-3.016984 20.142807-8.341075s8.341075-12.600347 8.341075-20.142807V262.033969c0-6.743847-2.395841-13.22149-6.743848-18.368111L725.469393 67.793414c-5.412825-6.388908-13.39896-10.115771-21.740034-10.115771h-532.231543c-7.542461 0-14.818718 3.016984-20.142807 8.341075s-8.341075 12.600347-8.341075 20.142807v851.67695c0 7.542461 3.016984 14.818718 8.341075 20.142807s12.600347 8.341075 20.142807 8.341075h681.039862z" fill="#87A0A0" /><path d="M881.02156 265.228423v-3.194454c0-6.743847-2.395841-13.22149-6.743848-18.368111L725.469393 67.793414c-5.412825-6.388908-13.39896-10.115771-21.740034-10.115771h-1.331023v207.55078h178.623224z" opacity=".15" /><path d="M427.701906 815.366655c0-26.088042 16.238475-42.060312 33.453033-42.060312 8.962218 0 14.552513 3.460659 20.231543 8.696014l-0.887349-12.511612v-28.128943h20.941422v113.758059h-16.859619l-1.685962-8.252339h-0.443674c-5.856499 5.679029-13.842634 10.293241-22.094974 10.293241-19.787868-0.088735-32.654419-15.706066-32.65442-41.794108z m52.885962 16.238475v-35.05026c-4.880416-4.436742-9.849567-5.945234-14.818717-5.945234-8.962218 0-16.504679 8.518544-16.50468 24.490815 0 16.504679 5.945234 24.757019 16.50468 24.757019 5.590295 0 10.293241-2.307106 14.818717-8.25234zM524.067938 832.758683v-91.396881h20.852686v92.372964c0 4.702946 2.307106 6.300173 4.259272 6.300173 0.887348 0 1.419757 0 2.839515-0.266204l2.57331 15.528596c-2.395841 0.976083-5.945234 1.863432-10.82565 1.863432-14.552513-0.088735-19.699133-9.583362-19.699133-24.40208zM568.967764 832.758683v-91.396881h20.852687v92.372964c0 4.702946 2.307106 6.300173 4.259272 6.300173 0.887348 0 1.419757 0 2.839514-0.266204l2.573311 15.528596c-2.395841 0.976083-5.945234 1.863432-10.82565 1.863432-14.552513-0.088735-19.699133-9.583362-19.699134-24.40208z" fill="#FFFFFF" /><path d="M283.392444 351.389948c0 2.395841 0.976083 4.614211 2.57331 6.300173 1.685962 1.685962 3.904333 2.57331 6.300173 2.573311h439.50364c4.880416 0 8.873484-3.993068 8.873483-8.873484v-34.517851c0-2.395841-0.976083-4.614211-2.57331-6.300173-1.685962-1.685962-3.904333-2.57331-6.300173-2.57331h-439.50364c-2.395841 0-4.614211 0.976083-6.300173 2.57331-1.685962 1.685962-2.57331 3.904333-2.57331 6.300173V351.389948z m0 289.186828c0 2.395841 0.976083 4.614211 2.57331 6.300174 1.685962 1.685962 3.904333 2.57331 6.300173 2.57331h439.50364c4.880416 0 8.873484-3.993068 8.873483-8.873484V377.389255c0-2.395841-0.976083-4.614211-2.57331-6.300174-1.685962-1.685962-3.904333-2.57331-6.300173-2.57331h-439.50364c-2.395841 0-4.614211 0.976083-6.300173 2.57331-1.685962 1.685962-2.57331 3.904333-2.57331 6.300174v263.187521z" fill="#FFFFFF" /><path d="M615.526932 322.906066c-6.211438 0-11.180589 4.969151-11.180589 11.180589 0 6.122704 4.969151 11.180589 11.180589 11.180589s11.180589-4.969151 11.18059-11.180589c0-6.122704-5.057886-11.180589-11.18059-11.180589z m48.271751 0c-6.211438 0-11.180589 4.969151-11.180589 11.180589 0 6.122704 4.969151 11.180589 11.180589 11.180589 6.122704 0 11.180589-4.969151 11.180589-11.180589 0-6.122704-5.057886-11.180589-11.180589-11.180589z m37.091161 11.180589c0-6.211438 4.969151-11.180589 11.180589-11.180589s11.180589 4.969151 11.18059 11.180589c0 6.122704-4.969151 11.180589-11.18059 11.180589s-11.180589-4.969151-11.180589-11.180589z" fill="#87A0A0" /></svg>