<?xml version="1.0" standalone="no"?><!DOCTYPE svg PUBLIC "-//W3C//DTD SVG 1.1//EN" "http://www.w3.org/Graphics/SVG/1.1/DTD/svg11.dtd"><svg class="icon" width="200px" height="200.00px" viewBox="0 0 1024 1024" version="1.1" xmlns="http://www.w3.org/2000/svg"><path d="M852.537678 966.322357c7.542461 0 14.818718-3.016984 20.142807-8.341075s8.341075-12.600347 8.341075-20.142807V262.033969c0-6.743847-2.395841-13.22149-6.743848-18.368111L725.469393 67.793414c-5.412825-6.388908-13.39896-10.115771-21.740034-10.115771h-532.231543c-7.542461 0-14.818718 3.016984-20.142807 8.341075s-8.341075 12.600347-8.341075 20.142807v851.67695c0 7.542461 3.016984 14.818718 8.341075 20.142807s12.600347 8.341075 20.142807 8.341075h681.039862z" fill="#3E8AF0" /><path d="M881.02156 265.228423v-3.194454c0-6.743847-2.395841-13.22149-6.743848-18.368111L725.469393 67.793414c-5.412825-6.388908-13.39896-10.115771-21.740034-10.115771h-1.331023v207.55078h178.623224z" opacity=".15" /><path d="M309.95078 309.223154h46.851993l37.62357 194.772964c6.832582 38.510919 14.197574 77.110572 21.030156 115.710225h1.952167c8.25234-38.599653 17.037088-77.110572 25.821837-115.710225l49.336568-194.772964h40.995494l50.312652 194.772964c8.784749 38.067244 17.037088 76.666898 25.378163 115.710225h2.484575c6.832582-39.043328 13.665165-77.642981 20.497747-115.710225l37.62357-194.772964h43.480069L638.890815 667.00201h-54.12825l-54.216984-215.714384c-6.388908-28.306412-11.712998-54.12825-17.569498-81.547314h-1.952166c-5.856499 27.330329-12.245407 53.240901-18.101907 81.547314l-53.240901 215.714384h-53.59584l-76.134489-357.778856z" fill="#FFFFFF" /><path d="M397.975737 815.366655c0-26.088042 16.238475-42.060312 33.453032-42.060312 8.962218 0 14.552513 3.460659 20.231543 8.696014l-0.887348-12.511612v-28.128943h20.941421v113.758059h-16.859619l-1.685962-8.252339h-0.443674c-5.856499 5.679029-13.842634 10.293241-22.094974 10.293241-19.787868-0.088735-32.654419-15.706066-32.654419-41.794108z m52.885961 16.238475v-35.05026c-4.880416-4.436742-9.849567-5.945234-14.818717-5.945234-8.962218 0-16.504679 8.518544-16.504679 24.490815 0 16.504679 5.945234 24.757019 16.504679 24.757019 5.590295 0 10.293241-2.307106 14.818717-8.25234zM489.372617 815.366655c0-26.620451 18.368111-42.060312 38.333449-42.060312 19.965338 0 38.333449 15.351127 38.333449 42.060312 0 26.354246-18.368111 41.794107-38.333449 41.794108-19.965338-0.088735-38.333449-15.439861-38.333449-41.794108z m55.281802 0c0-15.084922-6.122704-24.934489-16.948353-24.934489s-16.948354 9.849567-16.948354 24.934489c0 14.996187 6.122704 24.668284 16.948354 24.668284s16.948354-9.672097 16.948353-24.668284zM582.632929 827.168388v-35.316464h-11.269324v-15.528596l12.245407-0.976084 2.395841-21.385095h17.569497v21.296361h19.699134v16.504679h-19.699134v35.316464c0 9.139688 3.726863 13.39896 10.82565 13.398961 2.57331 0 5.679029-0.887348 7.808666-1.685962l3.460658 15.262391c-4.259272 1.419757-9.849567 3.016984-16.859619 3.016985-18.90052 0-26.176776-11.890468-26.176776-29.90364z" fill="#FFFFFF" /></svg>