<?xml version="1.0" standalone="no"?><!DOCTYPE svg PUBLIC "-//W3C//DTD SVG 1.1//EN" "http://www.w3.org/Graphics/SVG/1.1/DTD/svg11.dtd"><svg class="icon" width="200px" height="200.00px" viewBox="0 0 1024 1024" version="1.1" xmlns="http://www.w3.org/2000/svg"><path d="M852.537678 966.322357c7.542461 0 14.818718-3.016984 20.142807-8.341075s8.341075-12.600347 8.341075-20.142807V262.033969c0-6.743847-2.395841-13.22149-6.743848-18.368111L725.469393 67.793414c-5.412825-6.388908-13.39896-10.115771-21.740034-10.115771h-532.231543c-7.542461 0-14.818718 3.016984-20.142807 8.341075s-8.341075 12.600347-8.341075 20.142807v851.67695c0 7.542461 3.016984 14.818718 8.341075 20.142807s12.600347 8.341075 20.142807 8.341075h681.039862z" fill="#0092BF" /><path d="M881.02156 265.228423v-3.194454c0-6.743847-2.395841-13.22149-6.743848-18.368111L725.469393 67.793414c-5.412825-6.388908-13.39896-10.115771-21.740034-10.115771h-1.331023v207.55078h178.623224z" opacity=".15" /><path d="M291.937608 309.223154h102.045061c80.571231 0 134.167071 26.79792 134.167071 104.97331 0 75.60208-53.684575 110.829809-131.77123 110.82981h-59.097401v141.975736H291.937608v-357.778856z m98.584402 179.155633c63.001733 0 92.727903-22.982322 92.727903-74.182323 0-51.732409-31.767071-68.325823-94.680069-68.325823h-51.288735v142.508146h53.240901zM561.336568 636.743432l22.00624-29.282496c22.893588 18.545581 46.851993 31.234662 78.619064 31.234662 35.138995 0 52.176083-18.545581 52.176083-41.527903 0-26.79792-31.234662-39.043328-60.517158-50.312652-37.091161-13.665165-79.062738-31.767071-79.062738-76.666897 0-41.971577 33.719237-75.158406 91.308146-75.158406 32.654419 0 61.493241 13.665165 82.523396 29.72617l-21.47383 28.838821c-18.545581-13.665165-37.091161-23.425997-61.049566-23.425996-33.186828 0-48.360485 17.569497-48.360486 38.067244 0 25.378163 28.838821 34.695321 58.564992 45.87591 38.599653 14.641248 81.014905 30.258579 81.014904 80.571231 0 42.94766-34.162912 78.619064-96.632235 78.619064-37.62357 0.088735-73.738648-15.617331-99.116812-36.558752z" fill="#FFFFFF" /><path d="M395.402426 815.366655c0-25.910572 18.101906-42.060312 37.179896-42.060312 21.917504 0 33.364298 16.14974 33.364298 38.155979 0 3.815598-0.443674 7.719931-0.976083 9.583363h-49.247833c1.685962 13.132756 10.293241 19.965338 22.094974 19.965338 6.566378 0 12.245407-1.952166 17.924436-5.590295l7.098787 12.866551c-7.808666 5.412825-17.924437 8.873484-27.951473 8.873484-22.094974-0.088735-39.487002-15.617331-39.487002-41.794108z m52.531023-8.163605c0-10.82565-4.880416-17.658232-15.084922-17.658232-8.429809 0-15.794801 5.945234-17.392028 17.658232h32.47695zM483.161179 775.25851h17.125823l1.419757 8.252339h0.532409c6.655113-5.679029 14.996187-10.293241 23.514731-10.293241 19.699133 0 31.323397 16.14974 31.323397 40.640555 0 27.330329-16.415945 43.213865-33.896707 43.213865-7.010052 0-13.665165-3.105719-19.787868-8.696014l0.532409 13.132755v24.224611h-20.763951v-110.47487z m52.442287 38.954592c0-15.262392-4.880416-23.692201-15.7948-23.692201-5.412825 0-10.293241 2.75078-15.794801 8.25234v35.05026c5.14662 4.436742 10.293241 5.945234 14.552513 5.945234 9.672097 0.088735 17.037088-8.163605 17.037088-25.555633zM566.660659 845.891438l9.583362-13.132755c7.098787 5.590295 13.931369 8.696014 21.385095 8.696014 7.986135 0 11.535529-3.460659 11.535529-8.42981 0-5.945234-8.25234-8.696014-16.682149-11.979202-10.115771-3.815598-21.828769-9.938302-21.82877-23.248527 0-14.375043 11.712998-24.490815 29.637435-24.490815 11.712998 0 20.497747 4.880416 27.241595 9.849567l-9.405893 12.689081c-5.679029-3.993068-11.269324-6.832582-17.214558-6.832582-7.098787 0-10.559445 3.105719-10.559445 7.719931 0 5.856499 7.808666 7.986135 16.238474 11.091854 10.559445 3.993068 22.272444 9.228423 22.272444 24.04714 0 13.931369-11.00312 25.200693-31.767071 25.200694-10.736915 0-22.538648-4.702946-30.436048-11.18059z" fill="#FFFFFF" /></svg>