<?xml version="1.0" standalone="no"?><!DOCTYPE svg PUBLIC "-//W3C//DTD SVG 1.1//EN" "http://www.w3.org/Graphics/SVG/1.1/DTD/svg11.dtd"><svg class="icon" width="200px" height="200.00px" viewBox="0 0 1024 1024" version="1.1" xmlns="http://www.w3.org/2000/svg"><path d="M852.537678 966.322357c7.542461 0 14.818718-3.016984 20.142807-8.341075s8.341075-12.600347 8.341075-20.142807V262.033969c0-6.743847-2.395841-13.22149-6.743848-18.368111L725.469393 67.793414c-5.412825-6.388908-13.39896-10.115771-21.740034-10.115771h-532.231543c-7.542461 0-14.818718 3.016984-20.142807 8.341075s-8.341075 12.600347-8.341075 20.142807v851.67695c0 7.542461 3.016984 14.818718 8.341075 20.142807s12.600347 8.341075 20.142807 8.341075h681.039862z" fill="#87A0A0" /><path d="M881.02156 265.228423v-3.194454c0-6.743847-2.395841-13.22149-6.743848-18.368111L725.469393 67.793414c-5.412825-6.388908-13.39896-10.115771-21.740034-10.115771h-1.331023v207.55078h178.623224z" opacity=".15" /><path d="M395.402426 815.366655c0-25.910572 18.101906-42.060312 37.179896-42.060312 21.917504 0 33.364298 16.14974 33.364298 38.155979 0 3.815598-0.443674 7.719931-0.976083 9.583363h-49.247833c1.685962 13.132756 10.293241 19.965338 22.094974 19.965338 6.566378 0 12.245407-1.952166 17.924436-5.590295l7.098787 12.866551c-7.808666 5.412825-17.924437 8.873484-27.951473 8.873484-22.094974-0.088735-39.487002-15.617331-39.487002-41.794108z m52.531023-8.163605c0-10.82565-4.880416-17.658232-15.084922-17.658232-8.429809 0-15.794801 5.945234-17.392028 17.658232h32.47695zM496.826343 813.503224l-23.337262-38.244714H496.02773l7.986135 14.286308c2.307106 4.436742 4.702946 8.962218 7.098787 13.39896h0.532409c1.863432-4.436742 3.993068-8.962218 5.856499-13.39896l6.655112-14.286308h21.6513l-23.337261 40.640554 24.934488 39.220797h-22.538648l-8.873483-14.552513c-2.57331-4.702946-5.14662-9.583362-7.719931-14.108838h-0.709879c-2.307106 4.525477-4.436742 9.228423-6.655112 14.108838l-7.453727 14.552513h-21.562565l24.934489-41.616637zM552.019411 815.366655c0-25.910572 18.101906-42.060312 37.179896-42.060312 21.917504 0 33.364298 16.14974 33.364298 38.155979 0 3.815598-0.443674 7.719931-0.976083 9.583363h-49.159099c1.685962 13.132756 10.293241 19.965338 22.094974 19.965338 6.566378 0 12.245407-1.952166 17.924437-5.590295l7.098786 12.866551c-7.808666 5.412825-17.924437 8.873484-27.951473 8.873484-22.183709-0.088735-39.575737-15.617331-39.575736-41.794108z m52.619757-8.163605c0-10.82565-4.880416-17.658232-15.084922-17.658232-8.429809 0-15.794801 5.945234-17.392028 17.658232h32.47695z" fill="#FFFFFF" /><path d="M283.392444 351.389948c0 2.395841 0.976083 4.614211 2.57331 6.300173 1.685962 1.685962 3.904333 2.57331 6.300173 2.573311h439.50364c4.880416 0 8.873484-3.993068 8.873483-8.873484v-34.517851c0-2.395841-0.976083-4.614211-2.57331-6.300173-1.685962-1.685962-3.904333-2.57331-6.300173-2.57331h-439.50364c-2.395841 0-4.614211 0.976083-6.300173 2.57331-1.685962 1.685962-2.57331 3.904333-2.57331 6.300173V351.389948z m0 289.186828c0 2.395841 0.976083 4.614211 2.57331 6.300174 1.685962 1.685962 3.904333 2.57331 6.300173 2.57331h439.50364c4.880416 0 8.873484-3.993068 8.873483-8.873484V377.389255c0-2.395841-0.976083-4.614211-2.57331-6.300174-1.685962-1.685962-3.904333-2.57331-6.300173-2.57331h-439.50364c-2.395841 0-4.614211 0.976083-6.300173 2.57331-1.685962 1.685962-2.57331 3.904333-2.57331 6.300174v263.187521z" fill="#FFFFFF" /><path d="M615.526932 322.906066c-6.211438 0-11.180589 4.969151-11.180589 11.180589 0 6.122704 4.969151 11.180589 11.180589 11.180589s11.180589-4.969151 11.18059-11.180589c0-6.122704-5.057886-11.180589-11.18059-11.180589z m48.271751 0c-6.211438 0-11.180589 4.969151-11.180589 11.180589 0 6.122704 4.969151 11.180589 11.180589 11.180589 6.122704 0 11.180589-4.969151 11.180589-11.180589 0-6.122704-5.057886-11.180589-11.180589-11.180589z m37.091161 11.180589c0-6.211438 4.969151-11.180589 11.180589-11.180589s11.180589 4.969151 11.18059 11.180589c0 6.122704-4.969151 11.180589-11.18059 11.180589s-11.180589-4.969151-11.180589-11.180589z" fill="#87A0A0" /></svg>