<?xml version="1.0" standalone="no"?><!DOCTYPE svg PUBLIC "-//W3C//DTD SVG 1.1//EN" "http://www.w3.org/Graphics/SVG/1.1/DTD/svg11.dtd"><svg class="icon" width="200px" height="200.00px" viewBox="0 0 1024 1024" version="1.1" xmlns="http://www.w3.org/2000/svg"><path d="M852.537678 966.322357c7.542461 0 14.818718-3.016984 20.142807-8.341075s8.341075-12.600347 8.341075-20.142807V262.033969c0-6.743847-2.395841-13.22149-6.743848-18.368111L725.469393 67.793414c-5.412825-6.388908-13.39896-10.115771-21.740034-10.115771h-532.231543c-7.542461 0-14.818718 3.016984-20.142807 8.341075s-8.341075 12.600347-8.341075 20.142807v851.67695c0 7.542461 3.016984 14.818718 8.341075 20.142807s12.600347 8.341075 20.142807 8.341075h681.039862z" fill="#FFC466" /><path d="M881.02156 265.228423v-3.194454c0-6.743847-2.395841-13.22149-6.743848-18.368111L725.469393 67.793414c-5.412825-6.388908-13.39896-10.115771-21.740034-10.115771h-1.331023v207.55078h178.623224z" opacity=".15" /><path d="M324.565407 474.287695c0-103.553553 83.943154-187.496707 187.496707-187.496707 103.553553 0 187.496707 83.943154 187.496707 187.496707 0 103.553553-83.943154 187.496707-187.496707 187.496707-103.642288 0-187.496707-83.943154-187.496707-187.496707z m220.506066-79.062738c-82.523397-55.370537-104.795841-50.046447-104.79584 76.933102s22.272444 139.579896 104.884575 81.192374 82.612132-72.318891 82.612132-81.192374c-0.088735-8.873484-0.088735-21.562565-82.700867-76.933102z" fill="#FFFFFF" /><path d="M436.75286 768.869601c0-16.682149 7.719931-29.459965 27.774003-29.459965 6.122704 0 11.535529 1.419757 15.084922 2.839515l-3.815598 15.351126c-2.75078-0.976083-5.856499-1.685962-8.429809-1.685962-6.300173 0-9.672097 3.726863-9.672097 12.511612v6.832583h14.996187v16.504679h-14.996187v63.356672h-20.941421v-63.267937h-10.648181v-15.528596l10.648181-0.887349v-6.566378z m79.861351 86.42773c-2.307106 0.976083-5.856499 1.863432-10.64818 1.863432-14.641248 0-19.699133-9.583362-19.699133-24.40208v-91.396881h20.852686v92.372964c0 4.702946 2.307106 6.300173 4.170537 6.300173 0.887348 0 1.597227 0 2.839515-0.266204l2.484575 15.528596zM521.849567 775.25851h21.118891l11.712998 39.753206c1.952166 7.808666 4.259272 16.14974 6.388908 24.22461h0.709879c1.952166-8.163605 4.259272-16.415945 6.388908-24.22461l11.712998-39.753206h20.054073l-26.620451 79.861351h-24.22461l-27.241594-79.861351z" fill="#FFFFFF" /></svg>