<?xml version="1.0" standalone="no"?><!DOCTYPE svg PUBLIC "-//W3C//DTD SVG 1.1//EN" "http://www.w3.org/Graphics/SVG/1.1/DTD/svg11.dtd"><svg class="icon" width="200px" height="200.00px" viewBox="0 0 1024 1024" version="1.1" xmlns="http://www.w3.org/2000/svg"><path d="M852.537678 966.322357c7.542461 0 14.818718-3.016984 20.142807-8.341075s8.341075-12.600347 8.341075-20.142807V262.033969c0-6.743847-2.395841-13.22149-6.743848-18.368111L725.469393 67.793414c-5.412825-6.388908-13.39896-10.115771-21.740034-10.115771h-532.231543c-7.542461 0-14.818718 3.016984-20.142807 8.341075s-8.341075 12.600347-8.341075 20.142807v851.67695c0 7.542461 3.016984 14.818718 8.341075 20.142807s12.600347 8.341075 20.142807 8.341075h681.039862z" fill="#3ECBF0" /><path d="M881.02156 265.228423v-3.194454c0-6.743847-2.395841-13.22149-6.743848-18.368111L725.469393 67.793414c-5.412825-6.388908-13.39896-10.115771-21.740034-10.115771h-1.331023v207.55078h178.623224z" opacity=".15" /><path d="M511.97338 672.876256c-53.063432 0-102.932409-20.675217-140.37851-58.121317-37.534835-37.534835-58.121317-87.403813-58.121317-140.378509 0-53.063432 20.675217-102.932409 58.121317-140.37851 37.534835-37.534835 87.403813-58.121317 140.37851-58.121317 53.063432 0 102.932409 20.675217 140.378509 58.121317 37.534835 37.534835 58.121317 87.403813 58.121317 140.37851 0 53.063432-20.675217 102.932409-58.121317 140.378509-37.446101 37.446101-87.315078 58.121317-140.378509 58.121317z m-74.803467-115.532755c7.453726 25.910572 18.72305 47.561872 33.630503 64.244021 10.293241 11.446794 20.586482 18.634315 28.661352 23.071057V549.97851c-25.821837 0.621144-46.230849 3.549393-62.291855 7.364991z m84.475564-7.364991v94.680069c8.07487-4.436742 18.368111-11.624263 28.661351-23.071057 14.907452-16.682149 26.265511-38.422184 33.719238-64.510226-16.238475-3.726863-36.736222-6.566378-62.380589-7.098786z m83.676949 13.487695c-1.331023 4.614211-2.75078 9.139688-4.348007 13.487694-8.518544 24.04714-20.497747 44.544887-35.493934 60.872098-2.129636 2.307106-4.259272 4.436742-6.388908 6.477643 33.807972-9.405893 63.534142-28.572617 85.895321-54.30572-3.016984-4.259272-8.873484-10.64818-19.521664-17.037088-5.057886-3.105719-11.712998-6.388908-20.142808-9.494627z m-226.540034 26.265511c21.47383 24.757019 49.780243 43.480069 81.902253 53.329636-1.685962-1.685962-3.371924-3.460659-5.146621-5.235355-15.084922-16.32721-26.97539-36.824957-35.493934-60.872098-1.508492-4.259272-2.839515-8.518544-4.170537-12.955285-8.784749 3.371924-15.528596 7.010052-20.763952 10.47071-8.873484 5.767764-13.842634 11.535529-16.327209 15.262392z m231.77539-48.094281c11.00312 3.904333 20.763951 8.607279 29.282495 14.108839 8.518544 5.50156 14.641248 11.091854 19.07799 16.061005 16.948354-25.466898 27.507799-55.548007 29.193761-87.936222h-71.431543c-0.532409 20.675217-2.57331 39.930676-6.122703 57.766378z m-274.723051-57.677643c1.774697 32.210745 12.156672 62.20312 29.016292 87.581283 4.170537-4.880416 9.938302-10.293241 18.013171-15.617331 8.07487-5.32409 17.303293-9.938302 27.685269-13.7539-3.549393-17.924437-5.679029-37.446101-6.211439-58.210052h-68.503293z m90.775737 0c0.532409 18.456846 2.307106 35.848873 5.412825 51.821144 19.432929-4.702946 41.971577-7.364991 67.438475-7.986135v-43.835009h-72.8513z m95.035009 43.835009c25.378163 0.532409 47.916811 3.105719 67.527209 7.71993 3.016984-15.883536 4.880416-33.186828 5.32409-51.554939h-72.851299v43.835009z m95.035008-66.018718h71.254073c-2.218371-31.234662-12.600347-60.250953-29.016291-85.007972-4.348007 4.969151-10.470711 10.559445-19.07799 16.061005-8.341075 5.412825-17.924437 10.027036-28.750086 13.842634 3.283189 17.037088 5.14662 35.405199 5.590294 55.104333z m-95.035008 0h72.851299c-0.443674-17.392028-2.040901-33.630503-4.791681-48.715424-19.699133 4.614211-42.415251 7.276256-68.059618 7.808665v40.906759z m-95.035009 0h72.8513v-40.906759c-25.733102-0.621144-48.44922-3.371924-68.059619-8.07487-2.75078 15.084922-4.348007 31.500867-4.791681 48.981629z m-90.598267 0h68.325823c0.532409-19.787868 2.395841-38.333449 5.67903-55.548007-10.204506-3.815598-19.255459-8.25234-27.15286-13.487695-8.07487-5.32409-13.842634-10.736915-18.013171-15.617331-16.32721 24.579549-26.620451 53.507106-28.838822 84.653033z m185.633276-158.391681v95.212478c26.088042-0.621144 46.763258-3.460659 63.179202-7.364991-7.453726-26.79792-18.90052-48.981629-34.251646-65.663778-10.470711-11.180589-20.852686-18.013172-28.927556-22.183709z m-85.274177 87.581283c16.14974 3.993068 36.824957 6.921317 63.090468 7.631195V303.384402c-8.07487 4.081802-18.545581 11.00312-28.838822 22.272444-15.351127 16.593414-26.79792 38.599653-34.251646 65.308839z m124.849913-86.072791c1.419757 1.331023 2.839515 2.839515 4.259272 4.348007 15.084922 15.97227 27.064125 36.115078 35.671404 59.984749 1.774697 5.057886 3.460659 10.293241 4.969151 15.706066 8.07487-3.016984 14.375043-6.211438 19.432929-9.228423 10.64818-6.388908 16.504679-12.777816 19.521664-17.037088-22.006239-25.289428-50.933795-44.189948-83.85442-53.773311z m-182.438821 53.95078c2.75078 4.170537 8.25234 10.470711 18.72305 16.859619 4.614211 2.839515 10.381976 5.767764 17.658232 8.607279 1.419757-5.235355 3.105719-10.293241 4.791681-15.173657 8.518544-23.869671 20.497747-44.012478 35.671404-59.984749 0.976083-1.064818 1.952166-2.040901 2.92825-3.016984-31.323397 10.027036-58.742461 28.483882-79.772617 52.708492z" fill="#FFFFFF" /><path d="M378.631542 741.361802h20.852687v28.661352l-0.887349 14.996187c6.388908-5.945234 14.286308-11.712998 25.111959-11.712998 17.214558 0 24.668284 11.979203 24.668284 32.033276v49.780242h-21.030156v-47.206932c0-12.245407-3.460659-16.682149-11.269324-16.682149-6.566378 0-10.64818 3.105719-16.682149 8.962218v54.926863h-20.763952v-113.758059zM472.867938 827.168388v-35.316464h-11.269324v-15.528596l12.245407-1.064818 2.39584-21.385096h17.569498v21.385096h19.699133v16.504679h-19.699133v35.316464c0 9.139688 3.726863 13.39896 10.82565 13.398961 2.57331 0 5.679029-0.887348 7.808665-1.685962l3.460659 15.262391c-4.259272 1.419757-9.849567 3.016984-16.859619 3.016985-18.90052 0-26.176776-11.890468-26.176776-29.90364zM529.746967 775.25851h17.125823l1.419758 10.64818h0.532409c6.655113-7.010052 14.108839-12.689081 24.490814-12.689082 11.446794 0 18.101906 5.14662 21.917505 13.931369 7.276256-7.719931 14.996187-13.931369 25.378162-13.931369 16.948354 0 24.757019 11.979203 24.75702 32.033276v49.868977h-20.941422v-47.206932c0-12.245407-3.549393-16.682149-11.091854-16.682149-4.525477 0-9.672097 3.016984-15.351127 8.962218v54.926863h-20.941421v-47.206932c0-12.245407-3.549393-16.682149-11.091854-16.682149-4.525477 0-9.672097 3.016984-15.351127 8.962218v54.926863H529.746967v-79.861351z" fill="#FFFFFF" /></svg>