<?xml version="1.0" standalone="no"?><!DOCTYPE svg PUBLIC "-//W3C//DTD SVG 1.1//EN" "http://www.w3.org/Graphics/SVG/1.1/DTD/svg11.dtd"><svg class="icon" width="200px" height="200.00px" viewBox="0 0 1024 1024" version="1.1" xmlns="http://www.w3.org/2000/svg"><path d="M852.537678 966.322357c7.542461 0 14.818718-3.016984 20.142807-8.341075s8.341075-12.600347 8.341075-20.142807V262.033969c0-6.743847-2.395841-13.22149-6.743848-18.368111L725.469393 67.793414c-5.412825-6.388908-13.39896-10.115771-21.740034-10.115771h-532.231543c-7.542461 0-14.818718 3.016984-20.142807 8.341075s-8.341075 12.600347-8.341075 20.142807v851.67695c0 7.542461 3.016984 14.818718 8.341075 20.142807s12.600347 8.341075 20.142807 8.341075h681.039862z" fill="#57C021" /><path d="M881.02156 265.228423v-3.194454c0-6.743847-2.395841-13.22149-6.743848-18.368111L725.469393 67.793414c-5.412825-6.388908-13.39896-10.115771-21.740034-10.115771h-1.331023v207.55078h178.623224z" opacity=".15" /><path d="M356.989116 885.644645l3.726863-15.528596c2.129636 0.709879 4.259272 1.153553 6.566378 1.153552 6.832582 0 8.873484-4.525477 8.873484-13.576429v-82.434662h20.941421v81.813518c0 17.125823-6.566378 30.613518-26.620451 30.613518-6.211438 0.088735-10.293241-0.887348-13.487695-2.040901z m17.125823-134.610746c0-6.832582 5.235355-11.358059 12.511612-11.358058 7.098787 0 12.511612 4.525477 12.511612 11.358058 0 6.566378-5.412825 11.446794-12.511612 11.446794-7.276256 0-12.511612-4.880416-12.511612-11.446794zM415.465373 833.468562c0-17.125823 13.842634-26.088042 45.875909-29.459966-0.266205-7.808666-3.726863-13.842634-13.576429-13.842634-7.453726 0-14.552513 3.283189-21.917505 7.542461l-7.542461-13.842634c9.405893-5.856499 20.763951-10.559445 33.364298-10.559446 20.231542 0 30.613518 12.156672 30.613519 35.22773v46.585788h-17.125824l-1.597227-8.518544h-0.354939c-7.010052 5.945234-14.996187 10.559445-24.04714 10.559446-14.286308-0.088735-23.692201-10.204506-23.692201-23.692201z m45.875909-0.621144v-16.14974c-19.344194 2.57331-25.910572 7.808666-25.910571 14.996187 0 6.300173 4.436742 8.962218 10.559445 8.962218 5.945234 0.088735 10.381976-2.75078 15.351126-7.808665zM494.439376 775.25851h21.118891l11.712998 39.753206c1.952166 7.808666 4.259272 16.14974 6.388908 24.22461h0.709879c1.952166-8.163605 4.259272-16.415945 6.388908-24.22461l11.624264-39.753206h20.054072l-26.62045 79.861351h-24.22461l-27.15286-79.861351zM578.471265 833.468562c0-17.125823 13.842634-26.088042 45.87591-29.459966-0.266205-7.808666-3.726863-13.842634-13.57643-13.842634-7.453726 0-14.552513 3.283189-21.917504 7.542461l-7.542461-13.842634c9.405893-5.856499 20.852686-10.559445 33.364298-10.559446 20.231542 0 30.613518 12.156672 30.613518 35.22773v46.585788h-17.037088l-1.597227-8.518544h-0.443674c-7.010052 5.945234-14.996187 10.559445-24.047141 10.559446-14.286308-0.088735-23.692201-10.204506-23.692201-23.692201z m45.964645-0.621144v-16.14974c-19.344194 2.57331-25.910572 7.808666-25.910572 14.996187 0 6.300173 4.436742 8.962218 10.559445 8.962218 5.945234 0.088735 10.293241-2.75078 15.351127-7.808665z" fill="#FFFFFF" /><path d="M624.826343 597.850953l-15.706066-15.706066 100.447834-100.447833-100.447834-100.536569 15.706066-15.706066 116.1539 116.1539-116.1539 116.242634z m-225.652686 0l-116.1539-116.153899 116.1539-116.1539 15.706066 15.706066-100.447834 100.447834 100.447834 100.447833-15.706066 15.706066z m143.040554-5.235355l-21.562565-5.146621 51.909879-216.690467 21.562565 5.14662-51.909879 216.690468z" fill="#FFFFFF" /><path d="M378.85338 481.164645c0-15.173657 12.334142-27.507799 27.507799-27.507799s27.507799 12.334142 27.507798 27.507799-12.334142 27.507799-27.507798 27.507799-27.507799-12.334142-27.507799-27.507799z m78.086655 1.064818c0-15.173657 12.334142-27.507799 27.507799-27.507799s27.507799 12.334142 27.507799 27.507799-12.334142 27.507799-27.507799 27.507799-27.507799-12.334142-27.507799-27.507799z" fill="#FFFFFF" /></svg>