<?xml version="1.0" standalone="no"?><!DOCTYPE svg PUBLIC "-//W3C//DTD SVG 1.1//EN" "http://www.w3.org/Graphics/SVG/1.1/DTD/svg11.dtd"><svg class="icon" width="200px" height="200.00px" viewBox="0 0 1024 1024" version="1.1" xmlns="http://www.w3.org/2000/svg"><path d="M852.537678 966.322357c7.542461 0 14.818718-3.016984 20.142807-8.341075s8.341075-12.600347 8.341075-20.142807V262.033969c0-6.743847-2.395841-13.22149-6.743848-18.368111L725.469393 67.793414c-5.412825-6.388908-13.39896-10.115771-21.740034-10.115771h-532.231543c-7.542461 0-14.818718 3.016984-20.142807 8.341075s-8.341075 12.600347-8.341075 20.142807v851.67695c0 7.542461 3.016984 14.818718 8.341075 20.142807s12.600347 8.341075 20.142807 8.341075h681.039862z" fill="#72A9FE" /><path d="M881.02156 265.228423v-3.194454c0-6.743847-2.395841-13.22149-6.743848-18.368111L725.469393 67.793414c-5.412825-6.388908-13.39896-10.115771-21.740034-10.115771h-1.331023v207.55078h178.623224z" opacity=".15" /><path d="M591.657262 342.693934c0-21.29636 17.214558-38.510919 38.510918-38.510918s38.510919 17.214558 38.510919 38.510918-17.214558 38.510919-38.510919 38.510919-38.510919-17.214558-38.510918-38.510919z m-301.077297 310.039515h442.964298l-120.679376-159.811439c-5.057886-6.655113-12.866551-10.559445-21.207625-10.559445-8.341075 0-16.238475 3.904333-21.207626 10.559445l-47.029463 62.38059-67.34974-128.931716c-4.614211-8.784749-13.665165-14.286308-23.603466-14.286309-9.938302 0-18.989255 5.50156-23.603466 14.286309l-118.283536 226.362565z" fill="#FFFFFF" /><path d="M393.805199 885.644645l3.726863-15.528596c2.129636 0.709879 4.259272 1.153553 6.566378 1.153552 6.832582 0 8.873484-4.525477 8.873484-13.576429v-82.434662H433.913345v81.813518c0 17.125823-6.566378 30.613518-26.620451 30.613518-6.211438 0.088735-10.293241-0.887348-13.487695-2.040901z m17.125824-134.610746c0-6.832582 5.235355-11.358059 12.511611-11.358058 7.098787 0 12.511612 4.525477 12.511612 11.358058 0 6.566378-5.412825 11.446794-12.511612 11.446794-7.276256 0-12.511612-4.880416-12.511611-11.446794zM456.274523 775.25851h17.125824l1.419757 8.252339h0.532409c6.655113-5.679029 14.996187-10.293241 23.514731-10.293241 19.699133 0 31.323397 16.14974 31.323397 40.640555 0 27.330329-16.415945 43.213865-33.896707 43.213865-7.010052 0-13.665165-3.105719-19.787868-8.696014l0.532409 13.132755v24.224611h-20.763952v-110.47487z m52.442288 38.954592c0-15.262392-4.880416-23.692201-15.794801-23.692201-5.412825 0-10.293241 2.75078-15.7948 8.25234v35.05026c5.14662 4.436742 10.293241 5.945234 14.552513 5.945234 9.583362 0.088735 17.037088-8.163605 17.037088-25.555633zM542.790988 869.2287c0-6.655113 4.170537-12.422877 11.446794-16.504679v-0.709879c-4.170537-2.75078-7.276256-6.832582-7.276257-13.39896 0-5.945234 4.170537-11.535529 8.873484-14.996187v-0.532409c-5.412825-3.993068-10.559445-11.535529-10.559446-20.852687 0-18.811785 15.262392-28.927556 32.210745-28.927556 4.436742 0 8.696014 0.887348 11.979203 1.952167h28.750087v15.351126h-13.665165c2.129636 2.75078 3.726863 7.098787 3.726863 12.156672 0 17.924437-13.665165 27.064125-30.790988 27.064125-3.105719 0-6.832582-0.709879-10.29324-1.863431-2.307106 1.863432-3.460659 3.726863-3.460659 6.832582 0 4.259272 3.105719 6.566378 12.511612 6.566378h13.57643c19.255459 0 29.637435 5.945234 29.637435 19.965338 0 16.14974-16.682149 28.395147-43.3026 28.395147-18.811785 0-33.364298-6.388908-33.364298-20.497747z m56.70156-4.259272c0-5.679029-4.702946-7.098787-13.221491-7.098787h-9.672097c-4.880416 0-8.25234-0.443674-11.091854-1.153553-3.549393 2.839515-5.235355 5.945234-5.235356 9.228423 0 6.655113 7.453726 10.559445 19.07799 10.559446 11.890468 0 20.142808-5.235355 20.142808-11.535529z m-9.672097-62.735529c0-9.405893-5.235355-14.641248-12.422877-14.641247s-12.511612 5.235355-12.511612 14.641247 5.590295 14.641248 12.511612 14.641248 12.422877-5.235355 12.422877-14.641248z" fill="#FFFFFF" /></svg>