<?xml version="1.0" standalone="no"?><!DOCTYPE svg PUBLIC "-//W3C//DTD SVG 1.1//EN" "http://www.w3.org/Graphics/SVG/1.1/DTD/svg11.dtd"><svg class="icon" width="200px" height="200.00px" viewBox="0 0 1024 1024" version="1.1" xmlns="http://www.w3.org/2000/svg"><path d="M852.537678 966.322357c7.542461 0 14.818718-3.016984 20.142807-8.341075s8.341075-12.600347 8.341075-20.142807V262.033969c0-6.743847-2.395841-13.22149-6.743848-18.368111L725.469393 67.793414c-5.412825-6.388908-13.39896-10.115771-21.740034-10.115771h-532.231543c-7.542461 0-14.818718 3.016984-20.142807 8.341075s-8.341075 12.600347-8.341075 20.142807v851.67695c0 7.542461 3.016984 14.818718 8.341075 20.142807s12.600347 8.341075 20.142807 8.341075h681.039862z" fill="#FFA566" /><path d="M881.02156 265.228423v-3.194454c0-6.743847-2.395841-13.22149-6.743848-18.368111L725.469393 67.793414c-5.412825-6.388908-13.39896-10.115771-21.740034-10.115771h-1.331023v207.55078h178.623224z" opacity=".15" /><path d="M362.668146 775.25851h17.125823l1.419757 10.64818h0.532409c6.655113-7.010052 14.108839-12.689081 24.490815-12.689082 11.446794 0 18.101906 5.14662 21.917504 13.931369 7.276256-7.719931 14.996187-13.931369 25.378163-13.931369 16.948354 0 24.757019 11.979203 24.757019 32.033276v49.868977h-20.941421v-47.206932c0-12.245407-3.549393-16.682149-11.091855-16.682149-4.525477 0-9.672097 3.016984-15.351126 8.962218v54.926863h-20.941421v-47.206932c0-12.245407-3.549393-16.682149-11.091855-16.682149-4.525477 0-9.672097 3.016984-15.351126 8.962218v54.926863h-20.852686v-79.861351zM495.504194 815.366655c0-26.088042 16.238475-42.060312 33.453033-42.060312 8.962218 0 14.552513 3.460659 20.231542 8.696014l-0.887348-12.511612v-28.128943h20.941421v113.758059h-16.948353l-1.685962-8.252339h-0.443674c-5.856499 5.679029-13.842634 10.293241-22.094974 10.293241-19.787868-0.088735-32.565685-15.706066-32.565685-41.794108z m52.885962 16.238475v-35.05026c-4.880416-4.436742-9.849567-5.945234-14.818718-5.945234-8.962218 0-16.504679 8.518544-16.504679 24.490815 0 16.504679 5.945234 24.757019 16.504679 24.757019 5.50156 0 10.204506-2.307106 14.818718-8.25234zM610.504541 846.690052h-0.443674l-1.863432 8.429809h-16.32721v-113.758059h20.852687v28.661352l-0.443675 12.866551c6.300173-5.679029 14.286308-9.583362 22.094974-9.583362 19.699133 0 31.500867 16.14974 31.500867 40.463085 0 27.507799-16.415945 43.3026-33.896707 43.3026-7.187522 0-14.907452-3.638128-21.47383-10.381976z m33.807972-32.47695c0-15.262392-4.880416-23.692201-15.794801-23.692201-5.412825 0-10.293241 2.75078-15.7948 8.25234v35.05026c4.969151 4.436742 10.293241 5.945234 14.552513 5.945234 9.583362 0.088735 17.037088-8.163605 17.037088-25.555633z" fill="#FFFFFF" /><path d="M511.991127 286.808735c-97.164645 0-175.872444 32.388215-175.872444 72.318891s78.707799 72.318891 175.872444 72.31889 175.872444-32.388215 175.872443-72.31889-78.707799-72.318891-175.872443-72.318891z" fill="#FFFFFF" opacity=".6" /><path d="M511.991127 401.897816c-97.164645 0-175.872444 32.47695-175.872444 72.407626s78.707799 72.318891 175.872444 72.318891 175.872444-32.388215 175.872443-72.318891-78.707799-72.407626-175.872443-72.407626z" fill="#FFFFFF" opacity=".8" /><path d="M511.991127 517.075633c-97.164645 0-175.872444 32.388215-175.872444 72.31889s78.707799 72.318891 175.872444 72.318891 175.872444-32.388215 175.872443-72.318891-78.707799-72.318891-175.872443-72.31889z" fill="#FFFFFF" /></svg>