<?xml version="1.0" standalone="no"?><!DOCTYPE svg PUBLIC "-//W3C//DTD SVG 1.1//EN" "http://www.w3.org/Graphics/SVG/1.1/DTD/svg11.dtd"><svg class="icon" width="200px" height="200.00px" viewBox="0 0 1024 1024" version="1.1" xmlns="http://www.w3.org/2000/svg"><path d="M852.537678 966.322357c7.542461 0 14.818718-3.016984 20.142807-8.341075s8.341075-12.600347 8.341075-20.142807V262.033969c0-6.743847-2.395841-13.22149-6.743848-18.368111L725.469393 67.793414c-5.412825-6.388908-13.39896-10.115771-21.740034-10.115771h-532.231543c-7.542461 0-14.818718 3.016984-20.142807 8.341075s-8.341075 12.600347-8.341075 20.142807v851.67695c0 7.542461 3.016984 14.818718 8.341075 20.142807s12.600347 8.341075 20.142807 8.341075h681.039862z" fill="#FFC466" /><path d="M881.02156 265.228423v-3.194454c0-6.743847-2.395841-13.22149-6.743848-18.368111L725.469393 67.793414c-5.412825-6.388908-13.39896-10.115771-21.740034-10.115771h-1.331023v207.55078h178.623224z" opacity=".15" /><path d="M324.565407 474.287695c0-103.553553 83.943154-187.496707 187.496707-187.496707 103.553553 0 187.496707 83.943154 187.496707 187.496707 0 103.553553-83.943154 187.496707-187.496707 187.496707-103.642288 0-187.496707-83.943154-187.496707-187.496707z m220.506066-79.062738c-82.523397-55.370537-104.795841-50.046447-104.79584 76.933102s22.272444 139.579896 104.884575 81.192374 82.612132-72.318891 82.612132-81.192374c-0.088735-8.873484-0.088735-21.562565-82.700867-76.933102z" fill="#FFFFFF" /><path d="M370.201733 775.25851h17.125823l1.419758 10.64818h0.532409c6.655113-7.010052 14.108839-12.689081 24.490814-12.689082 11.446794 0 18.101906 5.14662 21.917505 13.931369 7.276256-7.719931 14.996187-13.931369 25.378163-13.931369 16.948354 0 24.757019 11.979203 24.757019 32.033276v49.868977h-20.941422v-47.206932c0-12.245407-3.549393-16.682149-11.091854-16.682149-4.525477 0-9.672097 3.016984-15.351127 8.962218v54.926863h-20.941421v-47.206932c0-12.245407-3.549393-16.682149-11.091854-16.682149-4.525477 0-9.672097 3.016984-15.351127 8.962218v54.926863h-20.852686v-79.861351zM507.563258 741.361802h20.409012v68.414558h0.532409l27.685269-34.51785h22.804853l-27.685269 32.654419 30.258579 47.206932h-22.627383l-19.344194-33.098093-11.535529 13.132755v19.965338h-20.409012v-113.758059zM584.585095 775.25851h21.030156l11.712999 39.753206c1.952166 7.808666 4.259272 16.14974 6.388908 24.22461h0.709878c1.952166-8.163605 4.259272-16.415945 6.388909-24.22461l11.712998-39.753206h20.054073l-26.620451 79.861351h-24.22461l-27.15286-79.861351z" fill="#FFFFFF" /></svg>