<?xml version="1.0" standalone="no"?><!DOCTYPE svg PUBLIC "-//W3C//DTD SVG 1.1//EN" "http://www.w3.org/Graphics/SVG/1.1/DTD/svg11.dtd"><svg class="icon" width="200px" height="200.00px" viewBox="0 0 1024 1024" version="1.1" xmlns="http://www.w3.org/2000/svg"><path d="M852.537678 966.322357c7.542461 0 14.818718-3.016984 20.142807-8.341075s8.341075-12.600347 8.341075-20.142807V262.033969c0-6.743847-2.395841-13.22149-6.743848-18.368111L725.469393 67.793414c-5.412825-6.388908-13.39896-10.115771-21.740034-10.115771h-532.231543c-7.542461 0-14.818718 3.016984-20.142807 8.341075s-8.341075 12.600347-8.341075 20.142807v851.67695c0 7.542461 3.016984 14.818718 8.341075 20.142807s12.600347 8.341075 20.142807 8.341075h681.039862z" fill="#FFC466" /><path d="M881.02156 265.228423v-3.194454c0-6.743847-2.395841-13.22149-6.743848-18.368111L725.469393 67.793414c-5.412825-6.388908-13.39896-10.115771-21.740034-10.115771h-1.331023v207.55078h178.623224z" opacity=".15" /><path d="M324.565407 474.287695c0-103.553553 83.943154-187.496707 187.496707-187.496707 103.553553 0 187.496707 83.943154 187.496707 187.496707 0 103.553553-83.943154 187.496707-187.496707 187.496707-103.642288 0-187.496707-83.943154-187.496707-187.496707z m220.506066-79.062738c-82.523397-55.370537-104.795841-50.046447-104.79584 76.933102s22.272444 139.579896 104.884575 81.192374 82.612132-72.318891 82.612132-81.192374c-0.088735-8.873484-0.088735-21.562565-82.700867-76.933102z" fill="#FFFFFF" /><path d="M368.870711 775.25851H385.996534l1.419757 10.64818h0.532409c6.655113-7.010052 14.108839-12.689081 24.490815-12.689082 11.446794 0 18.101906 5.14662 21.917504 13.931369 7.276256-7.719931 14.996187-13.931369 25.378163-13.931369 16.948354 0 24.757019 11.979203 24.757019 32.033276v49.868977h-20.941421v-47.206932c0-12.245407-3.549393-16.682149-11.091855-16.682149-4.525477 0-9.672097 3.016984-15.351126 8.962218v54.926863H416.166378v-47.206932c0-12.245407-3.549393-16.682149-11.091855-16.682149-4.525477 0-9.672097 3.016984-15.351126 8.962218v54.926863h-20.852686v-79.861351zM501.263085 815.366655c0-26.620451 18.368111-42.060312 38.333449-42.060312s38.333449 15.351127 38.333449 42.060312c0 26.354246-18.368111 41.794107-38.333449 41.794108s-38.333449-15.439861-38.333449-41.794108z m55.281802 0c0-15.084922-6.122704-24.934489-16.948353-24.934489-10.82565 0-16.948354 9.849567-16.948354 24.934489 0 14.996187 6.122704 24.668284 16.948354 24.668284 10.82565 0 16.948354-9.672097 16.948353-24.668284zM585.117504 775.25851h21.118891l11.712998 39.753206c1.952166 7.808666 4.259272 16.14974 6.388909 24.22461h0.709878c1.952166-8.163605 4.259272-16.415945 6.388908-24.22461l11.624264-39.753206h20.054073l-26.620451 79.861351H612.270364l-27.15286-79.861351z" fill="#FFFFFF" /></svg>