<?xml version="1.0" standalone="no"?><!DOCTYPE svg PUBLIC "-//W3C//DTD SVG 1.1//EN" "http://www.w3.org/Graphics/SVG/1.1/DTD/svg11.dtd"><svg class="icon" width="200px" height="200.00px" viewBox="0 0 1024 1024" version="1.1" xmlns="http://www.w3.org/2000/svg"><path d="M852.537678 966.322357c7.542461 0 14.818718-3.016984 20.142807-8.341075s8.341075-12.600347 8.341075-20.142807V262.033969c0-6.743847-2.395841-13.22149-6.743848-18.368111L725.469393 67.793414c-5.412825-6.388908-13.39896-10.115771-21.740034-10.115771h-532.231543c-7.542461 0-14.818718 3.016984-20.142807 8.341075s-8.341075 12.600347-8.341075 20.142807v851.67695c0 7.542461 3.016984 14.818718 8.341075 20.142807s12.600347 8.341075 20.142807 8.341075h681.039862z" fill="#DF3D54" /><path d="M881.02156 265.228423v-3.194454c0-6.743847-2.395841-13.22149-6.743848-18.368111L725.469393 67.793414c-5.412825-6.388908-13.39896-10.115771-21.740034-10.115771h-1.331023v207.55078h178.623224z" opacity=".15" /><path d="M647.915147 323.438475l-82.257192 21.828769v241.891162c0 35.848873-29.016291 64.865165-64.865165 64.865164-35.848873 0-64.865165-29.016291-64.865164-64.865164 0-35.848873 29.016291-64.865165 64.865164-64.865165 18.456846 0 35.05026 7.719931 46.851993 20.054073v-228.935876l100.270364-26.531715v36.558752z" fill="#FFFFFF" /><path d="M366.65234 775.25851h17.125823l1.419757 10.64818h0.532409c6.655113-7.010052 14.108839-12.689081 24.490815-12.689082 11.446794 0 18.101906 5.14662 21.917504 13.931369 7.276256-7.719931 14.996187-13.931369 25.378163-13.931369 16.948354 0 24.757019 11.979203 24.757019 32.033276v49.868977h-20.941421v-47.206932c0-12.245407-3.549393-16.682149-11.091854-16.682149-4.525477 0-9.672097 3.016984-15.351127 8.962218v54.926863h-20.941421v-47.206932c0-12.245407-3.549393-16.682149-11.091854-16.682149-4.525477 0-9.672097 3.016984-15.351127 8.962218v54.926863h-20.852686v-79.861351zM504.013865 775.25851h17.125823l1.419757 8.252339h0.532409c6.655113-5.679029 14.996187-10.293241 23.514732-10.293241 19.699133 0 31.323397 16.14974 31.323397 40.640555 0 27.330329-16.415945 43.213865-33.896707 43.213865-7.010052 0-13.665165-3.105719-19.787869-8.696014l0.532409 13.132755v24.224611h-20.852686v-110.47487z m52.442288 38.954592c0-15.262392-4.880416-23.692201-15.794801-23.692201-5.412825 0-10.293241 2.75078-15.794801 8.25234v35.05026c5.14662 4.436742 10.293241 5.945234 14.552513 5.945234 9.672097 0.088735 17.037088-8.163605 17.037089-25.555633zM588.311958 842.43078l9.849567-13.221491c6.300173 6.122704 13.931369 10.82565 23.514731 10.82565 10.64818 0 17.924437-5.235355 17.924437-14.641247 0-10.381976-6.122704-16.859619-29.105026-16.859619v-15.084922c19.344194 0 25.644367-6.655113 25.644368-16.14974 0-8.25234-5.14662-13.132756-14.108839-13.221491-7.542461 0.088735-13.665165 3.638128-19.965338 9.405893l-10.64818-12.866551c9.139688-7.986135 19.255459-12.955286 31.678336-12.955286 20.409012 0 34.251646 9.938302 34.251646 28.040208 0 11.446794-6.388908 19.699133-17.658232 24.04714v0.709879c11.979203 3.283189 21.118891 12.156672 21.118891 25.910572 0 19.344194-16.948354 30.613518-37.091161 30.613518-16.770884 0.088735-28.040208-6.122704-35.4052-14.552513z" fill="#FFFFFF" /></svg>