<?xml version="1.0" standalone="no"?><!DOCTYPE svg PUBLIC "-//W3C//DTD SVG 1.1//EN" "http://www.w3.org/Graphics/SVG/1.1/DTD/svg11.dtd"><svg class="icon" width="200px" height="200.00px" viewBox="0 0 1024 1024" version="1.1" xmlns="http://www.w3.org/2000/svg"><path d="M852.537678 966.322357c7.542461 0 14.818718-3.016984 20.142807-8.341075s8.341075-12.600347 8.341075-20.142807V262.033969c0-6.743847-2.395841-13.22149-6.743848-18.368111L725.469393 67.793414c-5.412825-6.388908-13.39896-10.115771-21.740034-10.115771h-532.231543c-7.542461 0-14.818718 3.016984-20.142807 8.341075s-8.341075 12.600347-8.341075 20.142807v851.67695c0 7.542461 3.016984 14.818718 8.341075 20.142807s12.600347 8.341075 20.142807 8.341075h681.039862z" fill="#FFC466" /><path d="M881.02156 265.228423v-3.194454c0-6.743847-2.395841-13.22149-6.743848-18.368111L725.469393 67.793414c-5.412825-6.388908-13.39896-10.115771-21.740034-10.115771h-1.331023v207.55078h178.623224z" opacity=".15" /><path d="M324.565407 474.287695c0-103.553553 83.943154-187.496707 187.496707-187.496707 103.553553 0 187.496707 83.943154 187.496707 187.496707 0 103.553553-83.943154 187.496707-187.496707 187.496707-103.642288 0-187.496707-83.943154-187.496707-187.496707z m220.506066-79.062738c-82.523397-55.370537-104.795841-50.046447-104.79584 76.933102s22.272444 139.579896 104.884575 81.192374 82.612132-72.318891 82.612132-81.192374c-0.088735-8.873484-0.088735-21.562565-82.700867-76.933102z" fill="#FFFFFF" /><path d="M324.503293 775.25851H341.629116l1.419757 10.64818h0.532409c6.655113-7.010052 14.108839-12.689081 24.490815-12.689082 11.446794 0 18.101906 5.14662 21.917504 13.931369 7.276256-7.719931 14.996187-13.931369 25.378163-13.931369 16.948354 0 24.757019 11.979203 24.757019 32.033276v49.868977h-20.941421v-47.206932c0-12.245407-3.549393-16.682149-11.091854-16.682149-4.525477 0-9.672097 3.016984-15.351127 8.962218v54.926863H371.79896v-47.206932c0-12.245407-3.549393-16.682149-11.091854-16.682149-4.525477 0-9.672097 3.016984-15.351127 8.962218v54.926863h-20.852686v-79.861351zM461.864818 775.25851h17.125823l1.419758 8.252339h0.532409c6.655113-5.679029 14.996187-10.293241 23.514731-10.293241 19.699133 0 31.323397 16.14974 31.323397 40.640555 0 27.330329-16.415945 43.213865-33.896707 43.213865-7.010052 0-13.665165-3.105719-19.787869-8.696014l0.532409 13.132755v24.224611h-20.852686v-110.47487z m52.442288 38.954592c0-15.262392-4.880416-23.692201-15.794801-23.692201-5.412825 0-10.293241 2.75078-15.794801 8.25234v35.05026c5.14662 4.436742 10.293241 5.945234 14.552513 5.945234 9.672097 0.088735 17.037088-8.163605 17.037089-25.555633zM548.736222 815.366655c0-25.910572 18.101906-42.060312 37.179896-42.060312 21.917504 0 33.364298 16.14974 33.364298 38.155979 0 3.815598-0.443674 7.719931-0.976083 9.583363h-49.159099c1.685962 13.132756 10.293241 19.965338 22.094974 19.965338 6.566378 0 12.245407-1.952166 17.924437-5.590295l7.098787 12.866551c-7.808666 5.412825-17.924437 8.873484-27.951474 8.873484-22.272444-0.088735-39.575737-15.617331-39.575736-41.794108z m52.531022-8.163605c0-10.82565-4.880416-17.658232-15.084922-17.658232-8.429809 0-15.794801 5.945234-17.392027 17.658232h32.476949zM629.484922 869.2287c0-6.655113 4.170537-12.422877 11.446794-16.504679v-0.709879c-4.170537-2.75078-7.276256-6.832582-7.276257-13.39896 0-5.945234 4.170537-11.535529 8.873484-14.996187v-0.532409c-5.412825-3.993068-10.559445-11.535529-10.559446-20.852687 0-18.811785 15.262392-28.927556 32.210746-28.927556 4.436742 0 8.696014 0.887348 11.979202 1.952167h28.750087v15.351126H691.244367c2.129636 2.75078 3.726863 7.098787 3.726864 12.156672 0 17.924437-13.665165 27.064125-30.790988 27.064125-3.105719 0-6.832582-0.709879-10.293241-1.863431-2.307106 1.863432-3.460659 3.726863-3.460659 6.832582 0 4.259272 3.105719 6.566378 12.511612 6.566378h13.57643c19.255459 0 29.637435 5.945234 29.637435 19.965338 0 16.14974-16.682149 28.395147-43.3026 28.395147-18.811785 0-33.364298-6.388908-33.364298-20.497747z m56.790295-4.259272c0-5.679029-4.702946-7.098787-13.221491-7.098787h-9.672097c-4.880416 0-8.25234-0.443674-11.091854-1.153553-3.549393 2.839515-5.235355 5.945234-5.235356 9.228423 0 6.655113 7.453726 10.559445 19.07799 10.559446 11.801733 0 20.142808-5.235355 20.142808-11.535529z m-9.760832-62.735529c0-9.405893-5.235355-14.641248-12.422877-14.641247-7.098787 0-12.511612 5.235355-12.511612 14.641247s5.590295 14.641248 12.511612 14.641248c7.010052 0.088735 12.422877-5.235355 12.422877-14.641248z" fill="#FFFFFF" /></svg>