<?xml version="1.0" standalone="no"?><!DOCTYPE svg PUBLIC "-//W3C//DTD SVG 1.1//EN" "http://www.w3.org/Graphics/SVG/1.1/DTD/svg11.dtd"><svg class="icon" width="200px" height="200.00px" viewBox="0 0 1024 1024" version="1.1" xmlns="http://www.w3.org/2000/svg"><path d="M852.537678 966.322357c7.542461 0 14.818718-3.016984 20.142807-8.341075s8.341075-12.600347 8.341075-20.142807V262.033969c0-6.743847-2.395841-13.22149-6.743848-18.368111L725.469393 67.793414c-5.412825-6.388908-13.39896-10.115771-21.740034-10.115771h-532.231543c-7.542461 0-14.818718 3.016984-20.142807 8.341075s-8.341075 12.600347-8.341075 20.142807v851.67695c0 7.542461 3.016984 14.818718 8.341075 20.142807s12.600347 8.341075 20.142807 8.341075h681.039862z" fill="#CA223D" /><path d="M881.02156 265.228423v-3.194454c0-6.743847-2.395841-13.22149-6.743848-18.368111L725.469393 67.793414c-5.412825-6.388908-13.39896-10.115771-21.740034-10.115771h-1.331023v207.55078h178.623224z" opacity=".15" /><path d="M359.083258 657.52513c-10.293241 0-16.14974-4.614211-19.432929-9.494627-10.027036-15.262392 2.040901-40.640555 14.197574-52.442288 6.300173-6.033969 25.023224-21.562565 65.131369-37.889775 8.07487-19.07799 15.97227-40.55182 23.071057-62.469324 11.801733-36.647487 18.989255-74.271057 22.982323-100.447834-8.696014-16.061005-34.162912-65.042634-34.162912-83.676949 0-10.470711 2.307106-18.989255 7.010052-25.200693 4.880416-6.566378 11.979203-10.204506 20.054073-10.204507 9.228423 0 18.456846 4.702946 25.466898 12.955286 7.098787 8.25234 11.00312 19.255459 11.003119 30.702253 0 17.569497-2.307106 44.012478-6.300173 71.254073 17.392028 31.323397 36.292548 59.984749 52.087348 78.885269 15.617331 18.634315 34.340381 35.493934 55.902946 50.223917 37.97851-3.283189 82.878336-4.348007 99.205546 2.218371 20.852686 8.429809 24.40208 22.272444 20.763952 32.476949-6.388908 17.924437-34.87279 27.951473-58.742461 20.586482-9.760832-3.016984-35.493934-12.067938-66.994801-32.47695-26.176776 2.484575-53.240901 6.388908-78.619064 11.358059-27.507799 5.32409-53.063432 12.422877-76.045754 21.030156-19.521664 44.278683-37.357366 70.10052-53.152166 76.755633-9.583362 4.259272-17.303293 5.856499-23.425997 5.856499z m-0.976083-22.272444c1.419757 0.17747 6.033969 0.266205 15.883536-3.904332 5.945234-2.484575 16.948354-15.351127 30.968457-42.947661-21.917504 11.00312-32.388215 20.054073-35.582669 23.159792-7.808666 7.453726-12.067938 19.699133-11.269324 23.692201z m271.794801-95.478683c15.97227 8.07487 28.128943 12.245407 33.985442 14.108839 14.996187 4.614211 29.105026-2.57331 31.145927-6.388908-0.621144-0.798614-2.57331-2.662045-7.986135-4.880416-5.235355-2.129636-24.490815-4.170537-57.145234-2.839515z m-181.728943 6.477643l-0.443674 1.064818c18.72305-6.033969 38.777123-11.091854 59.807279-15.173656 17.480763-3.371924 35.848873-6.300173 54.128249-8.607279l-0.709878-0.532409 2.129636-0.17747c-14.818718-11.979203-28.128943-25.023224-39.841941-39.043328-14.996187-17.835702-29.193761-39.487002-40.37435-57.943847l-0.17747 1.153553-0.532409-0.887349c-4.348007 22.893588-10.559445 49.691508-18.989255 76.045754-4.880416 15.173657-10.204506 30.258579-15.706066 44.456153l0.709879-0.35494z m9.849567-248.368804c-0.887348 0-1.508492 0.17747-2.307106 1.242288-0.798614 1.064818-2.57331 4.259272-2.57331 11.890468 0 4.525477 5.50156 20.586482 17.037088 44.722357 1.419757-14.108839 2.129636-26.709185 2.129636-36.381283 0-13.842634-9.494627-21.47383-14.286308-21.47383z" fill="#FFFFFF" /><path d="M404.808319 775.25851h17.125823l1.419757 8.252339h0.532409c6.655113-5.679029 14.996187-10.293241 23.514732-10.293241 19.699133 0 31.323397 16.14974 31.323397 40.640555 0 27.330329-16.415945 43.213865-33.896707 43.213865-7.010052 0-13.665165-3.105719-19.787869-8.696014l0.532409 13.132755v24.224611h-20.763951v-110.47487z m52.442288 38.954592c0-15.262392-4.880416-23.692201-15.794801-23.692201-5.412825 0-10.293241 2.75078-15.794801 8.25234v35.05026c5.14662 4.436742 10.293241 5.945234 14.552513 5.945234 9.583362 0.088735 17.037088-8.163605 17.037089-25.555633zM492.034662 815.366655c0-26.088042 16.238475-42.060312 33.453033-42.060312 8.962218 0 14.552513 3.460659 20.231542 8.696014l-0.887348-12.511612v-28.128943h20.941421v113.758059h-16.948353l-1.685962-8.252339h-0.443674c-5.856499 5.679029-13.842634 10.293241-22.094974 10.293241-19.787868-0.088735-32.565685-15.706066-32.565685-41.794108z m52.885962 16.238475v-35.05026c-4.880416-4.436742-9.849567-5.945234-14.818718-5.945234-8.962218 0-16.504679 8.518544-16.504679 24.490815 0 16.504679 5.945234 24.757019 16.504679 24.757019 5.50156 0 10.204506-2.307106 14.818718-8.25234zM630.993414 757.600277c-2.75078-0.976083-5.856499-1.685962-8.429809-1.685962-6.300173 0-9.672097 3.726863-9.672097 12.511612v6.832583h14.996187v16.504679h-14.996187v63.356672h-20.941421v-63.267937h-10.648181v-15.528596l10.648181-0.887349v-6.566378c0-16.682149 7.719931-29.459965 27.774003-29.459965 6.122704 0 11.535529 1.419757 15.084922 2.839515l-3.815598 15.351126z" fill="#FFFFFF" /></svg>