<?xml version="1.0" standalone="no"?><!DOCTYPE svg PUBLIC "-//W3C//DTD SVG 1.1//EN" "http://www.w3.org/Graphics/SVG/1.1/DTD/svg11.dtd"><svg class="icon" width="200px" height="200.00px" viewBox="0 0 1024 1024" version="1.1" xmlns="http://www.w3.org/2000/svg"><path d="M852.537678 966.322357c7.542461 0 14.818718-3.016984 20.142807-8.341075s8.341075-12.600347 8.341075-20.142807V262.033969c0-6.743847-2.395841-13.22149-6.743848-18.368111L725.469393 67.793414c-5.412825-6.388908-13.39896-10.115771-21.740034-10.115771h-532.231543c-7.542461 0-14.818718 3.016984-20.142807 8.341075s-8.341075 12.600347-8.341075 20.142807v851.67695c0 7.542461 3.016984 14.818718 8.341075 20.142807s12.600347 8.341075 20.142807 8.341075h681.039862z" fill="#ED6941" /><path d="M881.02156 265.228423v-3.194454c0-6.743847-2.395841-13.22149-6.743848-18.368111L725.469393 67.793414c-5.412825-6.388908-13.39896-10.115771-21.740034-10.115771h-1.331023v207.55078h178.623224z" opacity=".15" /><path d="M406.583016 309.223154h102.04506c80.571231 0 134.167071 26.79792 134.167071 104.97331 0 75.60208-53.684575 110.829809-131.77123 110.82981h-59.097401v141.975736h-45.3435v-357.778856z m98.584402 179.155633c62.912998 0 92.727903-22.982322 92.727903-74.182323 0-51.732409-31.767071-68.325823-94.68007-68.325823h-51.288735v142.508146h53.240902z" fill="#FFFFFF" /><path d="M361.32825 775.25851h17.125823l1.419757 8.252339h0.532409c6.655113-5.679029 14.996187-10.293241 23.514732-10.293241 19.699133 0 31.323397 16.14974 31.323396 40.640555 0 27.330329-16.415945 43.213865-33.896707 43.213865-7.010052 0-13.665165-3.105719-19.787868-8.696014l0.532409 13.132755v24.224611h-20.763951v-110.47487z m52.442287 38.954592c0-15.262392-4.880416-23.692201-15.7948-23.692201-5.412825 0-10.293241 2.75078-15.794801 8.25234v35.05026c5.14662 4.436742 10.293241 5.945234 14.552513 5.945234 9.583362 0.088735 17.037088-8.163605 17.037088-25.555633zM453.080069 775.25851h17.125824l1.419757 8.252339h0.532409c6.655113-5.679029 14.996187-10.293241 23.514731-10.293241 19.699133 0 31.323397 16.14974 31.323397 40.640555 0 27.330329-16.415945 43.213865-33.896707 43.213865-7.010052 0-13.665165-3.105719-19.787868-8.696014l0.532409 13.132755v24.224611h-20.852687v-110.47487z m52.442288 38.954592c0-15.262392-4.880416-23.692201-15.794801-23.692201-5.412825 0-10.293241 2.75078-15.7948 8.25234v35.05026c5.14662 4.436742 10.293241 5.945234 14.552513 5.945234 9.672097 0.088735 17.037088-8.163605 17.037088-25.555633zM543.944541 827.168388v-35.316464h-11.269324v-15.528596l12.245407-0.976084 2.39584-21.385095h17.569498v21.296361h19.699133v16.504679h-19.699133v35.316464c0 9.139688 3.726863 13.39896 10.82565 13.398961 2.57331 0 5.679029-0.887348 7.808665-1.685962l3.460659 15.262391c-4.259272 1.419757-9.849567 3.016984-16.859619 3.016985-18.989255 0-26.176776-11.890468-26.176776-29.90364zM614.57747 813.503224l-23.337262-38.15598h22.538648l7.986135 14.286309c2.307106 4.436742 4.702946 8.962218 7.098787 13.39896h0.532409c1.863432-4.436742 3.993068-8.962218 5.856499-13.39896l6.743848-14.375043h21.6513l-23.425997 40.640554 24.934489 39.220797h-22.538648l-8.873484-14.552513c-2.57331-4.702946-5.14662-9.583362-7.719931-14.108838h-0.709878c-2.307106 4.525477-4.436742 9.228423-6.655113 14.108838l-7.453726 14.552513h-21.562565l24.934489-41.616637z" fill="#FFFFFF" /></svg>