<?xml version="1.0" standalone="no"?><!DOCTYPE svg PUBLIC "-//W3C//DTD SVG 1.1//EN" "http://www.w3.org/Graphics/SVG/1.1/DTD/svg11.dtd"><svg class="icon" width="200px" height="200.00px" viewBox="0 0 1024 1024" version="1.1" xmlns="http://www.w3.org/2000/svg"><path d="M852.537678 966.322357c7.542461 0 14.818718-3.016984 20.142807-8.341075s8.341075-12.600347 8.341075-20.142807V262.033969c0-6.743847-2.395841-13.22149-6.743848-18.368111L725.469393 67.793414c-5.412825-6.388908-13.39896-10.115771-21.740034-10.115771h-532.231543c-7.542461 0-14.818718 3.016984-20.142807 8.341075s-8.341075 12.600347-8.341075 20.142807v851.67695c0 7.542461 3.016984 14.818718 8.341075 20.142807s12.600347 8.341075 20.142807 8.341075h681.039862z" fill="#8C72FE" /><path d="M881.02156 265.228423v-3.194454c0-6.743847-2.395841-13.22149-6.743848-18.368111L725.469393 67.793414c-5.412825-6.388908-13.39896-10.115771-21.740034-10.115771h-1.331023v207.55078h178.623224z" opacity=".15" /><path d="M511.97338 286.790988v93.082842h93.082842V286.790988h-93.082842z m-93.082843 93.082842V472.956672h93.082843V379.87383h-93.082843zM511.97338 566.12825V473.045407h93.082842V566.12825h-93.082842z m-62.912999 101.157712V575.001733h125.914732v92.284229h-125.914732z m77.288042-60.872097h-28.661352v-15.528596h-27.419064V642.440208h83.588215v-51.643674h-27.507799v15.617331z" fill="#FFFFFF" /><path d="M419.005893 775.25851h17.125823l1.419757 14.108838h0.532409c5.856499-10.381976 14.375043-16.14974 22.627383-16.14974 4.436742 0 7.010052 0.709879 9.405893 1.685962l-3.726863 18.101907c-2.75078-0.887348-4.969151-1.242288-8.25234-1.242288-6.300173 0-13.842634 4.170537-18.368111 15.706066v47.650606h-20.763951v-79.861351zM472.690468 833.468562c0-17.125823 13.842634-26.088042 45.87591-29.459966-0.266205-7.808666-3.726863-13.842634-13.57643-13.842634-7.453726 0-14.552513 3.283189-21.917504 7.542461l-7.542461-13.842634c9.405893-5.856499 20.852686-10.559445 33.364298-10.559446 20.231542 0 30.613518 12.156672 30.613518 35.22773v46.585788h-17.125823l-1.597227-8.518544h-0.443674c-7.010052 5.945234-14.996187 10.559445-24.047141 10.559446-14.197574-0.088735-23.603466-10.204506-23.603466-23.692201z m45.964645-0.621144v-16.14974c-19.344194 2.57331-25.910572 7.808666-25.910572 14.996187 0 6.300173 4.436742 8.962218 10.559445 8.962218 5.945234 0.088735 10.293241-2.75078 15.351127-7.808665zM560.981629 775.25851h17.125823l1.419758 14.108838h0.532409c5.856499-10.381976 14.375043-16.14974 22.627383-16.14974 4.436742 0 7.010052 0.709879 9.405892 1.685962l-3.726863 18.101907c-2.75078-0.887348-4.969151-1.242288-8.252339-1.242288-6.300173 0-13.842634 4.170537-18.368111 15.706066v47.650606h-20.852687v-79.861351z" fill="#FFFFFF" /></svg>