<?xml version="1.0" standalone="no"?><!DOCTYPE svg PUBLIC "-//W3C//DTD SVG 1.1//EN" "http://www.w3.org/Graphics/SVG/1.1/DTD/svg11.dtd"><svg class="icon" width="200px" height="200.00px" viewBox="0 0 1024 1024" version="1.1" xmlns="http://www.w3.org/2000/svg"><path d="M852.537678 966.322357c7.542461 0 14.818718-3.016984 20.142807-8.341075s8.341075-12.600347 8.341075-20.142807V262.033969c0-6.743847-2.395841-13.22149-6.743848-18.368111L725.469393 67.793414c-5.412825-6.388908-13.39896-10.115771-21.740034-10.115771h-532.231543c-7.542461 0-14.818718 3.016984-20.142807 8.341075s-8.341075 12.600347-8.341075 20.142807v851.67695c0 7.542461 3.016984 14.818718 8.341075 20.142807s12.600347 8.341075 20.142807 8.341075h681.039862z" fill="#72A9FE" /><path d="M881.02156 265.228423v-3.194454c0-6.743847-2.395841-13.22149-6.743848-18.368111L725.469393 67.793414c-5.412825-6.388908-13.39896-10.115771-21.740034-10.115771h-1.331023v207.55078h178.623224z" opacity=".15" /><path d="M591.657262 342.693934c0-21.29636 17.214558-38.510919 38.510918-38.510918s38.510919 17.214558 38.510919 38.510918-17.214558 38.510919-38.510919 38.510919-38.510919-17.214558-38.510918-38.510919z m-301.077297 310.039515h442.964298l-120.679376-159.811439c-5.057886-6.655113-12.866551-10.559445-21.207625-10.559445-8.341075 0-16.238475 3.904333-21.207626 10.559445l-47.029463 62.38059-67.34974-128.931716c-4.614211-8.784749-13.665165-14.286308-23.603466-14.286309-9.938302 0-18.989255 5.50156-23.603466 14.286309l-118.283536 226.362565z" fill="#FFFFFF" /><path d="M388.392374 775.25851H405.518198l1.419757 14.108838h0.532409c5.856499-10.381976 14.375043-16.14974 22.627383-16.14974 4.436742 0 7.010052 0.709879 9.405893 1.685962l-3.726864 18.101907c-2.75078-0.887348-4.969151-1.242288-8.252339-1.242288-6.300173 0-13.842634 4.170537-18.368111 15.706066v47.650606h-20.763952v-79.861351zM442.07695 833.468562c0-17.125823 13.842634-26.088042 45.87591-29.459966-0.266205-7.808666-3.726863-13.842634-13.57643-13.842634-7.453726 0-14.552513 3.283189-21.917505 7.542461l-7.542461-13.842634c9.405893-5.856499 20.852686-10.559445 33.364299-10.559446 20.231542 0 30.613518 12.156672 30.613518 35.22773v46.585788h-17.125823l-1.597227-8.518544h-0.443675c-7.010052 5.945234-14.996187 10.559445-24.04714 10.559446-14.197574-0.088735-23.603466-10.204506-23.603466-23.692201z m45.964644-0.621144v-16.14974c-19.344194 2.57331-25.910572 7.808666-25.910571 14.996187 0 6.300173 4.436742 8.962218 10.559445 8.962218 5.945234 0.088735 10.293241-2.75078 15.351126-7.808665zM522.914385 775.25851h20.941421l8.696014 39.487001c1.597227 7.719931 2.57331 15.351127 3.993067 23.248527h0.532409c1.597227-7.808666 3.016984-15.706066 4.969151-23.248527l9.672097-39.487001h18.634316l9.938301 39.487001c1.863432 7.719931 3.283189 15.351127 4.969151 23.248527h0.709879c1.419757-7.808666 2.395841-15.528596 3.993067-23.248527l8.696014-39.487001H638.003466l-19.699133 79.861351H593.636049l-8.42981-34.784055c-1.685962-7.542461-3.016984-14.818718-4.525476-23.248527h-0.709879c-1.597227 8.429809-2.75078 15.794801-4.436742 23.248527l-8.163605 34.784055h-23.958405l-20.497747-79.861351z" fill="#FFFFFF" /></svg>