<?xml version="1.0" standalone="no"?><!DOCTYPE svg PUBLIC "-//W3C//DTD SVG 1.1//EN" "http://www.w3.org/Graphics/SVG/1.1/DTD/svg11.dtd"><svg class="icon" width="200px" height="200.00px" viewBox="0 0 1024 1024" version="1.1" xmlns="http://www.w3.org/2000/svg"><path d="M852.537678 966.322357c7.542461 0 14.818718-3.016984 20.142807-8.341075s8.341075-12.600347 8.341075-20.142807V262.033969c0-6.743847-2.395841-13.22149-6.743848-18.368111L725.469393 67.793414c-5.412825-6.388908-13.39896-10.115771-21.740034-10.115771h-532.231543c-7.542461 0-14.818718 3.016984-20.142807 8.341075s-8.341075 12.600347-8.341075 20.142807v851.67695c0 7.542461 3.016984 14.818718 8.341075 20.142807s12.600347 8.341075 20.142807 8.341075h681.039862z" fill="#FFC466" /><path d="M881.02156 265.228423v-3.194454c0-6.743847-2.395841-13.22149-6.743848-18.368111L725.469393 67.793414c-5.412825-6.388908-13.39896-10.115771-21.740034-10.115771h-1.331023v207.55078h178.623224z" opacity=".15" /><path d="M324.565407 474.287695c0-103.553553 83.943154-187.496707 187.496707-187.496707 103.553553 0 187.496707 83.943154 187.496707 187.496707 0 103.553553-83.943154 187.496707-187.496707 187.496707-103.642288 0-187.496707-83.943154-187.496707-187.496707z m220.506066-79.062738c-82.523397-55.370537-104.795841-50.046447-104.79584 76.933102s22.272444 139.579896 104.884575 81.192374 82.612132-72.318891 82.612132-81.192374c-0.088735-8.873484-0.088735-21.562565-82.700867-76.933102z" fill="#FFFFFF" /><path d="M423.442634 775.25851h17.125824l1.419757 14.108838h0.532409c5.856499-10.381976 14.375043-16.14974 22.627383-16.14974 4.436742 0 7.010052 0.709879 9.405892 1.685962l-3.726863 18.101907c-2.75078-0.887348-4.969151-1.242288-8.252339-1.242288-6.300173 0-13.842634 4.170537-18.368111 15.706066v47.650606h-20.763952v-79.861351zM485.557019 775.25851h17.125823l1.419758 10.64818h0.532409c6.655113-7.010052 14.108839-12.689081 24.490814-12.689082 11.446794 0 18.101906 5.14662 21.917505 13.931369 7.276256-7.719931 14.996187-13.931369 25.378162-13.931369 16.948354 0 24.757019 11.979203 24.75702 32.033276v49.868977h-20.941422v-47.206932c0-12.245407-3.549393-16.682149-11.091854-16.682149-4.525477 0-9.672097 3.016984-15.351127 8.962218v54.926863h-20.941421v-47.206932c0-12.245407-3.549393-16.682149-11.091854-16.682149-4.525477 0-9.672097 3.016984-15.351127 8.962218v54.926863h-20.852686v-79.861351z" fill="#FFFFFF" /></svg>