<?xml version="1.0" standalone="no"?><!DOCTYPE svg PUBLIC "-//W3C//DTD SVG 1.1//EN" "http://www.w3.org/Graphics/SVG/1.1/DTD/svg11.dtd"><svg class="icon" width="200px" height="200.00px" viewBox="0 0 1024 1024" version="1.1" xmlns="http://www.w3.org/2000/svg"><path d="M852.537678 966.322357c7.542461 0 14.818718-3.016984 20.142807-8.341075s8.341075-12.600347 8.341075-20.142807V262.033969c0-6.743847-2.395841-13.22149-6.743848-18.368111L725.469393 67.793414c-5.412825-6.388908-13.39896-10.115771-21.740034-10.115771h-532.231543c-7.542461 0-14.818718 3.016984-20.142807 8.341075s-8.341075 12.600347-8.341075 20.142807v851.67695c0 7.542461 3.016984 14.818718 8.341075 20.142807s12.600347 8.341075 20.142807 8.341075h681.039862z" fill="#FFC466" /><path d="M881.02156 265.228423v-3.194454c0-6.743847-2.395841-13.22149-6.743848-18.368111L725.469393 67.793414c-5.412825-6.388908-13.39896-10.115771-21.740034-10.115771h-1.331023v207.55078h178.623224z" opacity=".15" /><path d="M324.565407 474.287695c0-103.553553 83.943154-187.496707 187.496707-187.496707 103.553553 0 187.496707 83.943154 187.496707 187.496707 0 103.553553-83.943154 187.496707-187.496707 187.496707-103.642288 0-187.496707-83.943154-187.496707-187.496707z m220.506066-79.062738c-82.523397-55.370537-104.795841-50.046447-104.79584 76.933102s22.272444 139.579896 104.884575 81.192374 82.612132-72.318891 82.612132-81.192374c-0.088735-8.873484-0.088735-21.562565-82.700867-76.933102z" fill="#FFFFFF" /><path d="M336.482496 775.25851h17.125823l1.419757 14.108838h0.532409c5.856499-10.381976 14.375043-16.14974 22.627383-16.14974 4.436742 0 7.010052 0.709879 9.405893 1.685962l-3.726863 18.101907c-2.75078-0.887348-4.969151-1.242288-8.25234-1.242288-6.300173 0-13.842634 4.170537-18.368111 15.706066v47.650606h-20.763951v-79.861351zM398.59688 775.25851h17.125824l1.419757 10.64818h0.532409c6.655113-7.010052 14.108839-12.689081 24.490815-12.689082 11.446794 0 18.101906 5.14662 21.917504 13.931369 7.276256-7.719931 14.996187-13.931369 25.378163-13.931369 16.948354 0 24.757019 11.979203 24.757019 32.033276v49.868977h-20.941421v-47.206932c0-12.245407-3.549393-16.682149-11.091855-16.682149-4.525477 0-9.672097 3.016984-15.351126 8.962218v54.926863h-20.941421v-47.206932c0-12.245407-3.549393-16.682149-11.091855-16.682149-4.525477 0-9.672097 3.016984-15.351126 8.962218v54.926863h-20.852687v-79.861351zM526.729983 775.25851h21.11889l11.712999 39.753206c1.952166 7.808666 4.259272 16.14974 6.388908 24.22461h0.709879c1.952166-8.163605 4.259272-16.415945 6.388908-24.22461l11.712998-39.753206h20.054073l-26.620451 79.861351h-24.22461l-27.241594-79.861351zM636.761179 846.690052h-0.443675l-1.863431 8.429809h-16.415945v-113.758059H638.890815v28.661352l-0.443675 12.866551c6.300173-5.679029 14.286308-9.583362 22.094974-9.583362 19.699133 0 31.500867 16.14974 31.500867 40.463085 0 27.507799-16.415945 43.3026-33.896707 43.3026-7.098787 0-14.818718-3.638128-21.385095-10.381976z m33.807972-32.47695c0-15.262392-4.880416-23.692201-15.794801-23.692201-5.412825 0-10.293241 2.75078-15.794801 8.25234v35.05026c4.969151 4.436742 10.293241 5.945234 14.552513 5.945234 9.583362 0.088735 17.037088-8.163605 17.037089-25.555633z" fill="#FFFFFF" /></svg>