<?xml version="1.0" standalone="no"?><!DOCTYPE svg PUBLIC "-//W3C//DTD SVG 1.1//EN" "http://www.w3.org/Graphics/SVG/1.1/DTD/svg11.dtd"><svg class="icon" width="200px" height="200.00px" viewBox="0 0 1024 1024" version="1.1" xmlns="http://www.w3.org/2000/svg"><path d="M852.537678 966.322357c7.542461 0 14.818718-3.016984 20.142807-8.341075s8.341075-12.600347 8.341075-20.142807V262.033969c0-6.743847-2.395841-13.22149-6.743848-18.368111L725.469393 67.793414c-5.412825-6.388908-13.39896-10.115771-21.740034-10.115771h-532.231543c-7.542461 0-14.818718 3.016984-20.142807 8.341075s-8.341075 12.600347-8.341075 20.142807v851.67695c0 7.542461 3.016984 14.818718 8.341075 20.142807s12.600347 8.341075 20.142807 8.341075h681.039862z" fill="#3E8AF0" /><path d="M881.02156 265.228423v-3.194454c0-6.743847-2.395841-13.22149-6.743848-18.368111L725.469393 67.793414c-5.412825-6.388908-13.39896-10.115771-21.740034-10.115771h-1.331023v207.55078h178.623224z" opacity=".15" /><path d="M309.95078 309.223154h46.851993l37.62357 194.772964c6.832582 38.510919 14.197574 77.110572 21.030156 115.710225h1.952167c8.25234-38.599653 17.037088-77.110572 25.821837-115.710225l49.336568-194.772964h40.995494l50.312652 194.772964c8.784749 38.067244 17.037088 76.666898 25.378163 115.710225h2.484575c6.832582-39.043328 13.665165-77.642981 20.497747-115.710225l37.62357-194.772964h43.480069L638.890815 667.00201h-54.12825l-54.216984-215.714384c-6.388908-28.306412-11.712998-54.12825-17.569498-81.547314h-1.952166c-5.856499 27.330329-12.245407 53.240901-18.101907 81.547314l-53.240901 215.714384h-53.59584l-76.134489-357.778856z" fill="#FFFFFF" /><path d="M435.421837 775.25851H452.54766l1.419758 14.108838h0.532409c5.856499-10.381976 14.375043-16.14974 22.627383-16.14974 4.436742 0 7.010052 0.709879 9.405892 1.685962l-3.726863 18.101907c-2.75078-0.887348-4.969151-1.242288-8.25234-1.242288-6.300173 0-13.842634 4.170537-18.36811 15.706066v47.650606h-20.763952v-79.861351zM500.553206 827.168388v-35.316464h-11.269324v-15.528596l12.245407-1.064818 2.395841-21.296361h17.569497v21.296361h19.699134v16.504679h-19.699134v35.316464c0 9.139688 3.726863 13.39896 10.82565 13.398961 2.57331 0 5.679029-0.887348 7.808666-1.685962l3.460658 15.262391c-4.259272 1.419757-9.849567 3.016984-16.859618 3.016985-18.90052 0-26.176776-11.890468-26.176777-29.90364zM600.024957 757.600277c-2.75078-0.976083-5.856499-1.685962-8.42981-1.685962-6.300173 0-9.672097 3.726863-9.672097 12.511612v6.832583h14.996187v16.504679h-14.996187v63.356672h-20.941421v-63.267937h-10.64818v-15.528596l10.64818-0.887349v-6.566378c0-16.682149 7.719931-29.459965 27.774004-29.459965 6.122704 0 11.535529 1.419757 15.084922 2.839515l-3.815598 15.351126z" fill="#FFFFFF" /></svg>