<?xml version="1.0" standalone="no"?><!DOCTYPE svg PUBLIC "-//W3C//DTD SVG 1.1//EN" "http://www.w3.org/Graphics/SVG/1.1/DTD/svg11.dtd"><svg class="icon" width="200px" height="200.00px" viewBox="0 0 1024 1024" version="1.1" xmlns="http://www.w3.org/2000/svg"><path d="M852.537678 966.322357c7.542461 0 14.818718-3.016984 20.142807-8.341075s8.341075-12.600347 8.341075-20.142807V262.033969c0-6.743847-2.395841-13.22149-6.743848-18.368111L725.469393 67.793414c-5.412825-6.388908-13.39896-10.115771-21.740034-10.115771h-532.231543c-7.542461 0-14.818718 3.016984-20.142807 8.341075s-8.341075 12.600347-8.341075 20.142807v851.67695c0 7.542461 3.016984 14.818718 8.341075 20.142807s12.600347 8.341075 20.142807 8.341075h681.039862z" fill="#72A9FE" /><path d="M881.02156 265.228423v-3.194454c0-6.743847-2.395841-13.22149-6.743848-18.368111L725.469393 67.793414c-5.412825-6.388908-13.39896-10.115771-21.740034-10.115771h-1.331023v207.55078h178.623224z" opacity=".15" /><path d="M591.657262 342.693934c0-21.29636 17.214558-38.510919 38.510918-38.510918s38.510919 17.214558 38.510919 38.510918-17.214558 38.510919-38.510919 38.510919-38.510919-17.214558-38.510918-38.510919z m-301.077297 310.039515h442.964298l-120.679376-159.811439c-5.057886-6.655113-12.866551-10.559445-21.207625-10.559445-8.341075 0-16.238475 3.904333-21.207626 10.559445l-47.029463 62.38059-67.34974-128.931716c-4.614211-8.784749-13.665165-14.286308-23.603466-14.286309-9.938302 0-18.989255 5.50156-23.603466 14.286309l-118.283536 226.362565z" fill="#FFFFFF" /><path d="M421.579203 827.168388v-35.316464h-11.269324v-15.528596l12.245407-1.064818 2.395841-21.296361h17.569497v21.296361h19.699133v16.504679h-19.699133v35.316464c0 9.139688 3.726863 13.39896 10.82565 13.398961 2.57331 0 5.679029-0.887348 7.808665-1.685962l3.460659 15.262391c-4.259272 1.419757-9.849567 3.016984-16.859619 3.016985-18.90052 0-26.176776-11.890468-26.176776-29.90364zM476.417331 751.033899c0-6.832582 5.235355-11.358059 12.511612-11.358058 7.098787 0 12.422877 4.525477 12.422877 11.358058 0 6.566378-5.235355 11.446794-12.422877 11.446794-7.276256 0-12.511612-4.880416-12.511612-11.446794z m2.040901 24.224611h20.852687v79.861351h-20.852687v-79.861351zM614.133795 757.600277c-2.839515-0.976083-5.856499-1.685962-8.518544-1.685962-6.300173 0-9.672097 3.726863-9.672097 12.511612v6.832583h15.084922v16.504679h-15.084922v63.356672h-20.852686v-63.267937h-28.750087v63.267937H525.310225v-63.267937h-10.64818v-15.528596l10.64818-0.887349v-5.590294c0-16.415945 8.429809-28.927556 28.661352-28.927557 6.388908 0 12.245407 1.419757 16.14974 3.016985l-3.815598 15.528596c-2.839515-1.242288-5.590295-1.952166-9.672097-1.952167-6.122704 0-10.293241 4.170537-10.293241 12.422877v5.324091h28.750087v-6.388909c0-16.682149 7.719931-29.459965 27.685269-29.459965 6.300173 0 11.712998 1.419757 15.262391 2.839515l-3.904333 15.351126z" fill="#FFFFFF" /></svg>