<?xml version="1.0" standalone="no"?><!DOCTYPE svg PUBLIC "-//W3C//DTD SVG 1.1//EN" "http://www.w3.org/Graphics/SVG/1.1/DTD/svg11.dtd"><svg class="icon" width="200px" height="200.00px" viewBox="0 0 1024 1024" version="1.1" xmlns="http://www.w3.org/2000/svg"><path d="M852.537678 966.322357c7.542461 0 14.818718-3.016984 20.142807-8.341075s8.341075-12.600347 8.341075-20.142807V262.033969c0-6.743847-2.395841-13.22149-6.743848-18.368111L725.469393 67.793414c-5.412825-6.388908-13.39896-10.115771-21.740034-10.115771h-532.231543c-7.542461 0-14.818718 3.016984-20.142807 8.341075s-8.341075 12.600347-8.341075 20.142807v851.67695c0 7.542461 3.016984 14.818718 8.341075 20.142807s12.600347 8.341075 20.142807 8.341075h681.039862z" fill="#87A0A0" /><path d="M881.02156 265.228423v-3.194454c0-6.743847-2.395841-13.22149-6.743848-18.368111L725.469393 67.793414c-5.412825-6.388908-13.39896-10.115771-21.740034-10.115771h-1.331023v207.55078h178.623224z" opacity=".15" /><path d="M381.648527 827.168388v-35.316464h-11.269324v-15.528596l12.245407-1.064818 2.395841-21.296361h17.569497v21.296361h19.699133v16.504679h-19.699133v35.316464c0 9.139688 3.726863 13.39896 10.82565 13.398961 2.57331 0 5.679029-0.887348 7.808665-1.685962l3.460659 15.262391c-4.259272 1.419757-9.849567 3.016984-16.859619 3.016985-18.90052 0-26.176776-11.890468-26.176776-29.90364zM438.527556 775.25851h17.125824l1.419757 10.64818h0.532409c6.655113-7.010052 14.108839-12.689081 24.490814-12.689082 11.446794 0 18.101906 5.14662 21.917505 13.931369 7.276256-7.719931 14.996187-13.931369 25.378163-13.931369 16.948354 0 24.757019 11.979203 24.757019 32.033276v49.868977H533.29636v-47.206932c0-12.245407-3.549393-16.682149-11.091854-16.682149-4.525477 0-9.672097 3.016984-15.351126 8.962218v54.926863h-20.941422v-47.206932c0-12.245407-3.549393-16.682149-11.091854-16.682149-4.525477 0-9.672097 3.016984-15.351127 8.962218v54.926863h-20.941421v-79.861351zM575.889081 775.25851h17.125824l1.419757 8.252339h0.532409c6.655113-5.679029 14.996187-10.293241 23.514731-10.293241 19.699133 0 31.323397 16.14974 31.323397 40.640555 0 27.330329-16.415945 43.213865-33.896707 43.213865-7.010052 0-13.665165-3.105719-19.787868-8.696014l0.532409 13.132755v24.224611H575.889081v-110.47487z m52.442288 38.954592c0-15.262392-4.880416-23.692201-15.794801-23.692201-5.412825 0-10.293241 2.75078-15.7948 8.25234v35.05026c5.14662 4.436742 10.293241 5.945234 14.552513 5.945234 9.672097 0.088735 17.037088-8.163605 17.037088-25.555633z" fill="#FFFFFF" /><path d="M283.392444 351.389948c0 2.395841 0.976083 4.614211 2.57331 6.300173 1.685962 1.685962 3.904333 2.57331 6.300173 2.573311h439.50364c4.880416 0 8.873484-3.993068 8.873483-8.873484v-34.517851c0-2.395841-0.976083-4.614211-2.57331-6.300173-1.685962-1.685962-3.904333-2.57331-6.300173-2.57331h-439.50364c-2.395841 0-4.614211 0.976083-6.300173 2.57331-1.685962 1.685962-2.57331 3.904333-2.57331 6.300173V351.389948z m0 289.186828c0 2.395841 0.976083 4.614211 2.57331 6.300174 1.685962 1.685962 3.904333 2.57331 6.300173 2.57331h439.50364c4.880416 0 8.873484-3.993068 8.873483-8.873484V377.389255c0-2.395841-0.976083-4.614211-2.57331-6.300174-1.685962-1.685962-3.904333-2.57331-6.300173-2.57331h-439.50364c-2.395841 0-4.614211 0.976083-6.300173 2.57331-1.685962 1.685962-2.57331 3.904333-2.57331 6.300174v263.187521z" fill="#FFFFFF" /><path d="M615.526932 322.906066c-6.211438 0-11.180589 4.969151-11.180589 11.180589 0 6.122704 4.969151 11.180589 11.180589 11.180589s11.180589-4.969151 11.18059-11.180589c0-6.122704-5.057886-11.180589-11.18059-11.180589z m48.271751 0c-6.211438 0-11.180589 4.969151-11.180589 11.180589 0 6.122704 4.969151 11.180589 11.180589 11.180589 6.122704 0 11.180589-4.969151 11.180589-11.180589 0-6.122704-5.057886-11.180589-11.180589-11.180589z m37.091161 11.180589c0-6.211438 4.969151-11.180589 11.180589-11.180589s11.180589 4.969151 11.18059 11.180589c0 6.122704-4.969151 11.180589-11.18059 11.180589s-11.180589-4.969151-11.180589-11.180589z" fill="#87A0A0" /></svg>