<?xml version="1.0" standalone="no"?><!DOCTYPE svg PUBLIC "-//W3C//DTD SVG 1.1//EN" "http://www.w3.org/Graphics/SVG/1.1/DTD/svg11.dtd"><svg class="icon" width="200px" height="200.00px" viewBox="0 0 1024 1024" version="1.1" xmlns="http://www.w3.org/2000/svg"><path d="M852.537678 966.322357c7.542461 0 14.818718-3.016984 20.142807-8.341075s8.341075-12.600347 8.341075-20.142807V262.033969c0-6.743847-2.395841-13.22149-6.743848-18.368111L725.469393 67.793414c-5.412825-6.388908-13.39896-10.115771-21.740034-10.115771h-532.231543c-7.542461 0-14.818718 3.016984-20.142807 8.341075s-8.341075 12.600347-8.341075 20.142807v851.67695c0 7.542461 3.016984 14.818718 8.341075 20.142807s12.600347 8.341075 20.142807 8.341075h681.039862z" fill="#57C021" /><path d="M881.02156 265.228423v-3.194454c0-6.743847-2.395841-13.22149-6.743848-18.368111L725.469393 67.793414c-5.412825-6.388908-13.39896-10.115771-21.740034-10.115771h-1.331023v207.55078h178.623224z" opacity=".15" /><path d="M489.283882 347.290399H380.938648v-38.067245h262.122704v38.067245H534.716118v319.711611h-45.432236v-319.711611z" fill="#FFFFFF" /><path d="M426.015945 827.168388v-35.316464h-11.269325v-15.528596l12.245408-1.064818 2.39584-21.296361h17.569498v21.296361h19.699133v16.504679h-19.699133v35.316464c0 9.139688 3.726863 13.39896 10.82565 13.398961 2.57331 0 5.679029-0.887348 7.808665-1.685962l3.460659 15.262391c-4.259272 1.419757-9.849567 3.016984-16.859619 3.016985-18.90052 0-26.176776-11.890468-26.176776-29.90364zM496.648873 813.503224l-23.337261-38.244714h22.538648l7.986135 14.286308c2.307106 4.436742 4.702946 8.962218 7.098787 13.39896h0.532409c1.863432-4.436742 3.993068-8.962218 5.856499-13.39896l6.655113-14.286308H545.719237l-23.337261 40.640554 24.934488 39.220797h-22.538648l-8.873483-14.552513c-2.57331-4.702946-5.14662-9.583362-7.719931-14.108838h-0.709879c-2.307106 4.525477-4.436742 9.228423-6.655112 14.108838l-7.453726 14.552513h-21.6513l24.934488-41.616637zM559.384402 827.168388v-35.316464h-11.269324v-15.528596l12.245407-0.976084 2.395841-21.385095H580.325823v21.296361h19.699134v16.504679H580.325823v35.316464c0 9.139688 3.726863 13.39896 10.82565 13.398961 2.57331 0 5.679029-0.887348 7.808666-1.685962l3.460658 15.262391c-4.259272 1.419757-9.849567 3.016984-16.859618 3.016985-18.90052 0-26.176776-11.890468-26.176777-29.90364z" fill="#FFFFFF" /></svg>