<?xml version="1.0" standalone="no"?><!DOCTYPE svg PUBLIC "-//W3C//DTD SVG 1.1//EN" "http://www.w3.org/Graphics/SVG/1.1/DTD/svg11.dtd"><svg class="icon" width="200px" height="200.00px" viewBox="0 0 1024 1024" version="1.1" xmlns="http://www.w3.org/2000/svg"><path d="M852.537678 966.322357c7.542461 0 14.818718-3.016984 20.142807-8.341075s8.341075-12.600347 8.341075-20.142807V262.033969c0-6.743847-2.395841-13.22149-6.743848-18.368111L725.469393 67.793414c-5.412825-6.388908-13.39896-10.115771-21.740034-10.115771h-532.231543c-7.542461 0-14.818718 3.016984-20.142807 8.341075s-8.341075 12.600347-8.341075 20.142807v851.67695c0 7.542461 3.016984 14.818718 8.341075 20.142807s12.600347 8.341075 20.142807 8.341075h681.039862z" fill="#9C9C9C" /><path d="M881.02156 265.228423v-3.194454c0-6.743847-2.395841-13.22149-6.743848-18.368111L725.469393 67.793414c-5.412825-6.388908-13.39896-10.115771-21.740034-10.115771h-1.331023v207.55078h178.623224z" opacity=".15" /><path d="M345.799653 775.25851H362.925477l1.419757 10.559445h0.532409c7.010052-6.832582 15.084922-12.511612 25.910572-12.511612 17.214558 0 24.668284 11.979203 24.668284 32.033276v49.780242h-20.941421v-47.206932c0-12.245407-3.460659-16.682149-11.269324-16.682149-6.566378 0-10.64818 3.105719-16.682149 8.962218v54.926863h-20.763952v-79.861351zM432.138648 815.366655c0-26.620451 18.368111-42.060312 38.333449-42.060312 19.965338 0 38.333449 15.351127 38.333449 42.060312 0 26.354246-18.368111 41.794107-38.333449 41.794108-19.965338-0.088735-38.333449-15.439861-38.333449-41.794108z m55.370537 0c0-15.084922-6.122704-24.934489-16.948353-24.934489-10.82565 0-16.948354 9.849567-16.948354 24.934489 0 14.996187 6.122704 24.668284 16.948354 24.668284 10.736915 0 16.948354-9.672097 16.948353-24.668284zM526.375043 775.25851h17.125824l1.419757 10.559445h0.532409c7.010052-6.832582 15.084922-12.511612 25.910572-12.511612 17.214558 0 24.668284 11.979203 24.668284 32.033276v49.780242h-20.941421v-47.206932c0-12.245407-3.460659-16.682149-11.269324-16.682149-6.566378 0-10.64818 3.105719-16.682149 8.962218v54.926863h-20.852687v-79.861351zM612.714038 815.366655c0-25.910572 18.101906-42.060312 37.179896-42.060312 21.917504 0 33.364298 16.14974 33.364298 38.155979 0 3.815598-0.443674 7.719931-0.976083 9.583363h-49.159099c1.685962 13.132756 10.293241 19.965338 22.094974 19.965338 6.566378 0 12.245407-1.952166 17.924437-5.590295l7.098787 12.866551c-7.808666 5.412825-17.924437 8.873484-27.951473 8.873484-22.183709-0.088735-39.575737-15.617331-39.575737-41.794108z m52.619757-8.163605c0-10.82565-4.880416-17.658232-15.084922-17.658232-8.429809 0-15.794801 5.945234-17.392027 17.658232h32.476949z" fill="#FFFFFF" /><path d="M557.077296 377.282773c0-28.483882-17.569497-51.288735-51.288734-51.288735-23.780936 0-44.633622 11.358059-61.315772 30.436049l-24.757019-22.804853c21.917504-25.200693 52.264818-43.746274 90.775737-43.746274 53.684575 0 88.82357 32.743154 88.82357 84.564298 0 69.834315-85.540381 97.874523-76.933102 172.50052h-38.510919c-10.914385-82.700867 73.206239-113.136915 73.206239-169.661005zM472.956672 625.296638c0-19.521664 14.286308-33.719237 31.323397-33.719238 17.569497 0 31.855806 14.286308 31.855806 33.719238s-14.286308 32.831889-31.855806 32.831889c-17.037088 0-31.323397-13.310225-31.323397-32.831889z" fill="#FFFFFF" /></svg>