<?xml version="1.0" standalone="no"?><!DOCTYPE svg PUBLIC "-//W3C//DTD SVG 1.1//EN" "http://www.w3.org/Graphics/SVG/1.1/DTD/svg11.dtd"><svg class="icon" width="200px" height="200.00px" viewBox="0 0 1024 1024" version="1.1" xmlns="http://www.w3.org/2000/svg"><path d="M852.537678 966.322357c7.542461 0 14.818718-3.016984 20.142807-8.341075s8.341075-12.600347 8.341075-20.142807V262.033969c0-6.743847-2.395841-13.22149-6.743848-18.368111L725.469393 67.793414c-5.412825-6.388908-13.39896-10.115771-21.740034-10.115771h-532.231543c-7.542461 0-14.818718 3.016984-20.142807 8.341075s-8.341075 12.600347-8.341075 20.142807v851.67695c0 7.542461 3.016984 14.818718 8.341075 20.142807s12.600347 8.341075 20.142807 8.341075h681.039862z" fill="#DF3D54" /><path d="M881.02156 265.228423v-3.194454c0-6.743847-2.395841-13.22149-6.743848-18.368111L725.469393 67.793414c-5.412825-6.388908-13.39896-10.115771-21.740034-10.115771h-1.331023v207.55078h178.623224z" opacity=".15" /><path d="M647.915147 323.438475l-82.257192 21.828769v241.891162c0 35.848873-29.016291 64.865165-64.865165 64.865164-35.848873 0-64.865165-29.016291-64.865164-64.865164 0-35.848873 29.016291-64.865165 64.865164-64.865165 18.456846 0 35.05026 7.719931 46.851993 20.054073v-228.935876l100.270364-26.531715v36.558752z" fill="#FFFFFF" /><path d="M370.734142 775.25851h20.941421l8.696014 39.487001c1.597227 7.719931 2.57331 15.351127 3.993068 23.248527h0.532409c1.597227-7.808666 3.016984-15.706066 4.969151-23.248527l9.672097-39.487001h18.634315l9.938302 39.487001c1.863432 7.719931 3.283189 15.351127 4.96915 23.248527h0.798614c1.419757-7.808666 2.395841-15.528596 3.993067-23.248527l8.696014-39.487001h19.344194l-19.610398 79.861351h-24.668284l-8.42981-34.784055c-1.685962-7.542461-3.016984-14.818718-4.525476-23.248527h-0.709879c-1.597227 8.429809-2.75078 15.794801-4.436742 23.248527l-8.163605 34.784055h-23.958405l-20.675217-79.861351zM495.495321 833.468562c0-17.125823 13.842634-26.088042 45.87591-29.459966-0.266205-7.808666-3.726863-13.842634-13.57643-13.842634-7.453726 0-14.552513 3.283189-21.917505 7.542461l-7.542461-13.842634c9.405893-5.856499 20.852686-10.559445 33.364298-10.559446 20.231542 0 30.613518 12.156672 30.613519 35.22773v46.585788h-17.125824l-1.597227-8.518544h-0.443674c-7.010052 5.945234-14.996187 10.559445-24.04714 10.559446-14.197574-0.088735-23.603466-10.204506-23.603466-23.692201z m45.87591-0.621144v-16.14974c-19.344194 2.57331-25.910572 7.808666-25.910572 14.996187 0 6.300173 4.436742 8.962218 10.559445 8.962218 5.945234 0.088735 10.381976-2.75078 15.351127-7.808665zM574.469324 775.25851h21.118891l11.712998 39.753206c1.952166 7.808666 4.259272 16.14974 6.388908 24.22461h0.709879c1.952166-8.163605 4.259272-16.415945 6.388908-24.22461l11.624264-39.753206h20.054072l-26.62045 79.861351H601.622184l-27.15286-79.861351z" fill="#FFFFFF" /></svg>