<?xml version="1.0" standalone="no"?><!DOCTYPE svg PUBLIC "-//W3C//DTD SVG 1.1//EN" "http://www.w3.org/Graphics/SVG/1.1/DTD/svg11.dtd"><svg class="icon" width="200px" height="200.00px" viewBox="0 0 1024 1024" version="1.1" xmlns="http://www.w3.org/2000/svg"><path d="M852.537678 966.322357c7.542461 0 14.818718-3.016984 20.142807-8.341075s8.341075-12.600347 8.341075-20.142807V262.033969c0-6.743847-2.395841-13.22149-6.743848-18.368111L725.469393 67.793414c-5.412825-6.388908-13.39896-10.115771-21.740034-10.115771h-532.231543c-7.542461 0-14.818718 3.016984-20.142807 8.341075s-8.341075 12.600347-8.341075 20.142807v851.67695c0 7.542461 3.016984 14.818718 8.341075 20.142807s12.600347 8.341075 20.142807 8.341075h681.039862z" fill="#FFA566" /><path d="M881.02156 265.228423v-3.194454c0-6.743847-2.395841-13.22149-6.743848-18.368111L725.469393 67.793414c-5.412825-6.388908-13.39896-10.115771-21.740034-10.115771h-1.331023v207.55078h178.623224z" opacity=".15" /><path d="M362.313206 775.25851h20.941421l8.696014 39.487001c1.597227 7.719931 2.57331 15.351127 3.993068 23.248527h0.532409c1.597227-7.808666 3.016984-15.706066 4.969151-23.248527l9.672097-39.487001h18.634315l9.938302 39.487001c1.863432 7.719931 3.283189 15.351127 4.96915 23.248527h0.798614c1.419757-7.808666 2.395841-15.528596 3.993068-23.248527l8.696013-39.487001h19.344195l-19.610399 79.861351h-24.668284l-8.42981-34.784055c-1.685962-7.542461-3.016984-14.818718-4.525476-23.248527h-0.709879c-1.597227 8.429809-2.75078 15.794801-4.436742 23.248527l-8.163605 34.784055h-23.958405l-20.675217-79.861351zM487.074385 815.366655c0-26.088042 16.238475-42.060312 33.453033-42.060312 8.962218 0 14.552513 3.460659 20.231542 8.696014l-0.887348-12.511612v-28.128943h20.941421v113.758059h-16.859619l-1.685962-8.252339h-0.443674c-5.856499 5.679029-13.842634 10.293241-22.094974 10.293241-19.876603-0.088735-32.654419-15.706066-32.654419-41.794108z m52.885962 16.238475v-35.05026c-4.880416-4.436742-9.849567-5.945234-14.818718-5.945234-8.962218 0-16.504679 8.518544-16.504679 24.490815 0 16.504679 5.945234 24.757019 16.504679 24.757019 5.50156 0 10.204506-2.307106 14.818718-8.25234zM602.074731 846.690052h-0.443674l-1.863431 8.429809h-16.415945v-113.758059h20.852686v28.661352l-0.443674 12.866551c6.300173-5.679029 14.286308-9.583362 22.094974-9.583362 19.699133 0 31.500867 16.14974 31.500867 40.463085 0 27.507799-16.415945 43.3026-33.896707 43.3026-7.098787 0-14.818718-3.638128-21.385096-10.381976z m33.807973-32.47695c0-15.262392-4.880416-23.692201-15.794801-23.692201-5.412825 0-10.293241 2.75078-15.794801 8.25234v35.05026c4.969151 4.436742 10.293241 5.945234 14.552513 5.945234 9.583362 0.088735 17.037088-8.163605 17.037089-25.555633z" fill="#FFFFFF" /><path d="M511.991127 286.808735c-97.164645 0-175.872444 32.388215-175.872444 72.318891s78.707799 72.318891 175.872444 72.31889 175.872444-32.388215 175.872443-72.31889-78.707799-72.318891-175.872443-72.318891z" fill="#FFFFFF" opacity=".6" /><path d="M511.991127 401.897816c-97.164645 0-175.872444 32.47695-175.872444 72.407626s78.707799 72.318891 175.872444 72.318891 175.872444-32.388215 175.872443-72.318891-78.707799-72.407626-175.872443-72.407626z" fill="#FFFFFF" opacity=".8" /><path d="M511.991127 517.075633c-97.164645 0-175.872444 32.388215-175.872444 72.31889s78.707799 72.318891 175.872444 72.318891 175.872444-32.388215 175.872443-72.318891-78.707799-72.318891-175.872443-72.31889z" fill="#FFFFFF" /></svg>