<?xml version="1.0" standalone="no"?><!DOCTYPE svg PUBLIC "-//W3C//DTD SVG 1.1//EN" "http://www.w3.org/Graphics/SVG/1.1/DTD/svg11.dtd"><svg class="icon" width="200px" height="200.00px" viewBox="0 0 1024 1024" version="1.1" xmlns="http://www.w3.org/2000/svg"><path d="M852.537678 966.322357c7.542461 0 14.818718-3.016984 20.142807-8.341075s8.341075-12.600347 8.341075-20.142807V262.033969c0-6.743847-2.395841-13.22149-6.743848-18.368111L725.469393 67.793414c-5.412825-6.388908-13.39896-10.115771-21.740034-10.115771h-532.231543c-7.542461 0-14.818718 3.016984-20.142807 8.341075s-8.341075 12.600347-8.341075 20.142807v851.67695c0 7.542461 3.016984 14.818718 8.341075 20.142807s12.600347 8.341075 20.142807 8.341075h681.039862z" fill="#6880F2" /><path d="M881.02156 265.228423v-3.194454c0-6.743847-2.395841-13.22149-6.743848-18.368111L725.469393 67.793414c-5.412825-6.388908-13.39896-10.115771-21.740034-10.115771h-1.331023v207.55078h178.623224z" opacity=".15" /><path d="M372.952513 775.25851h20.941421l8.696014 39.487001c1.597227 7.719931 2.57331 15.351127 3.993068 23.248527h0.532409c1.597227-7.808666 3.016984-15.706066 4.96915-23.248527l9.672097-39.487001h18.634316l9.938301 39.487001c1.863432 7.719931 3.283189 15.351127 4.969151 23.248527h0.798614c1.419757-7.808666 2.395841-15.528596 3.993067-23.248527l8.696014-39.487001h19.344194l-19.610398 79.861351h-24.668285l-8.429809-34.784055c-1.685962-7.542461-3.016984-14.818718-4.525477-23.248527h-0.709878c-1.597227 8.429809-2.75078 15.794801-4.436742 23.248527l-8.163605 34.784055h-23.958405l-20.675217-79.861351zM503.392721 775.25851h17.125823l1.419758 8.252339h0.532409c6.655113-5.679029 14.996187-10.293241 23.514731-10.293241 19.699133 0 31.323397 16.14974 31.323397 40.640555 0 27.330329-16.415945 43.213865-33.896707 43.213865-7.010052 0-13.665165-3.105719-19.787869-8.696014l0.532409 13.132755v24.224611h-20.852686v-110.47487z m52.442288 38.954592c0-15.262392-4.880416-23.692201-15.794801-23.692201-5.412825 0-10.293241 2.75078-15.794801 8.25234v35.05026c5.14662 4.436742 10.293241 5.945234 14.552513 5.945234 9.672097 0.088735 17.037088-8.163605 17.037089-25.555633zM586.892201 845.891438l9.583362-13.132755c7.098787 5.590295 13.931369 8.696014 21.385096 8.696014 7.986135 0 11.535529-3.460659 11.535528-8.42981 0-5.945234-8.25234-8.696014-16.682149-11.979202-10.115771-3.815598-21.828769-9.938302-21.828769-23.248527 0-14.375043 11.712998-24.490815 29.637435-24.490815 11.712998 0 20.497747 4.880416 27.241594 9.849567l-9.405892 12.689081c-5.679029-3.993068-11.269324-6.832582-17.214559-6.832582-7.098787 0-10.559445 3.105719-10.559445 7.719931 0 5.856499 7.808666 7.986135 16.238475 11.091854 10.559445 3.993068 22.272444 9.228423 22.272444 24.04714 0 13.931369-11.00312 25.200693-31.767071 25.200694-10.736915 0-22.538648-4.702946-30.436049-11.18059z" fill="#FFFFFF" /><path d="M450.835078 659.832236l-221.038475-335.683882h156.439515l122.631542 186.165684 122.631543-186.165684h163.183362L567.965061 659.299827l-58.919931-87.758752-58.210052 88.291161z m78.264125-118.90468l38.954592 57.943848 163.005893-241.003813h-81.369844l-120.590641 183.059965z m-236.655806-182.97123l158.391681 240.471404 37.80104-57.411439-120.590641-183.059965h-75.60208z" fill="#FFFFFF" /></svg>