<?xml version="1.0" standalone="no"?><!DOCTYPE svg PUBLIC "-//W3C//DTD SVG 1.1//EN" "http://www.w3.org/Graphics/SVG/1.1/DTD/svg11.dtd"><svg class="icon" width="200px" height="200.00px" viewBox="0 0 1024 1024" version="1.1" xmlns="http://www.w3.org/2000/svg"><path d="M852.537678 966.322357c7.542461 0 14.818718-3.016984 20.142807-8.341075s8.341075-12.600347 8.341075-20.142807V262.033969c0-6.743847-2.395841-13.22149-6.743848-18.368111L725.469393 67.793414c-5.412825-6.388908-13.39896-10.115771-21.740034-10.115771h-532.231543c-7.542461 0-14.818718 3.016984-20.142807 8.341075s-8.341075 12.600347-8.341075 20.142807v851.67695c0 7.542461 3.016984 14.818718 8.341075 20.142807s12.600347 8.341075 20.142807 8.341075h681.039862z" fill="#FF00B3" /><path d="M881.02156 265.228423v-3.194454c0-6.743847-2.395841-13.22149-6.743848-18.368111L725.469393 67.793414c-5.412825-6.388908-13.39896-10.115771-21.740034-10.115771h-1.331023v207.55078h178.623224z" opacity=".15" /><path d="M333.288042 481.989879l-97.608319-172.766725h49.780242l48.80416 91.308146c9.228423 16.593414 16.593414 31.767071 28.306412 52.264818h1.952167c9.760832-20.497747 16.593414-35.671404 25.378163-52.264818l47.828076-91.308146h47.384402l-97.608319 175.2513 104.352166 182.527556h-49.780242l-52.708492-96.632235c-9.317158-17.569497-19.07799-36.115078-30.790988-57.588908h-1.952167c-10.204506 21.47383-19.521664 40.019411-28.838821 57.588908l-51.643674 96.632235h-47.295668l104.440902-185.012131zM522.115771 534.698371c0-85.895321 54.12825-139.579896 114.645408-139.579896 31.234662 0 51.288735 11.712998 74.714731 31.234662l-2.484576-45.87591v-102.045061h44.456153v388.569844h-36.115078l-4.348007-31.234662h-0.976083c-21.030156 20.497747-48.804159 37.62357-80.571231 37.623571-66.373657 0-109.321317-50.312652-109.321317-138.692548z m186.964298 64.953899v-139.136221c-22.449913-19.965338-42.503986-27.774003-64.42149-27.774004-42.94766 0-76.666898 40.995494-76.666898 101.512652 0 63.889081 26.354246 102.045061 73.206239 102.04506 24.40208-0.088735 45.87591-12.245407 67.882149-36.647487z" fill="#FFFFFF" /><path d="M453.168804 813.503224l-23.425996-38.244714h22.538648l7.986135 14.286308c2.307106 4.436742 4.702946 8.962218 7.098787 13.39896h0.532409c1.863432-4.436742 3.993068-8.962218 5.856499-13.39896l6.743847-14.286308h21.6513l-23.337261 40.640554 24.934488 39.220797h-22.538648l-8.873483-14.552513c-2.57331-4.702946-5.14662-9.583362-7.719931-14.108838h-0.709879c-2.307106 4.525477-4.436742 9.228423-6.655112 14.108838l-7.364992 14.552513h-21.6513l24.934489-41.616637zM508.716811 815.366655c0-26.088042 16.238475-42.060312 33.453033-42.060312 8.962218 0 14.552513 3.460659 20.231542 8.696014l-0.887348-12.511612v-28.128943h20.941421v113.758059h-16.948353l-1.685962-8.252339h-0.354939c-5.856499 5.679029-13.842634 10.293241-22.094974 10.293241-19.787868-0.088735-32.654419-15.706066-32.65442-41.794108z m52.885962 16.238475v-35.05026c-4.880416-4.436742-9.849567-5.945234-14.818718-5.945234-8.962218 0-16.504679 8.518544-16.504679 24.490815 0 16.504679 5.945234 24.757019 16.504679 24.757019 5.590295 0 10.293241-2.307106 14.818718-8.25234z" fill="#FFFFFF" /></svg>