<?xml version="1.0" standalone="no"?><!DOCTYPE svg PUBLIC "-//W3C//DTD SVG 1.1//EN" "http://www.w3.org/Graphics/SVG/1.1/DTD/svg11.dtd"><svg class="icon" width="200px" height="200.00px" viewBox="0 0 1024 1024" version="1.1" xmlns="http://www.w3.org/2000/svg"><path d="M852.537678 966.322357c7.542461 0 14.818718-3.016984 20.142807-8.341075s8.341075-12.600347 8.341075-20.142807V262.033969c0-6.743847-2.395841-13.22149-6.743848-18.368111L725.469393 67.793414c-5.412825-6.388908-13.39896-10.115771-21.740034-10.115771h-532.231543c-7.542461 0-14.818718 3.016984-20.142807 8.341075s-8.341075 12.600347-8.341075 20.142807v851.67695c0 7.542461 3.016984 14.818718 8.341075 20.142807s12.600347 8.341075 20.142807 8.341075h681.039862z" fill="#1FB77A" /><path d="M881.02156 265.228423v-3.194454c0-6.743847-2.395841-13.22149-6.743848-18.368111L725.469393 67.793414c-5.412825-6.388908-13.39896-10.115771-21.740034-10.115771h-1.331023v207.55078h178.623224z" opacity=".15" /><path d="M484.935875 481.989879l-97.608319-172.766725h49.780243l48.804159 91.308146c9.228423 16.593414 16.593414 31.767071 28.306413 52.264818h1.952166c9.760832-20.497747 16.593414-35.671404 25.378163-52.264818l47.828076-91.308146h47.295668l-97.608319 175.2513 104.440901 182.527556h-49.780243l-52.708492-96.632235c-9.317158-17.569497-19.07799-36.115078-30.790988-57.588908h-1.952166c-10.204506 21.47383-19.521664 40.019411-28.838822 57.588908l-51.643674 96.632235h-47.295667l104.440901-185.012131z" fill="#FFFFFF" /><path d="M401.258925 813.503224l-23.425996-38.244714h22.538648l7.986135 14.286308c2.307106 4.436742 4.702946 8.962218 7.098787 13.39896h0.532409c1.863432-4.436742 3.993068-8.962218 5.856499-13.39896l6.743848-14.286308h21.6513l-23.337262 40.640554 24.934489 39.220797h-22.538649l-8.873483-14.552513c-2.57331-4.702946-5.14662-9.583362-7.719931-14.108838h-0.709878c-2.307106 4.525477-4.436742 9.228423-6.655113 14.108838l-7.364991 14.552513h-21.6513l24.934488-41.616637zM465.414211 832.758683v-91.396881H486.266898v92.372964c0 4.702946 2.307106 6.300173 4.259272 6.300173 0.887348 0 1.419757 0 2.839515-0.266204l2.57331 15.528596c-2.395841 0.976083-5.945234 1.863432-10.82565 1.863432-14.641248-0.088735-19.699133-9.583362-19.699134-24.40208zM502.682842 845.891438l9.583363-13.132755c7.098787 5.590295 13.931369 8.696014 21.385095 8.696014 7.986135 0 11.535529-3.460659 11.535528-8.42981 0-5.945234-8.25234-8.696014-16.682149-11.979202-10.115771-3.815598-21.828769-9.938302-21.828769-23.248527 0-14.375043 11.712998-24.490815 29.637435-24.490815 11.712998 0 20.497747 4.880416 27.241594 9.849567l-9.405892 12.689081c-5.679029-3.993068-11.269324-6.832582-17.214558-6.832582-7.098787 0-10.559445 3.105719-10.559446 7.719931 0 5.856499 7.808666 7.986135 16.238475 11.091854 10.559445 3.993068 22.272444 9.228423 22.272444 24.04714 0 13.931369-11.00312 25.200693-31.767071 25.200694-10.736915 0-22.538648-4.702946-30.436049-11.18059zM596.830503 813.503224l-23.337262-38.15598h22.538648l7.986135 14.286309c2.307106 4.436742 4.702946 8.962218 7.098787 13.39896h0.532409c1.863432-4.436742 3.993068-8.962218 5.856499-13.39896l6.655113-14.286309h21.6513l-23.337262 40.55182 24.934489 39.220797h-22.538648l-8.873484-14.552513c-2.57331-4.702946-5.14662-9.583362-7.719931-14.108838h-0.709878c-2.307106 4.525477-4.436742 9.228423-6.655113 14.108838l-7.453726 14.552513h-21.6513l25.023224-41.616637z" fill="#FFFFFF" /></svg>