<?xml version="1.0" standalone="no"?><!DOCTYPE svg PUBLIC "-//W3C//DTD SVG 1.1//EN" "http://www.w3.org/Graphics/SVG/1.1/DTD/svg11.dtd"><svg class="icon" width="200px" height="200.00px" viewBox="0 0 1024 1024" version="1.1" xmlns="http://www.w3.org/2000/svg"><path d="M852.537678 966.322357c7.542461 0 14.818718-3.016984 20.142807-8.341075s8.341075-12.600347 8.341075-20.142807V262.033969c0-6.743847-2.395841-13.22149-6.743848-18.368111L725.469393 67.793414c-5.412825-6.388908-13.39896-10.115771-21.740034-10.115771h-532.231543c-7.542461 0-14.818718 3.016984-20.142807 8.341075s-8.341075 12.600347-8.341075 20.142807v851.67695c0 7.542461 3.016984 14.818718 8.341075 20.142807s12.600347 8.341075 20.142807 8.341075h681.039862z" fill="#57C021" /><path d="M881.02156 265.228423v-3.194454c0-6.743847-2.395841-13.22149-6.743848-18.368111L725.469393 67.793414c-5.412825-6.388908-13.39896-10.115771-21.740034-10.115771h-1.331023v207.55078h178.623224z" opacity=".15" /><path d="M407.922912 813.503224l-23.425997-38.244714h22.538648l7.986135 14.286308c2.307106 4.436742 4.702946 8.962218 7.098787 13.39896h0.532409c1.863432-4.436742 3.993068-8.962218 5.856499-13.39896l6.743848-14.286308h21.6513l-23.337262 40.640554 24.934489 39.220797h-22.538648l-8.873484-14.552513c-2.57331-4.702946-5.14662-9.583362-7.719931-14.108838h-0.709878c-2.307106 4.525477-4.436742 9.228423-6.655113 14.108838l-7.364991 14.552513h-21.6513l24.934489-41.616637zM472.078198 775.25851h17.125823l1.419757 10.64818h0.532409c6.655113-7.010052 14.108839-12.689081 24.490815-12.689082 11.446794 0 18.101906 5.14662 21.917504 13.931369 7.276256-7.719931 14.996187-13.931369 25.378163-13.931369 16.948354 0 24.757019 11.979203 24.757019 32.033276v49.868977h-20.941421v-47.206932c0-12.245407-3.549393-16.682149-11.091855-16.682149-4.525477 0-9.672097 3.016984-15.351126 8.962218v54.926863h-20.941421v-47.206932c0-12.245407-3.549393-16.682149-11.091855-16.682149-4.525477 0-9.672097 3.016984-15.351126 8.962218v54.926863h-20.852686v-79.861351zM609.439723 832.758683v-91.396881h20.852686v92.372964c0 4.702946 2.307106 6.300173 4.259272 6.300173 0.887348 0 1.419757 0 2.839515-0.266204l2.57331 15.528596c-2.395841 0.976083-5.945234 1.863432-10.82565 1.863432-14.552513-0.088735-19.699133-9.583362-19.699133-24.40208z" fill="#FFFFFF" /><path d="M624.826343 597.850953l-15.706066-15.706066 100.447834-100.447833-100.447834-100.536569 15.706066-15.706066 116.1539 116.1539-116.1539 116.242634z m-225.652686 0l-116.1539-116.153899 116.1539-116.1539 15.706066 15.706066-100.447834 100.447834 100.447834 100.447833-15.706066 15.706066z m143.040554-5.235355l-21.562565-5.146621 51.909879-216.690467 21.562565 5.14662-51.909879 216.690468z" fill="#FFFFFF" /><path d="M378.85338 481.164645c0-15.173657 12.334142-27.507799 27.507799-27.507799s27.507799 12.334142 27.507798 27.507799-12.334142 27.507799-27.507798 27.507799-27.507799-12.334142-27.507799-27.507799z m78.086655 1.064818c0-15.173657 12.334142-27.507799 27.507799-27.507799s27.507799 12.334142 27.507799 27.507799-12.334142 27.507799-27.507799 27.507799-27.507799-12.334142-27.507799-27.507799z" fill="#FFFFFF" /></svg>