<?xml version="1.0" standalone="no"?><!DOCTYPE svg PUBLIC "-//W3C//DTD SVG 1.1//EN" "http://www.w3.org/Graphics/SVG/1.1/DTD/svg11.dtd"><svg class="icon" width="200px" height="200.00px" viewBox="0 0 1024 1024" version="1.1" xmlns="http://www.w3.org/2000/svg"><path d="M852.537678 966.322357c7.542461 0 14.818718-3.016984 20.142807-8.341075s8.341075-12.600347 8.341075-20.142807V262.033969c0-6.743847-2.395841-13.22149-6.743848-18.368111L725.469393 67.793414c-5.412825-6.388908-13.39896-10.115771-21.740034-10.115771h-532.231543c-7.542461 0-14.818718 3.016984-20.142807 8.341075s-8.341075 12.600347-8.341075 20.142807v851.67695c0 7.542461 3.016984 14.818718 8.341075 20.142807s12.600347 8.341075 20.142807 8.341075h681.039862z" fill="#8C72FE" /><path d="M881.02156 265.228423v-3.194454c0-6.743847-2.395841-13.22149-6.743848-18.368111L725.469393 67.793414c-5.412825-6.388908-13.39896-10.115771-21.740034-10.115771h-1.331023v207.55078h178.623224z" opacity=".15" /><path d="M511.97338 286.790988v93.082842h93.082842V286.790988h-93.082842z m-93.082843 93.082842V472.956672h93.082843V379.87383h-93.082843zM511.97338 566.12825V473.045407h93.082842V566.12825h-93.082842z m-62.912999 101.157712V575.001733h125.914732v92.284229h-125.914732z m77.288042-60.872097h-28.661352v-15.528596h-27.419064V642.440208h83.588215v-51.643674h-27.507799v15.617331z" fill="#FFFFFF" /><path d="M413.593068 843.850537l35.671403-51.998613h-31.678336v-16.593414h57.855113v11.269324l-35.760139 52.087348h36.913692v16.504679h-63.001733v-11.269324zM489.816291 751.033899c0-6.832582 5.235355-11.358059 12.511612-11.358058 7.098787 0 12.422877 4.525477 12.422877 11.358058 0 6.566378-5.235355 11.446794-12.422877 11.446794s-12.511612-4.880416-12.511612-11.446794z m2.040901 24.224611h20.852687v79.861351h-20.852687v-79.861351zM535.159792 775.25851h17.125823l1.419758 8.252339h0.532409c6.655113-5.679029 14.996187-10.293241 23.514731-10.293241 19.699133 0 31.323397 16.14974 31.323397 40.640555 0 27.330329-16.415945 43.213865-33.896707 43.213865-7.010052 0-13.665165-3.105719-19.787869-8.696014l0.53241 13.132755v24.224611H535.071057v-110.47487z m52.442288 38.954592c0-15.262392-4.880416-23.692201-15.794801-23.692201-5.412825 0-10.293241 2.75078-15.794801 8.25234v35.05026c5.14662 4.436742 10.293241 5.945234 14.552513 5.945234 9.672097 0.088735 17.037088-8.163605 17.037089-25.555633z" fill="#FFFFFF" /></svg>