<?xml version="1.0" standalone="no"?><!DOCTYPE svg PUBLIC "-//W3C//DTD SVG 1.1//EN" "http://www.w3.org/Graphics/SVG/1.1/DTD/svg11.dtd"><svg t="1575771744006" class="icon" viewBox="0 0 1097 1024" version="1.1" xmlns="http://www.w3.org/2000/svg" p-id="6965" xmlns:xlink="http://www.w3.org/1999/xlink" width="214.2578125" height="200"><defs><style type="text/css"></style></defs><path d="M0 512v512h292.571429V512H0z m219.428571 438.857143H73.142857v-365.714286h146.285714v365.714286zM804.571429 438.857143v585.142857H1097.142857V438.857143h-292.571428z m219.428571 512h-146.285714V512h146.285714v438.857143zM365.714286 219.428571v804.571429h365.714285V219.428571H365.714286z m280.380952 725.333334H451.047619v-134.095238h188.952381v134.095238z m0-256H451.047619V554.666667h188.952381v134.095238z m0-249.904762H451.047619V298.666667h188.952381v140.190476z" p-id="6966"></path><path d="M256 365.714286H182.857143V73.142857h731.428571v219.428572h-73.142857l109.714286 109.714285 109.714286-109.714285h-73.142858V0H109.714286v365.714286H36.571429l109.714285 109.714285L256 365.714286z" p-id="6967"></path></svg>