<?xml version="1.0" standalone="no"?><!DOCTYPE svg PUBLIC "-//W3C//DTD SVG 1.1//EN" "http://www.w3.org/Graphics/SVG/1.1/DTD/svg11.dtd"><svg t="1598768807022" class="icon" viewBox="0 0 1024 1024" version="1.1" xmlns="http://www.w3.org/2000/svg" p-id="16655" xmlns:xlink="http://www.w3.org/1999/xlink" width="200" height="200"><defs><style type="text/css"></style></defs><path d="M864.48 256H672.224a95.68 95.68 0 0 0-83.072-48.736c-2.752 0-5.376 0.576-8.064 0.832L480.512 32H187.36L41.056 288l86.464 151.264a95.168 95.168 0 0 0-18.336 55.968c0 27.264 11.552 51.776 29.888 69.28L41.056 736 187.36 992h293.152L581.92 814.528c2.432 0.192 4.768 0.736 7.264 0.736A95.68 95.68 0 0 0 671.424 768h193.088l146.272-256L864.48 256z m-512 448l-80.16-140.32c5.92-5.792 10.816-12.512 15.104-19.68H443.36l54.848 96 13.312 23.296c-8.576 11.84-14.368 25.664-16.8 40.704H352.48z m142.4-384c2.624 14.752 8.608 28.224 17.152 39.84L498.208 384l-54.848 96H299.616a95.2 95.2 0 0 0-15.904-39.648L352.48 320h142.4zM205.184 527.264c-17.632 0-32-14.368-32-32s14.368-32 32-32 32 14.368 32 32-14.368 32-32 32zM498.784 512l66.368-116.16c7.712 2.016 15.68 3.424 24 3.424 8.8 0 17.184-1.568 25.312-3.808L681.056 512l-65.888 115.296a94.656 94.656 0 0 0-26.016-4.032c-8.608 0-16.8 1.504-24.736 3.648L498.784 512z m90.368-240.736a32.032 32.032 0 0 1 0 64 32 32 0 0 1 0-64zM114.784 288L224.48 96h218.848l79.104 138.464A96.256 96.256 0 0 0 506.112 256H315.36L231.2 403.296a94.464 94.464 0 0 0-26.016-4.032c-8.608 0-16.8 1.504-24.736 3.648L114.784 288z m328.544 640H224.48L114.784 736l83.136-145.472c2.432 0.192 4.768 0.736 7.264 0.736 2.976 0 5.76-0.608 8.672-0.864L315.36 768h191.584c4.48 7.552 9.792 14.496 16.128 20.512L443.328 928z m145.824-176.736a32 32 0 1 1 0.064-64 32 32 0 0 1-0.064 64zM827.328 704H683.584a95.04 95.04 0 0 0-15.904-39.648L754.752 512 667.2 358.752A95.186 95.186 0 0 0 683.456 320h143.872l109.728 192-109.728 192z" p-id="16656"></path></svg>