<?xml version="1.0" standalone="no"?><!DOCTYPE svg PUBLIC "-//W3C//DTD SVG 1.1//EN" "http://www.w3.org/Graphics/SVG/1.1/DTD/svg11.dtd"><svg t="1595416180039" class="icon" viewBox="0 0 1024 1024" version="1.1" xmlns="http://www.w3.org/2000/svg" p-id="3543" xmlns:xlink="http://www.w3.org/1999/xlink" width="360" height="360"><defs><style type="text/css"></style></defs><path d="M58.578341 815.715292l358.311759 202.364515a32.42383 32.42383 0 0 0 48.891722-26.621671V597.84991a30.717312 30.717312 0 0 0-15.728402-26.507902l-358.311759-205.350921A32.42383 32.42383 0 0 0 42.70773 392.49899v396.623073c0.113768 11.092363 6.200346 21.246141 15.927495 26.593229H58.578341z m531.665479 203.587519l358.311759-205.350921a30.717312 30.717312 0 0 0 15.728402-26.536344V393.835762a32.42383 32.42383 0 0 0-48.891722-26.621671l-358.311759 202.364515a30.717312 30.717312 0 0 0-15.870611 26.593229v396.623073a32.42383 32.42383 0 0 0 49.033931 26.507903zM487.881222 4.351619L79.625388 211.522825a30.262241 30.262241 0 0 0 0 53.129573l408.255834 230.322958c10.295988 5.830601 22.867332 5.830601 33.16332 0l405.582289-230.322958a30.262241 30.262241 0 0 0 0-53.129573L521.0161 4.351619a33.73216 33.73216 0 0 0-33.16332 0z" p-id="3544"></path></svg>