<?xml version="1.0" standalone="no"?><!DOCTYPE svg PUBLIC "-//W3C//DTD SVG 1.1//EN" "http://www.w3.org/Graphics/SVG/1.1/DTD/svg11.dtd"><svg t="1563850301574" class="icon" viewBox="0 0 1024 1024" version="1.1" xmlns="http://www.w3.org/2000/svg" p-id="21816" xmlns:xlink="http://www.w3.org/1999/xlink" width="200" height="200"><defs><style type="text/css"></style></defs><path d="M679.413406 45.033659c-156.304905 0-283.008632 126.702704-283.008632 283.008632 0 17.7165 1.641383 35.035958 4.754281 51.846832L56.796052 724.253148l0 169.805384c0 31.273261 25.328875 56.602136 56.602136 56.602136l56.602136 0 0-56.603159 113.202225 0L283.202549 780.855284l113.203248 0L396.405797 667.652036l84.146469 0c27.922956-117.059066 133.172045-204.086142 258.789021-204.086142 57.558927 0 110.839411 18.273179 154.369833 49.330522 42.815131-49.590442 68.710918-114.196879 68.710918-184.855148C962.422038 171.735339 835.720358 45.033659 679.413406 45.033659zM764.203534 328.153832c-46.895053 0-84.902692-38.007639-84.902692-84.902692 0-46.89403 38.007639-84.902692 84.902692-84.902692 46.89403 0 84.902692 38.008662 84.902692 84.902692C849.106226 290.147216 811.097564 328.153832 764.203534 328.153832z" p-id="21817"></path><path d="M952.278004 684.147732 910.091182 684.147732c-3.974521-8.568143-9.614985-26.39209-16.829294-39.093367l29.795607-28.954449c9.408277-9.408277 9.416464-24.208355 0.017396-33.598212l-34.009582-33.80492c-9.391904-9.393951-24.619724-9.29162-34.028001 0.11154l-28.133757 29.835516c-12.681834-7.205099-30.504758-12.801561-39.073924-16.777105l0-42.179658c0-13.298887-14.087856-24.060999-27.361161-24.060999l-48.099485 0c-13.281491 0-27.369348 10.762111-27.369348 24.060999l0 42.187845c-8.569166 3.975545-26.38288 9.614985-39.08211 16.822131l-28.964682-29.795607c-9.407254-9.4093-24.215518-9.4093-33.600259-0.01842l-33.80492 34.020838c-9.383718 9.381671-9.296737 24.609491 0.112564 34.028001l29.845749 28.130687c-7.216355 12.69923-12.802584 30.514991-16.779152 39.08518L520.549212 684.147732c-13.308097 0-24.070208 14.086833-24.070208 27.359115l0 48.097438c0 13.275351 10.763135 27.371394 24.070208 27.371394l42.185798 0c3.976568 8.570189 9.624195 26.383904 16.821107 39.083134l-29.79356 28.972868c-9.4093 9.407254-9.4093 24.197098-0.017396 33.589003l34.009582 33.815153c9.381671 9.379625 24.618701 9.28548 34.029024-0.121773l28.130687-29.845749c12.69923 7.209192 30.512944 12.803607 39.08211 16.778128l0 42.185798c0 13.298887 14.087856 24.064069 27.361161 24.064069l48.099485 0c13.272281 0 27.369348-10.765181 27.369348-24.071232l0-42.185798c8.569166-3.977591 26.381857-9.621125 39.090297-16.82827l28.965705 29.79356c9.407254 9.4093 24.198122 9.4093 33.590026 0.016373l33.81413-34.008558c9.383718-9.391904 9.286504-24.62177-0.12075-34.026978l-29.846772-28.132734c7.207146-12.701277 12.803607-30.505781 16.778128-39.07597l42.188868 0c13.297864 0 24.062022-14.08888 24.062022-27.361161l0-48.099485C976.348212 698.233542 965.586101 684.147732 952.278004 684.147732zM736.414631 843.763033c-59.769268 0-108.22077-48.449455-108.22077-108.210537 0-59.771315 48.451502-108.218724 108.22077-108.218724 59.778478 0 108.219747 48.447409 108.219747 108.218724C844.633355 795.313577 796.193109 843.763033 736.414631 843.763033z" p-id="21818"></path></svg>