<?xml version="1.0" standalone="no"?><!DOCTYPE svg PUBLIC "-//W3C//DTD SVG 1.1//EN" "http://www.w3.org/Graphics/SVG/1.1/DTD/svg11.dtd"><svg t="1545633899485" class="icon" style="" viewBox="0 0 1024 1024" version="1.1" xmlns="http://www.w3.org/2000/svg" p-id="12269" xmlns:xlink="http://www.w3.org/1999/xlink" width="200" height="200"><defs><style type="text/css"></style></defs><path d="M755.2 839.68a34.304 34.304 0 1 1 36.352-34.304 34.816 34.816 0 0 1-36.352 34.304m-116.736 0a34.304 34.304 0 1 1 36.352-34.304 34.816 34.816 0 0 1-36.352 34.304z m-416.256-68.096h204.8v68.096h-204.8z m-55.296-81.92h-61.44v190.976a41.472 41.472 0 0 0 44.032 40.96h729.6a42.496 42.496 0 0 0 44.032-40.96v-190.976z m589.824-436.736A37.376 37.376 0 0 1 716.8 220.16a36.864 36.864 0 0 1 34.816-35.328 37.376 37.376 0 0 1 37.888 32.768 35.84 35.84 0 0 1-32.768 35.328z m-116.736 0a39.936 39.936 0 0 1-33.792-16.384 32.256 32.256 0 0 1 0-34.304 37.376 37.376 0 0 1 68.608 14.848 33.792 33.792 0 0 1-34.816 35.84zM222.208 184.32h204.8v68.608h-204.8zM861.696 102.4H167.936a59.904 59.904 0 0 0-61.44 57.344v175.104h819.2V159.744A61.952 61.952 0 0 0 861.696 102.4zM222.208 484.864h204.8v68.096h-204.8z m414.72 0a36.864 36.864 0 0 1 33.792 20.48 31.744 31.744 0 0 1-7.168 36.864 41.472 41.472 0 0 1-39.424 8.192 35.84 35.84 0 0 1-23.552-31.232 36.864 36.864 0 0 1 36.352-34.304z m116.736 0a37.376 37.376 0 0 1 37.888 32.768 36.864 36.864 0 0 1-34.816 35.328 37.376 37.376 0 0 1-37.888-32.768 35.84 35.84 0 0 1 34.816-35.328zM105.472 634.88H921.6V402.944H102.4z" p-id="12270"></path></svg>