<?xml version="1.0" standalone="no"?><!DOCTYPE svg PUBLIC "-//W3C//DTD SVG 1.1//EN" "http://www.w3.org/Graphics/SVG/1.1/DTD/svg11.dtd"><svg t="1621308463488" class="icon" viewBox="0 0 1024 1024" version="1.1" xmlns="http://www.w3.org/2000/svg" p-id="5638" xmlns:xlink="http://www.w3.org/1999/xlink" width="200" height="200"><defs><style type="text/css"></style></defs><path d="M161.65154425 428.88508836h700.76587891c18.31631465 0 27.28908385-27.65985938 14.08947263-43.45490008L676.65884858 148.28211623C663.75585809 132.9320066 642.25087323 144.20358456 642.25087323 166.4501205V302.89554047c0 13.86700746-9.04692473 25.21274026-20.3185027 25.21274025H161.65154425c-11.27157797 0-20.3185027 11.27157797-20.31850272 25.21274097v50.42548124c0 13.86700746 9.04692473 25.21274026 20.31850272 25.21274025z m700.76587891 166.18162222H161.65154425c-18.31631465 0-27.36323939 27.65985938-14.08947266 43.45490009L347.41011882 875.74383753c12.82883567 15.27595479 34.33382053 3.9302213 34.3338198-18.2421591V721.13041401c0-13.86700746 9.12107955-25.21274026 20.39265825-25.21274098h460.3549811c11.27157797 0 20.3185027-11.27157797 20.31850271-25.21274025v-50.42548123c-0.07415482-13.86700746-9.1952351-25.21274026-20.39265752-25.21274098z" p-id="5639"></path></svg>