<?xml version="1.0" standalone="no"?><!DOCTYPE svg PUBLIC "-//W3C//DTD SVG 1.1//EN" "http://www.w3.org/Graphics/SVG/1.1/DTD/svg11.dtd"><svg t="1575771663121" class="icon" viewBox="0 0 1024 1024" version="1.1" xmlns="http://www.w3.org/2000/svg" p-id="4059" xmlns:xlink="http://www.w3.org/1999/xlink" width="200" height="200"><defs><style type="text/css"></style></defs><path d="M681.386667 258.986667V162.773333a54.186667 54.186667 0 0 0-48-48H369.066667a53.333333 53.333333 0 0 0-48 48v96.213334H177.066667a79.36 79.36 0 0 0-72.106667 71.893333v120.106667H921.6v-120.106667a78.08 78.08 0 0 0-72.106667-71.893333z m-72.106667 0H393.173333V210.773333a21.333333 21.333333 0 0 1 23.893334-23.893333h168.106666a22.613333 22.613333 0 0 1 24.106667 23.893333v48.213334zM512 594.346667c47.36 0 49.066667-58.24 49.066667-95.36h-119.893334c0 29.866667 0 96.213333 48 96.213333 0 0 13.226667-0.853333 22.826667-0.853333z m97.066667-95.36s37.973333 144.213333-108.16 144.213333c-150.826667 0-107.946667-144.213333-107.946667-144.213333H104.96v336.213333a74.24 74.24 0 0 0 72.106667 72.106667h672.426666a73.6 73.6 0 0 0 72.106667-72.106667V498.986667z" p-id="4060"></path></svg>