<?xml version="1.0" standalone="no"?><!DOCTYPE svg PUBLIC "-//W3C//DTD SVG 1.1//EN" "http://www.w3.org/Graphics/SVG/1.1/DTD/svg11.dtd"><svg t="1657423249093" class="icon" viewBox="0 0 1024 1024" version="1.1" xmlns="http://www.w3.org/2000/svg" p-id="14268" xmlns:xlink="http://www.w3.org/1999/xlink" width="200" height="200"><defs><style type="text/css"></style></defs><path d="M832 320c0-70.6-57.4-128-128-128s-128 57.4-128 128c0 47.4 25.8 88.6 64 110.8v17.2c0 39.8-15.6 67.4-50.6 89.8-30.8 19.6-76.2 34.2-135 43-28 4.2-51.4 12-70.4 21.4V302.8c38.2-22.2 64-63.4 64-110.8 0-70.6-57.4-128-128-128S192 121.4 192 192c0 47.4 25.8 88.6 64 110.8v418.4c-38.2 22.2-64 63.4-64 110.8 0 70.6 57.4 128 128 128s128-57.4 128-128c0-33.2-12.6-63.4-33.4-86.2 3.8-9.8 19.4-32.6 58.8-38.6 77.6-11.6 137.8-31.8 184.6-61.6 72-45.6 110-114 110-197.6v-17.2c38.2-22.2 64-63.4 64-110.8zM320 112c44.2 0 80 35.8 80 80s-35.8 80-80 80-80-35.8-80-80 35.8-80 80-80z m0 800c-44.2 0-80-35.8-80-80s35.8-80 80-80 80 35.8 80 80-35.8 80-80 80z m384-512c-44.2 0-80-35.8-80-80s35.8-80 80-80 80 35.8 80 80-35.8 80-80 80z" p-id="14269"></path></svg>