<?xml version="1.0" standalone="no"?><!DOCTYPE svg PUBLIC "-//W3C//DTD SVG 1.1//EN" "http://www.w3.org/Graphics/SVG/1.1/DTD/svg11.dtd"><svg t="1631689593631" class="icon" viewBox="0 0 1024 1024" version="1.1" xmlns="http://www.w3.org/2000/svg" p-id="10715" xmlns:xlink="http://www.w3.org/1999/xlink" width="200" height="200"><defs><style type="text/css"></style></defs><path d="M509.001623 513.842376m-424.758061 0a424.758061 424.758061 0 1 0 849.516122 0 424.758061 424.758061 0 1 0-849.516122 0Z" fill="#E9EAEB" p-id="10716"></path><path d="M16.328512 734.710788h152.881112v33.957525H16.328512zM16.328512 615.787201h152.881112v33.957525H16.328512zM16.328512 496.863614h152.881112v33.957525H16.328512zM16.328512 377.940027h152.881112v33.957525H16.328512zM16.328512 259.01644h152.881112v33.957525H16.328512zM848.793622 734.710788h152.881112v33.957525h-152.881112zM848.793622 615.787201h152.881112v33.957525h-152.881112zM848.793622 496.863614h152.881112v33.957525h-152.881112zM848.793622 377.940027h152.881112v33.957525h-152.881112zM848.793622 259.01644h152.881112v33.957525h-152.881112zM254.175686 853.634375h33.957525v152.881112h-33.957525zM373.099273 853.634375h33.957525v152.881112h-33.957525zM492.02286 853.634375h33.957525v152.881112h-33.957525zM610.946447 853.634375h33.957525v152.881112h-33.957525zM729.870035 853.634375h33.957524v152.881112h-33.957524zM254.175686 21.169266h33.957525v152.881111h-33.957525zM373.099273 21.169266h33.957525v152.881111h-33.957525zM492.02286 21.169266h33.957525v152.881111h-33.957525zM610.946447 21.169266h33.957525v152.881111h-33.957525zM729.870035 21.169266h33.957524v152.881111h-33.957524z" fill="#2A5082" p-id="10717"></path><path d="M186.188386 191.02914h645.554223v645.554223H186.188386z" fill="#A3D4FF" p-id="10718"></path><path d="M848.793622 853.634375H169.209624V174.050377h679.583998z m-645.554223-33.957525h611.596698V208.080152H203.167149z" fill="#2A5082" p-id="10719"></path><path d="M407.056798 411.897552h203.889649v203.889649H407.056798z" fill="#FFFFFF" p-id="10720"></path><path d="M627.92521 632.765963H390.150286V394.918789h237.774924z m-203.889649-33.957524h169.932124V428.876314H424.035561zM322.090736 428.876314h33.957525v33.957525h-33.957525zM322.090736 496.863614h33.957525v33.957525h-33.957525zM322.090736 564.850914h33.957525v33.957525h-33.957525zM661.882735 428.876314h33.957525v33.957525h-33.957525zM661.882735 496.863614h33.957525v33.957525h-33.957525zM661.882735 564.850914h33.957525v33.957525h-33.957525zM424.035561 327.00374h33.957524v33.957524h-33.957524zM492.02286 327.00374h33.957525v33.957524h-33.957525zM559.93791 327.00374h33.957525v33.957524h-33.957525zM424.035561 666.723488h33.957524v33.957525h-33.957524zM492.02286 666.723488h33.957525v33.957525h-33.957525zM559.93791 666.723488h33.957525v33.957525h-33.957525z" fill="#2A5082" p-id="10721"></path></svg>