<?xml version="1.0" standalone="no"?><!DOCTYPE svg PUBLIC "-//W3C//DTD SVG 1.1//EN" "http://www.w3.org/Graphics/SVG/1.1/DTD/svg11.dtd"><svg t="1667293457240" class="icon" viewBox="0 0 1024 1024" version="1.1" xmlns="http://www.w3.org/2000/svg" p-id="2299" xmlns:xlink="http://www.w3.org/1999/xlink" width="200" height="200"><path d="M831.825 63.94H191.94c-70.692 0-128 57.308-128 128v639.885c0 70.692 57.308 128 128 128h639.885c70.692 0 128-57.308 128-128V191.94c0-70.692-57.308-128-128-128zM895.885 832a63.835 63.835 0 0 1-63.973 63.886H192.088c-17.112 0-33.27-6.575-45.372-18.676s-18.836-28.098-18.836-45.21V192a64.236 64.236 0 0 1 64.208-64.12h639.824A64.038 64.038 0 0 1 895.885 192V832z" p-id="2300"></path><path d="M791.998 351.852H536a31.97 31.97 0 0 0 0 63.94h256a31.97 31.97 0 0 0 0-63.94z m0 256.121H536a31.97 31.97 0 0 0 0 63.94h256a31.97 31.97 0 0 0 0-63.94z m-447.996-79.975c-61.856 0-111.986 50.144-111.986 111.985S282.16 751.97 344.002 751.97s111.985-50.144 111.985-111.986-50.13-111.985-111.985-111.985z m33.982 145.982a48.045 48.045 0 1 1 14.088-33.982 47.746 47.746 0 0 1-14.088 33.986z m39.412-376.586L311.999 402.787l-41.391-41.395a31.97 31.97 0 1 0-45.213 45.213l63.997 64.002a31.97 31.97 0 0 0 45.214 0l128-128a31.97 31.97 0 0 0-45.21-45.213z" p-id="2301"></path></svg>