<?xml version="1.0" standalone="no"?><!DOCTYPE svg PUBLIC "-//W3C//DTD SVG 1.1//EN" "http://www.w3.org/Graphics/SVG/1.1/DTD/svg11.dtd"><svg t="1592706144854" class="icon" viewBox="0 0 1024 1024" version="1.1" xmlns="http://www.w3.org/2000/svg" p-id="2125" xmlns:xlink="http://www.w3.org/1999/xlink" width="200" height="200"><defs><style type="text/css"></style></defs><path d="M512.000128 282.496c-171.4176 0-310.8608 138.5984-310.8608 308.9664 0 170.368 139.4432 308.9664 310.8608 308.9664 171.4176 0 310.8608-138.5984 310.8608-308.992 0-170.3424-139.4432-308.9408-310.8608-308.9408z m54.1696 339.328l-0.1792-0.3584a62.0544 62.0544 0 0 1-116.1728-30.0032c0-21.5552 11.008-40.448 27.7248-51.3792l-0.1792-0.3584 204.9792-116.5312-116.1728 198.656zM849.484928 318.464l39.3216-39.0912a17.5616 17.5616 0 0 0 0-24.96l-37.6576-37.4528a17.8176 17.8176 0 0 0-25.1392 0L786.688128 256a434.3552 434.3552 0 0 0-230.272-94.8736V88.2688h53.2736c19.6352 0 35.5328-15.7952 35.5328-35.3024v-17.664c0-19.5072-15.872-35.3024-35.5328-35.3024h-195.3792c-19.6352 0-35.5328 15.7952-35.5328 35.328v17.6384c0 19.5072 15.872 35.328 35.5328 35.328h53.2736v72.832A434.6368 434.6368 0 0 0 237.312128 256L197.990528 216.9088a17.8176 17.8176 0 0 0-25.1392 0L135.193728 254.3616a17.5616 17.5616 0 0 0 0 24.96l39.3216 39.0912A429.1072 429.1072 0 0 0 76.800128 591.4368C76.800128 830.3104 271.667328 1024 512.000128 1024s435.2-193.6896 435.2-432.5632c0-103.5264-36.6336-198.528-97.7152-272.9984zM512.000128 935.7312c-190.976 0-346.368-154.4704-346.368-344.2688C165.632128 401.664 321.024128 247.168 512.000128 247.168c190.976 0 346.368 154.496 346.368 344.2944S702.976128 935.7312 512.000128 935.7312z" p-id="2126"></path></svg>