<svg width="1em" height="1em" viewBox="0 0 24 24" fill="none" xmlns="http://www.w3.org/2000/svg" data-icon="LarkLogoColorful"><path d="m12.924 12.803.056-.054c.038-.034.076-.072.11-.11l.077-.076.23-.227 1.334-1.319.335-.33c.063-.064.13-.124.195-.184a7.84 7.84 0 0 1 1.271-.943 7.138 7.138 0 0 1 1.096-.533 5.25 5.25 0 0 1 .47-.164 13.177 13.177 0 0 0-2.5-5.013 1.203 1.203 0 0 0-.94-.448h-9.65c-.173 0-.246.224-.107.325a28.23 28.23 0 0 1 8 9.098c.007-.006.016-.012.023-.022Z" fill="#00D6B9"></path><path d="M9.097 21.299a13.258 13.258 0 0 0 11.821-7.247 5.561 5.561 0 0 1-.899 1.259c-.117.12-.237.236-.363.344-.07.06-.142.116-.214.173-.085.066-.174.13-.262.186a5.22 5.22 0 0 1-.354.218 4.624 4.624 0 0 1-.726.331 5.319 5.319 0 0 1-1.883.312 5.888 5.888 0 0 1-.523-.031 6.551 6.551 0 0 1-.729-.126c-.06-.016-.12-.029-.18-.044a22.917 22.917 0 0 1-.495-.14c-.082-.024-.164-.046-.246-.072-.123-.038-.246-.072-.366-.11l-.3-.095-.284-.094-.192-.067c-.08-.025-.155-.053-.234-.082a3.49 3.49 0 0 1-.167-.06c-.11-.04-.22-.079-.328-.12-.063-.025-.126-.047-.19-.072l-.252-.098c-.088-.035-.18-.07-.268-.107l-.173-.07c-.073-.028-.142-.06-.215-.088l-.164-.07c-.057-.024-.114-.05-.17-.075l-.149-.066-.135-.06-.139-.063a90.276 90.276 0 0 1-.322-.149c-.063-.028-.123-.06-.186-.088a5.697 5.697 0 0 1-.199-.098 27.762 27.762 0 0 1-8.067-5.969.18.18 0 0 0-.312.123l.006 9.21c0 .4.2.779.534 1a13.177 13.177 0 0 0 7.325 2.205Z" fill="#3370FF"></path><path d="M23.732 9.295a7.55 7.55 0 0 0-3.35-.776 7.52 7.52 0 0 0-2.06.284l-.224.066c-.054.016-.108.035-.158.05a8.294 8.294 0 0 0-.855.35 7.3 7.3 0 0 0-.552.297 6.699 6.699 0 0 0-.533.347 9.88 9.88 0 0 0-.363.275c-.13.104-.253.211-.376.322-.066.06-.129.123-.195.183l-.335.328-1.337 1.322-.23.227-.076.075c-.038.038-.076.073-.11.11l-.057.055a1.911 1.911 0 0 1-.086.078l-.094.089a13.285 13.285 0 0 1-2.748 1.946 193.508 193.508 0 0 1 .322.148c.044.023.091.042.139.064l.135.06.149.066.17.076.164.069c.072.031.142.06.214.088.057.026.117.048.174.07.088.034.177.072.268.107l.252.098c.063.025.127.047.19.072.11.041.217.082.328.12.057.02.11.041.167.06l.234.082.192.066.284.095.3.095c.123.038.242.075.365.11.083.025.165.047.247.073.164.047.33.094.495.138.06.016.12.032.18.045.113.028.227.05.34.07.13.021.26.04.389.056a5.767 5.767 0 0 0 .994.019 5.05 5.05 0 0 0 .438-.05 5.123 5.123 0 0 0 .975-.25 5.383 5.383 0 0 0 .726-.334c.06-.035.122-.07.182-.108a7.712 7.712 0 0 0 .432-.296c.073-.057.146-.114.215-.174a5.29 5.29 0 0 0 .363-.343 5.222 5.222 0 0 0 .37-.43 5.823 5.823 0 0 0 .527-.827l.128-.258 1.167-2.325-.003.006a7.393 7.393 0 0 1 1.527-2.186Z" fill="#133C9A"></path></svg>