<?xml version="1.0" standalone="no"?><!DOCTYPE svg PUBLIC "-//W3C//DTD SVG 1.1//EN" "http://www.w3.org/Graphics/SVG/1.1/DTD/svg11.dtd"><svg t="1625654565212" class="icon" viewBox="0 0 1024 1024" version="1.1" xmlns="http://www.w3.org/2000/svg" p-id="2651" xmlns:xlink="http://www.w3.org/1999/xlink" width="200" height="200"><defs><style type="text/css"></style></defs><path d="M972.8 249.856h-14.336l-0.512-108.032c0-25.6-20.992-45.568-46.08-45.568l-413.184 2.56h-3.584l-23.552-25.088c-9.728-10.24-23.04-16.384-37.376-16.384l-381.952-0.512C24.064 56.832 1.536 79.36 1.024 107.52L0 914.432c0 13.824 5.12 26.624 14.848 36.352 9.728 9.728 22.528 14.848 36.352 15.36l921.088 1.024c28.16 0 51.2-22.528 51.2-51.2l0.512-614.912c0-28.16-23.04-50.688-51.2-51.2z m-105.984-61.44l0.512 61.44-232.96-0.512-55.296-59.392 287.744-1.536zM921.088 865.28L102.4 864.256 108.032 158.72l303.616 0.512 162.816 176.128c9.728 10.24 23.04 16.384 37.376 16.384l310.272 0.512-1.024 513.024z" p-id="2652"></path><path d="M531.968 441.344c-9.216 1.536-17.408 7.168-22.528 15.36-9.728 15.872-6.144 36.864 8.192 48.128l28.16 22.016-183.808 1.024c-18.432 0-33.28 16.384-33.28 35.84s15.36 35.328 33.792 35.328l284.16-1.536c18.432 0 33.28-16.384 33.28-35.84 0-9.728-4.096-18.944-10.752-25.6-1.536-2.048-3.584-4.096-5.632-5.632l-106.496-82.944c-7.168-5.632-15.872-7.68-25.088-6.144zM647.168 639.488l-283.648 2.048c-18.432 0-33.28 16.384-33.28 35.84 0 9.728 4.096 18.944 10.752 25.6 1.536 2.048 3.584 4.096 5.632 5.632l106.496 82.944c5.632 4.608 12.8 6.656 19.968 6.656 11.264 0 21.504-6.144 27.648-15.872 4.608-7.68 6.656-16.896 5.12-25.6-1.536-9.216-6.144-17.408-13.312-22.528l-28.16-22.016 183.808-1.024c18.432 0 33.28-16.384 33.28-35.84-1.024-19.968-15.872-35.84-34.304-35.84z" p-id="2653"></path></svg>