<?xml version="1.0" standalone="no"?><!DOCTYPE svg PUBLIC "-//W3C//DTD SVG 1.1//EN" "http://www.w3.org/Graphics/SVG/1.1/DTD/svg11.dtd"><svg t="1657421858933" class="icon" viewBox="0 0 1024 1024" version="1.1" xmlns="http://www.w3.org/2000/svg" p-id="12797" xmlns:xlink="http://www.w3.org/1999/xlink" width="200" height="200"><defs><style type="text/css"></style></defs><path d="M981.333333 469.333333h-260.266666c-21.333333-98.133333-106.666667-170.666667-209.066667-170.666666s-187.733333 72.533333-209.066667 170.666666H42.666667c-25.6 0-42.666667 17.066667-42.666667 42.666667s17.066667 42.666667 42.666667 42.666667h260.266666c21.333333 98.133333 106.666667 170.666667 209.066667 170.666666s187.733333-72.533333 209.066667-170.666666H981.333333c25.6 0 42.666667-17.066667 42.666667-42.666667s-21.333333-42.666667-42.666667-42.666667z m-469.333333 170.666667c-72.533333 0-128-55.466667-128-128s55.466667-128 128-128 128 55.466667 128 128-55.466667 128-128 128z" p-id="12798"></path></svg>