<?xml version="1.0" standalone="no"?><!DOCTYPE svg PUBLIC "-//W3C//DTD SVG 1.1//EN" "http://www.w3.org/Graphics/SVG/1.1/DTD/svg11.dtd"><svg t="1545633058017" class="icon" style="" viewBox="0 0 1025 1024" version="1.1" xmlns="http://www.w3.org/2000/svg" p-id="1193" xmlns:xlink="http://www.w3.org/1999/xlink" width="200.1953125" height="200"><defs><style type="text/css"></style></defs><path d="M867.2672 561.792c-81.216-66.496-162.048-133.376-243.072-200.128C586.9472 331.008 549.6992 300.352 512.3872 269.568c-3.264 2.368-6.016 4.288-8.64 6.4C387.2032 372.096 270.5312 468.16 154.2432 564.608 149.9552 568.192 146.9472 575.936 146.8832 581.76c-0.448 97.344-0.384 194.752-0.256 292.096 0 30.208 15.936 45.824 46.464 45.824 74.944 0.064 149.824 0 224.768 0 4.032 0 8.064-0.448 13.184-0.768 0-81.344 0-161.6 0-242.432 54.336 0 107.52 0 161.856 0 0 80.576 0 160.896 0 243.264 6.144 0 10.24 0 14.4 0 74.112 0 148.16 0 222.272 0 32.768 0 47.936-15.232 47.936-48.32 0.064-95.68-0.128-191.36 0.192-286.976C877.7632 574.592 874.8832 568.128 867.2672 561.792z" p-id="1194"></path><path d="M1009.7312 495.808c-38.08-31.68-75.776-63.808-114.56-94.592-13.184-10.432-18.24-21.12-18.048-38.208 1.024-76.608 0.512-153.28 0.448-229.888 0-18.624-5.888-26.176-21.504-26.304-39.808-0.32-79.616-0.32-119.424 0-14.016 0.128-20.8 7.04-21.312 21.312-0.512 12.672-0.192 25.408-0.192 38.08 0 27.008 0 54.016 0 84.032-6.4-5.12-9.984-7.936-13.504-10.88-44.16-36.928-88.32-73.856-132.544-110.784C530.2432 96.256 493.9552 96.192 455.0432 128.576 374.0192 195.968 293.0592 263.488 212.0352 330.944 146.3712 385.664 80.7072 440.448 14.9792 495.168-4.0288 511.04-4.6688 519.04 11.5232 538.24c9.28 11.008 18.432 22.08 27.712 33.088 13.888 16.448 23.04 17.28 39.552 3.456 108.864-90.816 217.728-181.76 326.656-272.576C440.7712 272.704 476.2272 243.2 512.0032 213.376c35.712 29.76 70.848 59.008 105.92 88.256 109.184 91.136 218.432 182.272 327.616 273.408 16.32 13.632 25.408 12.672 39.424-3.968 9.536-11.328 19.008-22.72 28.544-34.048C1028.4192 519.296 1027.6512 510.72 1009.7312 495.808z" p-id="1195"></path></svg>