<?xml version="1.0" standalone="no"?><!DOCTYPE svg PUBLIC "-//W3C//DTD SVG 1.1//EN" "http://www.w3.org/Graphics/SVG/1.1/DTD/svg11.dtd"><svg t="1657339864804" class="icon" viewBox="0 0 1024 1024" version="1.1" xmlns="http://www.w3.org/2000/svg" p-id="4316" xmlns:xlink="http://www.w3.org/1999/xlink" width="200" height="200"><defs><style type="text/css"></style></defs><path d="M783.74 366.41H658.37V239.48c0-97.57-79.38-176.95-176.95-176.95H240.26c-97.57 0-176.95 79.38-176.95 176.95v241.16c0 97.57 79.38 176.95 176.95 176.95h125.37v126.93c0 97.57 79.38 176.95 176.95 176.95h241.16c97.57 0 176.95-79.38 176.95-176.95V543.36c0-97.57-79.38-176.95-176.95-176.95zM138.22 480.64V239.48c0-56.26 45.77-102.04 102.04-102.04h241.16c56.26 0 102.04 45.77 102.04 102.04v241.16c0 56.26-45.77 102.04-102.04 102.04H240.26c-56.27 0-102.04-45.77-102.04-102.04z m747.56 303.88c0 56.26-45.77 102.04-102.04 102.04H542.58c-56.26 0-102.04-45.77-102.04-102.04V657.59h40.88c97.57 0 176.95-79.38 176.95-176.95v-39.32h125.37c56.26 0 102.04 45.77 102.04 102.04v241.16zM724.28 174.93c65.16 18.59 119.1 64.64 148 126.35 6.37 13.6 19.86 21.58 33.95 21.58 5.32 0 10.72-1.14 15.86-3.54 18.74-8.77 26.81-31.07 18.04-49.81-38.09-81.36-109.27-142.09-195.29-166.63-19.9-5.68-40.62 5.85-46.29 25.75-5.69 19.89 5.83 40.62 25.73 46.3zM298.98 865.78c-65.16-18.59-119.1-64.64-147.99-126.35-8.77-18.74-31.07-26.81-49.81-18.04-18.74 8.77-26.81 31.07-18.04 49.8 38.09 81.36 109.27 142.09 195.29 166.63 3.43 0.98 6.89 1.45 10.29 1.45 16.31 0 31.31-10.73 36-27.19 5.68-19.9-5.84-40.62-25.74-46.3z" p-id="4317"></path><path d="M418.59 466.75c47.2 0 85.6-38.4 85.6-85.6v-28.97c0-47.2-38.4-85.6-85.6-85.6H392.4v-23.41c0-20.69-16.77-37.46-37.46-37.46s-37.46 16.77-37.46 37.46v23.41h-19.17c-47.2 0-85.6 38.4-85.6 85.6v28.97c0 47.2 38.4 85.6 85.6 85.6h19.17v11.16c0 20.69 16.77 37.46 37.46 37.46s37.46-16.77 37.46-37.46v-11.16h26.19z m0-125.24c5.79 0 10.68 4.89 10.68 10.68v28.97c0 5.79-4.89 10.68-10.68 10.68H392.4v-50.33h26.19z m-120.27 50.33c-5.79 0-10.68-4.89-10.68-10.68v-28.97c0-5.79 4.89-10.68 10.68-10.68h19.17v50.33h-19.17zM736.99 578.24c-6.25-13.94-20.35-22.69-35.6-22.11-15.26 0.58-28.65 10.37-33.82 24.74L593 787.98c-7.01 19.46 3.09 40.92 22.55 47.93 4.19 1.51 8.47 2.22 12.69 2.22 15.35 0 29.75-9.51 35.24-24.78l4.4-12.22h86.91l6.66 14.85c8.46 18.88 30.62 27.32 49.5 18.86s27.32-30.62 18.86-49.5l-92.82-207.1z m-42.14 147.98l11.74-32.61 14.62 32.61h-26.36z" p-id="4318"></path></svg>