<?xml version="1.0" standalone="no"?><!DOCTYPE svg PUBLIC "-//W3C//DTD SVG 1.1//EN" "http://www.w3.org/Graphics/SVG/1.1/DTD/svg11.dtd"><svg t="1651288933265" class="icon" viewBox="0 0 1024 1024" version="1.1" xmlns="http://www.w3.org/2000/svg" p-id="23118" xmlns:xlink="http://www.w3.org/1999/xlink" width="200" height="200"><defs><style type="text/css">@font-face { font-family: feedback-iconfont; src: url("//at.alicdn.com/t/font_1031158_u69w8yhxdu.woff2?t=1630033759944") format("woff2"), url("//at.alicdn.com/t/font_1031158_u69w8yhxdu.woff?t=1630033759944") format("woff"), url("//at.alicdn.com/t/font_1031158_u69w8yhxdu.ttf?t=1630033759944") format("truetype"); }
</style></defs><path d="M0 0h1024v1024H0z" fill="#FFFFFF" p-id="23119"></path><path d="M785.09056 297.86112l-0.01024-176.40448-253.61408 87.18336 253.62432 89.22112zM499.3024 197.64224L232.58112 102.4v184.1664l266.72128-88.92416zM334.1824 337.37728l44.46208-12.70784v53.97504l95.26272-34.9184v171.4688l-38.11328 12.6976v-25.38496l-63.50848 25.38496 0.27648 95.41632-38.37952 12.55424-0.28672-94.44352-63.21152 24.576 0.01024 19.05664-38.12352 12.6976 0.01024-171.45856 101.60128-31.75424v-57.15968z m101.61152 60.33408l-57.14944 22.2208v63.50848l57.14944-19.05664v-66.67264zM270.68416 521.54368l63.50848-22.23104-0.01024-66.67264-63.49824 22.2208v66.68288z m247.67488-308.40832l-342.9376 117.88288v469.9648l342.9376-114.3296V213.13536z m9.55392 489.41056c-123.38176 41.30816-248.24832 82.5344-371.54816 123.83232l-0.01024-508.0576L804.1472 102.4v202.16832l63.50848 20.10112-0.01024 489.0112-339.73248-111.13472z m266.6496-20.1728c-14.92992-53.98528-29.9008-108.19584-44.9024-162.54976-15.0528-54.49728-30.11584-109.24032-45.2608-164.15744-16.22016-6.28736-32.48128-12.60544-48.81408-18.944-14.85824 43.61216-29.76768 87.36768-44.6976 131.21536l-45.056 132.28032c16.57856 5.96992 33.16736 11.9296 49.68448 17.85856 6.4-20.1728 12.8-40.36608 19.18976-60.54912 30.49472 11.1616 60.9792 22.3232 91.46368 33.47456 6.5024 24.65792 12.99456 49.28512 19.51744 73.8304 16.32256 5.86752 32.63488 11.70432 48.87552 17.54112zM711.30112 535.8592c-10.5472-40.2944-21.10464-80.59904-31.58016-120.90368-10.31168 32.5632-20.60288 65.14688-30.90432 97.73056 20.8384 7.71072 41.65632 15.45216 62.48448 23.17312z m-30.53568 312.10496c-121.21088 75.776-241.60256 85.18656-365.38368 6.51264l-6.62528 10.35264c118.45632 75.264 236.3392 74.07616 357.65248 6.01088 7.10656-4.03456 14.08-8.192 20.992-12.51328L701.44 880.25088l31.87712-58.5728-66.53952 4.42368 13.98784 21.8624z" p-id="23120"></path></svg>