<?xml version="1.0" standalone="no"?><!DOCTYPE svg PUBLIC "-//W3C//DTD SVG 1.1//EN" "http://www.w3.org/Graphics/SVG/1.1/DTD/svg11.dtd"><svg t="1545633841664" class="icon" style="" viewBox="0 0 1024 1024" version="1.1" xmlns="http://www.w3.org/2000/svg" p-id="10675" xmlns:xlink="http://www.w3.org/1999/xlink" width="200" height="200"><defs><style type="text/css"></style></defs><path d="M384 320l512 0c38.4 0 64-25.6 64-64 0-38.4-25.6-64-64-64L384 192C345.6 192 320 217.6 320 256 320 294.4 345.6 320 384 320zM896 448 384 448C345.6 448 320 473.6 320 512c0 38.4 25.6 64 64 64l512 0c38.4 0 64-25.6 64-64C960 473.6 934.4 448 896 448zM896 704 384 704c-38.4 0-64 25.6-64 64 0 38.4 25.6 64 64 64l512 0c38.4 0 64-25.6 64-64C960 729.6 934.4 704 896 704zM128 192C89.6 192 64 217.6 64 256c0 38.4 25.6 64 64 64s64-25.6 64-64C192 217.6 166.4 192 128 192zM128 448C89.6 448 64 473.6 64 512c0 38.4 25.6 64 64 64s64-25.6 64-64C192 473.6 166.4 448 128 448zM128 704c-38.4 0-64 25.6-64 64 0 38.4 25.6 64 64 64s64-25.6 64-64C192 729.6 166.4 704 128 704z" p-id="10676"></path></svg>