<?xml version="1.0" standalone="no"?><!DOCTYPE svg PUBLIC "-//W3C//DTD SVG 1.1//EN" "http://www.w3.org/Graphics/SVG/1.1/DTD/svg11.dtd"><svg t="1645410396659" class="icon" viewBox="0 0 1056 1024" version="1.1" xmlns="http://www.w3.org/2000/svg" p-id="2389" xmlns:xlink="http://www.w3.org/1999/xlink" width="206.25" height="200"><defs><style type="text/css"></style></defs><path d="M10.955762 512.623801h80.286179a10.95574 10.95574 0 0 1 10.95574 10.976708v12.150911a10.95574 10.95574 0 0 1-10.95574 10.913805H10.955762A10.95574 10.95574 0 0 1 0.000023 535.709485v-12.108976a10.95574 10.95574 0 0 1 10.955739-10.976708z m0-340.309396h80.286179a10.95574 10.95574 0 0 1 10.95574 10.95574v12.182363a10.95574 10.95574 0 0 1-10.95574 10.95574H10.955762A10.95574 10.95574 0 0 1 0.000023 195.452508V183.270145a10.95574 10.95574 0 0 1 10.955739-10.95574z m0 170.207118h80.286179a10.95574 10.95574 0 0 1 10.95574 10.95574v12.150911a10.95574 10.95574 0 0 1-10.95574 10.95574H10.955762A10.95574 10.95574 0 0 1 0.000023 365.628174v-12.140427a10.95574 10.95574 0 0 1 10.955739-10.95574z m0 340.183588h80.286179a10.95574 10.95574 0 0 1 10.95574 10.95574v12.150912a10.95574 10.95574 0 0 1-10.95574 10.95574H10.955762A10.95574 10.95574 0 0 1 0.000023 705.811763v-12.140428a10.95574 10.95574 0 0 1 10.955739-10.95574z m-10.955739 0" p-id="2390"></path><path d="M815.06514 68.019954H755.159783a8.554913 8.554913 0 0 1-8.523461-7.579904A68.082847 68.082847 0 0 0 679.035737 0.00001H108.980804a76.606308 76.606308 0 0 0-76.63776 76.616792v50.826247a8.586365 8.586365 0 0 0 8.586365 8.586364h50.83673a42.65924 42.65924 0 0 1 42.690692 42.648756v25.476027a34.135779 34.135779 0 0 1-34.062391 34.062392H40.971345a8.586365 8.586365 0 0 0-8.628301 8.607332v50.836731a8.586365 8.586365 0 0 0 8.586365 8.586364h50.83673a42.65924 42.65924 0 0 1 42.65924 42.65924v16.889663a42.65924 42.65924 0 0 1-42.65924 42.65924H40.971345a8.586365 8.586365 0 0 0-8.586365 8.586364v50.826247a8.586365 8.586365 0 0 0 8.586365 8.586364h50.83673a42.65924 42.65924 0 0 1 42.65924 42.65924v25.455059a34.135779 34.135779 0 0 1-34.062391 34.072876H40.971345a8.586365 8.586365 0 0 0-8.586365 8.586364v50.952054a8.586365 8.586365 0 0 0 8.586365 8.586365h50.83673a42.65924 42.65924 0 0 1 42.65924 42.65924v25.24538a34.135779 34.135779 0 0 1-34.062391 34.062391H40.971345a8.586365 8.586365 0 0 0-8.628301 8.659752v119.034901a76.606308 76.606308 0 0 0 76.606308 76.606308h697.529423a76.606308 76.606308 0 0 0 76.606308-76.606308V136.039897a68.072363 68.072363 0 0 0-68.019943-68.009459z m-295.867883 84.689442c8.387169-14.174316 33.118835-20.496145 47.639122-12.507366l81.240219 45.500394c14.530771 8.219426 21.209054 32.164794 12.863821 46.33911L404.230133 665.783997a8.586365 8.586365 0 0 1-11.584777 3.145189l-126.751097-70.934485a8.586365 8.586365 0 0 1-3.145189-11.867845zM365.009633 708.894048l-103.067828 38.297912a8.586365 8.586365 0 0 1-11.532358-7.338774l-8.387169-100.56216a8.586365 8.586365 0 0 1 12.748497-8.208942l111.423545 62.264248a8.586365 8.586365 0 0 1-1.184687 15.547716z m450.055507 141.806065c0 37.522099-2.096792 68.009459-68.00946 68.00946H134.456831a68.145751 68.145751 0 0 1-67.29655-58.1126 8.617817 8.617817 0 0 1 8.502493-9.89686h594.671275a76.606308 76.606308 0 0 0 76.606308-76.606308V110.825969a8.607333 8.607333 0 0 1 8.701688-8.596848c33.42287 0.345971 59.307771 4.990366 59.307771 67.988491v680.482501z m0 0" p-id="2391"></path></svg>