<?xml version="1.0" standalone="no"?><!DOCTYPE svg PUBLIC "-//W3C//DTD SVG 1.1//EN" "http://www.w3.org/Graphics/SVG/1.1/DTD/svg11.dtd"><svg t="1545636191311" class="icon" style="" viewBox="0 0 1024 1024" version="1.1" xmlns="http://www.w3.org/2000/svg" p-id="17939" xmlns:xlink="http://www.w3.org/1999/xlink" width="200" height="200"><defs><style type="text/css"></style></defs><path d="M544.963765 375.371294a7.740235 7.740235 0 0 0-8.237177 6.761412 135.619765 135.619765 0 0 1-98.93647 117.940706c-72.432941 20.329412-147.877647-22.076235-168.176942-94.494118-20.314353-72.432941 22.091294-147.862588 94.494118-168.176941a135.800471 135.800471 0 0 1 164.653177 84.103529l-146.31153 41.020236a7.529412 7.529412 0 0 0 4.050824 14.486588l152.530823-42.767059a7.469176 7.469176 0 0 0 5.240471-5.677176 7.424 7.424 0 0 0 0.858353-6.249412 150.964706 150.964706 0 0 0-185.072941-99.433412c-80.429176 22.558118-127.503059 106.330353-104.944942 186.729412 18.733176 66.800941 79.691294 110.592 145.889883 110.592 13.507765 0 27.241412-1.822118 40.854588-5.647059a150.633412 150.633412 0 0 0 109.884235-130.966588 7.559529 7.559529 0 0 0-6.77647-8.222118z" p-id="17940"></path><path d="M991.096471 541.906824l-8.944942-1.249883c-3.734588-17.257412-9.200941-35.930353-19.154823-53.534117l11.324235-12.694589c9.622588-11.715765 10.435765-25.810824 2.078118-34.16847l-32.331294-32.768c-8.297412-8.342588-22.196706-8.101647-33.310118 0.542117l-15.269647 9.938824-0.045176 0.030118a192.768 192.768 0 0 0-52.389648-20.404706l-0.451764-1.822118c-1.867294-13.959529-11.685647-24.335059-23.220706-24.335059H773.12c-11.881412 0-21.940706 10.977882-23.326118 24.892235l-1.867294 12.980706V136.161882c0-22.949647-7.077647-35.764706-30.027294-35.764706H48.564706C25.615059 100.397176 10.029176 123.843765 10.029176 146.793412v471.326117c0 22.949647 15.585882 39.454118 38.53553 39.454118h277.699765v75.294118H231.002353c-6.354824 0-21.217882 0-30.373647 9.878588L151.521882 792.094118a29.575529 29.575529 0 0 0-6.189176 29.063529c3.222588 9.276235 10.752 15.510588 19.139765 16.655059a7.920941 7.920941 0 0 0 2.56 0.466823H623.887059c9.743059 0 18.266353-6.369882 21.684706-16.203294 3.373176-9.637647 0.858353-21.232941-6.339765-28.988235l-48.715294-50.432c-9.080471-9.788235-23.070118-9.788235-30.59953-9.788235h-83.06447v-75.294118h140.438588c3.749647 8.869647 8.071529 18.507294 12.333177 26.624l-13.477647 14.140235c-7.002353 8.553412-9.005176 17.709176-5.496471 25.103059 1.430588 2.996706 3.659294 5.421176 6.415059 7.062588l30.915764 34.785883c7.845647 7.830588 22.799059 10.285176 33.882353 1.174588l16.971295-13.086118a194.379294 194.379294 0 0 0 49.031529 21.232942l1.852235 13.839058c0.828235 8.161882 4.924235 34.785882 23.401412 34.785883h46.260706c18.959059 0 22.814118-28.747294 23.235765-33.460706l1.460705-8.448c16.624941-4.261647 33.807059-11.730824 52.043295-22.618353l14.08 10.691765c10.902588 8.884706 25.584941 9.110588 34.228705 0.466823l32.662589-32.963765c8.448-8.448 7.966118-23.190588-1.054118-34.273882l-10.661647-13.176471a191.668706 191.668706 0 0 0 22.964706-53.985882l3.102118-0.647529c11.414588-1.430588 27.542588-8.613647 27.542588-23.311059v-46.260706c0-15.088941-17.016471-22.272-27.888941-23.341176zM40.161882 612.487529V152.410353c0-11.474824 2.56-21.895529 20.148706-21.895529h643.026824c5.360941 0 14.471529 4.050824 14.471529 18.974117v271.480471c-6.4 2.710588-12.724706 5.737412-18.80847 9.502117l-20.058353-17.724235c-8.779294-7.198118-18.883765-8.282353-24.500706-2.620235l-33.204706 32.752941c-5.692235 5.692235-4.954353 16.128 1.701647 24.289882l16.775529 20.570353a186.639059 186.639059 0 0 0-23.190588 57.253647l-28.912941 2.816c-9.893647 0.978824-20.404706 6.957176-20.404706 16.082824v46.908235c0 9.712941 11.941647 15.254588 20.404706 16.097883l5.270588 0.527058H54.196706c-11.474824 0.030118-14.034824-3.463529-14.034824-14.938353z m519.424 150.497883c2.063059 0 8.884706 3.403294 10.601412 4.864l28.340706 27.828706-406.332235-0.496942 29.138823-28.641882c1.505882-1.114353 7.770353-3.538824 9.758118-3.538823h95.186823v4.21647c0 9.878588 5.165176 17.904941 15.058824 17.904941s15.058824-8.026353 15.058823-17.904941v-4.21647h90.352942v4.21647c0 9.878588 5.180235 17.904941 15.058823 17.904941s15.058824-8.026353 15.058824-17.904941v-4.21647h82.718117z m-112.835764-30.117647h-90.352942v-75.294118h90.352942v75.294118z m542.117647-128.165647a12.047059 12.047059 0 0 1-1.340236 0.240941 14.095059 14.095059 0 0 0-1.596235 0.256l-13.221647 2.785882a15.058824 15.058824 0 0 0-11.655529 11.760941 162.891294 162.891294 0 0 1-26.639059 61.936942 15.028706 15.028706 0 0 0 0.602353 18.130823l16.293647 20.329412-24.139294 24.350117-21.082353-16.022588a15.058824 15.058824 0 0 0-17.28753-0.662588c-22.136471 14.305882-41.923765 22.859294-60.476235 26.157176a15.058824 15.058824 0 0 0-12.212706 12.257883l-3.328 19.486117a47.329882 47.329882 0 0 1-1.566117 7.393883h-29.921883a52.118588 52.118588 0 0 1-1.671529-8.161883l-3.282824-24.530823a15.058824 15.058824 0 0 0-11.806117-12.739765c-20.118588-4.246588-39.664941-12.724706-58.081883-25.178353a15.013647 15.013647 0 0 0-17.618823 0.542118l-22.618353 17.453176-23.491765-26.443294 16.474353-17.257411a15.058824 15.058824 0 0 0 1.641412-18.748236c-4.623059-6.942118-11.625412-21.684706-19.230118-40.478117a14.757647 14.757647 0 0 0-9.84847-8.58353c-0.662588-2.590118-1.430588-5.150118-1.957648-7.755294a7.664941 7.664941 0 0 0-6.746352-6.053647l-34.002824-3.433412c-2.861176-0.301176-6.776471-1.520941-6.776471-2.364235v-44.032c0-0.843294 3.855059-2.048 6.761412-2.319059l34.590118-3.358118a7.619765 7.619765 0 0 0 6.746353-6.174117 172.122353 172.122353 0 0 1 25.133176-62.132706 7.604706 7.604706 0 0 0-0.466823-9.005177l-20.254118-24.832c-1.867294-2.273882-2.319059-4.352-2.770823-3.809882l32.240941-31.819294a12.197647 12.197647 0 0 1 4.788706 2.484706l24.199529 21.398588a7.649882 7.649882 0 0 0 9.396706 0.557177c19.094588-13.176471 41.697882-19.215059 63.307294-23.762824a7.273412 7.273412 0 0 0 3.177412-1.626353c0.813176-0.542118 1.807059-1.430588 3.267764-2.891294l7.077648-16.474353h33.566117l0.120471 0.512 2.93647 11.971765a14.998588 14.998588 0 0 0 12.001883 11.233882c21.955765 3.885176 42.601412 12.077176 61.364706 24.350118 6.113882 3.990588 14.260706 3.026824 19.245176-2.319059l4.758588-5.089882 13.718589-8.944942 22.844235 23.145412-17.016471 19.064471a15.058824 15.058824 0 0 0-1.159529 18.582588c13.387294 19.365647 19.064471 42.616471 22.859294 62.795294a15.058824 15.058824 0 0 0 12.724706 12.137412l20.103529 2.800941a9.351529 9.351529 0 0 1 1.340236 0.240941v32.64753z" p-id="17941"></path><path d="M799.096471 449.837176c-76.182588 0-138.164706 61.982118-138.164706 138.164706s61.982118 138.164706 138.164706 138.164706 138.164706-61.982118 138.164705-138.164706-61.982118-138.164706-138.164705-138.164706z m0 261.25553c-67.885176 0-123.105882-55.220706-123.105883-123.105882s55.220706-123.105882 123.105883-123.105883 123.105882 55.220706 123.105882 123.105883-55.220706 123.105882-123.105882 123.105882z" p-id="17942"></path><path d="M799.096471 536.636235c-28.310588 0-51.350588 23.04-51.350589 51.350589s23.04 51.335529 51.350589 51.335529 51.335529-23.024941 51.335529-51.335529-23.024941-51.350588-51.335529-51.350589z m0 72.58353c-11.700706 0-21.232941-9.517176-21.232942-21.217883s9.532235-21.232941 21.232942-21.232941 21.217882 9.532235 21.217882 21.232941-9.517176 21.217882-21.217882 21.217883z" p-id="17943"></path></svg>