<?xml version="1.0" standalone="no"?><!DOCTYPE svg PUBLIC "-//W3C//DTD SVG 1.1//EN" "http://www.w3.org/Graphics/SVG/1.1/DTD/svg11.dtd"><svg t="1595921111595" class="icon" viewBox="0 0 1024 1024" version="1.1" xmlns="http://www.w3.org/2000/svg" p-id="3556" xmlns:xlink="http://www.w3.org/1999/xlink" width="360" height="360"><defs><style type="text/css"></style></defs><path d="M96 32h832a64 64 0 0 1 64 64v608a64 64 0 0 1-64 64H96a64 64 0 0 1-64-64V96a64 64 0 0 1 64-64z m262.528 415.36l59.456-119.552 132.8 243.584c25.6 46.848 84.224 49.28 115.2 6.208L747.52 464H832a48 48 0 1 0 0-96H722.944a48 48 0 0 0-38.976 19.968l-70.4 97.984-140.352-257.28c-26.752-49.088-89.088-48.32-114.176 2.048l-73.216 147.2h-76.8a48 48 0 0 0 0 96H315.52a48 48 0 0 0 43.008-26.624zM224 864h576a64 64 0 0 1 0 128H224a64 64 0 0 1 0-128z" fill="" p-id="3557"></path></svg>