<?xml version="1.0" standalone="no"?><!DOCTYPE svg PUBLIC "-//W3C//DTD SVG 1.1//EN" "http://www.w3.org/Graphics/SVG/1.1/DTD/svg11.dtd"><svg t="1648955952281" class="icon" viewBox="0 0 1024 1024" version="1.1" xmlns="http://www.w3.org/2000/svg" p-id="8075" xmlns:xlink="http://www.w3.org/1999/xlink" width="200" height="200"><defs><style type="text/css"></style></defs><path d="M884.997447 530.301277a37.474043 37.474043 0 0 0-30.937873-18.301277h-252.731914a35.295319 35.295319 0 0 0-30.937873 18.301277l-125.494468 217.87234a33.116596 33.116596 0 0 0 0 36.166809l125.494468 217.87234a37.474043 37.474043 0 0 0 30.937873 18.301277h252.731914a35.295319 35.295319 0 0 0 30.937873-18.301277l125.494468-217.87234a33.116596 33.116596 0 0 0 0-36.166809zM832.27234 949.923404h-209.157446l-105.450213-181.705532 105.450213-181.705532h209.157446l105.450213 181.705532z" p-id="8076"></path><path d="M728.565106 639.237447a127.237447 127.237447 0 1 0 127.673192 127.237447 126.365957 126.365957 0 0 0-127.673192-127.237447z m0 181.705532a54.468085 54.468085 0 1 1 54.468085-54.468085 54.90383 54.90383 0 0 1-54.468085 52.725106z" p-id="8077"></path><path d="M912.013617 0H111.986383A111.986383 111.986383 0 0 0 0 111.986383v800.027234a111.986383 111.986383 0 0 0 111.986383 111.986383h291.077447a39.217021 39.217021 0 0 0 0-78.434043H111.986383a33.55234 33.55234 0 0 1-33.55234-33.55234V111.986383a33.55234 33.55234 0 0 1 33.55234-33.55234h800.027234a33.55234 33.55234 0 0 1 33.55234 33.55234v292.820426a39.217021 39.217021 0 1 0 78.434043 0V111.986383A111.986383 111.986383 0 0 0 912.013617 0z" p-id="8078"></path><path d="M551.217021 220.922553a39.217021 39.217021 0 0 0-39.217021-39.217021H221.358298a39.217021 39.217021 0 0 0-39.217021 39.217021v293.25617a39.217021 39.217021 0 0 0 78.434042 0V260.139574h251.424681a39.217021 39.217021 0 0 0 39.217021-39.217021z" p-id="8079"></path></svg>