<?xml version="1.0" standalone="no"?><!DOCTYPE svg PUBLIC "-//W3C//DTD SVG 1.1//EN" "http://www.w3.org/Graphics/SVG/1.1/DTD/svg11.dtd"><svg t="1717659845942" class="icon" viewBox="0 0 1024 1024" version="1.1" xmlns="http://www.w3.org/2000/svg" p-id="6115" xmlns:xlink="http://www.w3.org/1999/xlink" width="200" height="200"><path d="M961.834667 89.045333a42.666667 42.666667 0 0 1 0 26.965334l-273.024 819.029333a42.666667 42.666667 0 0 1-78.336 6.186667l-180.437334-347.392-347.392-180.48a42.666667 42.666667 0 0 1 6.186667-78.293334l819.029333-273.024a42.666667 42.666667 0 0 1 53.973334 27.008z m-107.946667 80.938667L211.498667 384.085333l244.181333 126.890667a21.248 21.248 0 0 1 5.162667-8.277333l90.496-90.496a21.333333 21.333333 0 0 1 30.165333 0l30.208 30.165333a21.333333 21.333333 0 0 1 0 30.165333l-90.538667 90.496a21.248 21.248 0 0 1-8.32 5.12l126.890667 244.224 214.186667-642.389333z" fill="#000000" opacity=".65" p-id="6116"></path></svg>