<?xml version="1.0" standalone="no"?><!DOCTYPE svg PUBLIC "-//W3C//DTD SVG 1.1//EN" "http://www.w3.org/Graphics/SVG/1.1/DTD/svg11.dtd"><svg t="1560152932744" class="icon" style="" viewBox="0 0 1024 1024" version="1.1" xmlns="http://www.w3.org/2000/svg" p-id="1984" xmlns:xlink="http://www.w3.org/1999/xlink" width="128" height="128"><defs><style type="text/css"></style></defs><path d="M512.056 64C414.191 139.35 310.2 191.848 131 191.848l0 331.27C131 681.06 331.43 960 512.056 960 692.683 960 893 681.116 893 523.118l0-331.27C713 191.848 609.808 139.406 512.056 64zM769.056 406.93l-272.8 272.8c-0.931 0.934-2.191 1.421-3.448 1.421-1.256 0-2.473-0.487-3.449-1.421L313.257 503.625c-0.896-0.935-1.382-2.151-1.382-3.449 0-1.301 0.529-2.517 1.421-3.449l55.832-55.796c1.907-1.906 4.993-1.906 6.86 0l116.86 116.863L706.364 344.28c1.907-1.907 4.994-1.907 6.858 0l55.835 55.832C770.963 401.979 770.963 405.023 769.056 406.93z" p-id="1985"></path></svg>