<?xml version="1.0" standalone="no"?><!DOCTYPE svg PUBLIC "-//W3C//DTD SVG 1.1//EN" "http://www.w3.org/Graphics/SVG/1.1/DTD/svg11.dtd"><svg t="1658191285718" class="icon" viewBox="0 0 1024 1024" version="1.1" xmlns="http://www.w3.org/2000/svg" p-id="7832" xmlns:xlink="http://www.w3.org/1999/xlink" width="200" height="200"><defs><style type="text/css">@font-face { font-family: feedback-iconfont; src: url("//at.alicdn.com/t/font_1031158_u69w8yhxdu.woff2?t=1630033759944") format("woff2"), url("//at.alicdn.com/t/font_1031158_u69w8yhxdu.woff?t=1630033759944") format("woff"), url("//at.alicdn.com/t/font_1031158_u69w8yhxdu.ttf?t=1630033759944") format("truetype"); }
</style></defs><path d="M400.810667 713.344l-182.485334 154.410667c-39.936 33.792-93.952-20.181333-60.16-60.16l154.453334-182.485334-91.690667-91.648a42.666667 42.666667 0 0 1 0-60.330666 192.085333 192.085333 0 0 1 201.898667-44.544l141.056-119.338667 22.314666-129.962667a42.666667 42.666667 0 0 1 72.192-22.954666l211.2 211.2a42.666667 42.666667 0 0 1-22.570666 72.149333l-131.584 23.893333L597.333333 603.050667a192.085333 192.085333 0 0 1-44.544 201.898666 42.666667 42.666667 0 0 1-60.330666 0l-91.648-91.648z" p-id="7833"></path></svg>