<?xml version="1.0" standalone="no"?><!DOCTYPE svg PUBLIC "-//W3C//DTD SVG 1.1//EN" "http://www.w3.org/Graphics/SVG/1.1/DTD/svg11.dtd"><svg t="1661485574631" class="icon" viewBox="0 0 1024 1024" version="1.1" xmlns="http://www.w3.org/2000/svg" p-id="1617" xmlns:xlink="http://www.w3.org/1999/xlink" width="200" height="200"><path d="M265.6 64c5.94 0 11.638 2.364 15.84 6.572A22.456 22.456 0 0 1 288 86.437v179.497c0 5.951-2.36 11.658-6.56 15.866a22.381 22.381 0 0 1-15.84 6.572h-44.8v190.715h134.4c12.371 0 22.4 10.046 22.4 22.437V546.4c0 12.391-10.029 22.437-22.4 22.437H220.8v258.027h134.4c12.371 0 22.4 10.046 22.4 22.437v44.875c0 12.391-10.029 22.437-22.4 22.437H153.6a22.381 22.381 0 0 1-15.84-6.572 22.456 22.456 0 0 1-6.56-15.865V288.372H86.4a22.381 22.381 0 0 1-15.84-6.572A22.456 22.456 0 0 1 64 265.934V86.437c0-5.95 2.36-11.658 6.56-15.865A22.381 22.381 0 0 1 86.4 64h179.2z m672 370.213c5.94 0 11.638 2.364 15.84 6.572A22.456 22.456 0 0 1 960 456.65v134.623c0 5.95-2.36 11.658-6.56 15.866a22.381 22.381 0 0 1-15.84 6.571l-14.495-0.002C883.037 552.88 814.198 512.743 736 512.743S588.963 552.88 548.895 613.708l-59.295 0.002a22.381 22.381 0 0 1-15.84-6.571 22.456 22.456 0 0 1-6.56-15.866V456.65c0-5.95 2.36-11.658 6.56-15.865a22.381 22.381 0 0 1 15.84-6.572h448z m0-347.776c5.94 0 11.638 2.364 15.84 6.572a22.456 22.456 0 0 1 6.56 15.865v134.623c0 5.95-2.36 11.658-6.56 15.866a22.381 22.381 0 0 1-15.84 6.571H400a22.381 22.381 0 0 1-15.84-6.571 22.456 22.456 0 0 1-6.56-15.866V108.874c0-12.391 10.029-22.437 22.4-22.437h537.6z" p-id="1618"></path><path d="M925.862 750.614c-1.536-8.481-9.76-17.114-18.29-19.025l-6.378-1.45c-14.985-4.51-28.28-14.366-36.733-28.882-8.453-14.593-10.452-31.173-6.763-46.376l1.998-5.96c2.536-8.252-0.769-19.635-7.453-25.29 0 0-5.995-5.042-22.902-14.745-16.907-9.627-24.207-12.301-24.207-12.301-8.223-2.98-19.75-0.153-25.744 6.189l-4.458 4.737c-11.374 10.696-26.667 17.19-43.572 17.19s-32.351-6.569-43.726-17.343l-4.305-4.585c-5.918-6.34-17.52-9.166-25.744-6.188 0 0-7.377 2.674-24.284 12.3-16.907 9.78-22.824 14.822-22.824 14.822-6.685 5.578-9.99 16.885-7.454 25.213l1.846 6.036c3.612 15.204 1.69 31.708-6.763 46.3-8.454 14.591-21.898 24.527-36.959 28.959L555 731.589c-8.453 1.91-16.753 10.468-18.29 19.025 0 0-1.382 7.64-1.382 27.046 0 19.407 1.382 27.047 1.382 27.047 1.537 8.557 9.76 17.114 18.29 19.024l5.995 1.375c15.062 4.433 28.587 14.365 37.04 29.034 8.454 14.593 10.453 31.173 6.764 46.376l-1.767 5.883c-2.535 8.252 0.77 19.635 7.454 25.29 0 0 5.994 5.042 22.9 14.746 16.907 9.703 24.208 12.3 24.208 12.3 8.223 2.98 19.75 0.153 25.744-6.189l4.226-4.508c11.45-10.773 26.82-17.343 43.804-17.343a63.547 63.547 0 0 1 43.803 17.419l4.226 4.508c5.918 6.341 17.52 9.17 25.744 6.189 0 0 7.377-2.674 24.284-12.3 16.907-9.704 22.824-14.746 22.824-14.746 6.685-5.578 9.99-16.961 7.453-25.29l-1.846-6.113c-3.611-15.127-1.69-31.63 6.764-46.147 8.453-14.594 21.978-24.601 37.04-29.034l5.995-1.374c8.453-1.91 16.754-10.468 18.29-19.025 0 0 1.383-7.64 1.383-27.046-0.08-19.484-1.464-27.125-1.464-27.125v0.003zM731.365 855.362c-43.111 0-78.154-34.762-78.154-77.702 0-42.862 34.965-77.626 78.154-77.626 43.111 0 78.153 34.763 78.153 77.702-0.078 42.863-35.043 77.626-78.153 77.626z" p-id="1619"></path></svg>