<?xml version="1.0" standalone="no"?><!DOCTYPE svg PUBLIC "-//W3C//DTD SVG 1.1//EN" "http://www.w3.org/Graphics/SVG/1.1/DTD/svg11.dtd"><svg t="1665993317503" class="icon" viewBox="0 0 1024 1024" version="1.1" xmlns="http://www.w3.org/2000/svg" p-id="5977" xmlns:xlink="http://www.w3.org/1999/xlink" width="200" height="200"><path d="M832 106.666667H192C145.066667 106.666667 106.666667 145.066667 106.666667 192v128h810.666666V192c0-46.933333-38.4-85.333333-85.333333-85.333333zM202.666667 256c-17.066667 0-32-14.933333-32-32S185.6 192 202.666667 192s32 14.933333 32 32-14.933333 32-32 32z m106.666666 0c-17.066667 0-32-14.933333-32-32S292.266667 192 309.333333 192s32 14.933333 32 32-14.933333 32-32 32z m106.666667 0c-17.066667 0-32-14.933333-32-32S398.933333 192 416 192s32 14.933333 32 32-14.933333 32-32 32zM106.666667 832c0 46.933333 38.4 85.333333 85.333333 85.333333h640c46.933333 0 85.333333-38.4 85.333333-85.333333V384H106.666667v448z m266.666666-64h-106.666666c-17.066667 0-32-14.933333-32-32s14.933333-32 32-32h106.666666c17.066667 0 32 14.933333 32 32s-14.933333 32-32 32z m170.666667-277.333333h213.333333c17.066667 0 32 14.933333 32 32s-14.933333 32-32 32h-213.333333c-17.066667 0-32-14.933333-32-32s14.933333-32 32-32z m0 106.666666h213.333333c17.066667 0 32 14.933333 32 32s-14.933333 32-32 32h-213.333333c-17.066667 0-32-14.933333-32-32s14.933333-32 32-32z m0 106.666667h213.333333c17.066667 0 32 14.933333 32 32s-14.933333 32-32 32h-213.333333c-17.066667 0-32-14.933333-32-32s14.933333-32 32-32z m-307.2-160c12.8-12.8 32-12.8 44.8 0l38.4 38.4 83.2-83.2c12.8-12.8 32-12.8 44.8 0 12.8 12.8 12.8 32 0 44.8l-106.666667 104.533333c-12.8 12.8-32 12.8-44.8 0l-59.733333-59.733333c-12.8-12.8-12.8-32 0-44.8z" p-id="5978"></path></svg>