<?xml version="1.0" standalone="no"?><!DOCTYPE svg PUBLIC "-//W3C//DTD SVG 1.1//EN" "http://www.w3.org/Graphics/SVG/1.1/DTD/svg11.dtd"><svg t="1663145513732" class="icon" viewBox="0 0 1024 1024" version="1.1" xmlns="http://www.w3.org/2000/svg" p-id="1455" xmlns:xlink="http://www.w3.org/1999/xlink" width="200" height="200"><path d="M891.19 652.72H635.52a31.21 31.21 0 0 0-30.1 22.61 100.24 100.24 0 0 1-192.89 0 31.23 31.23 0 0 0-30.1-22.61H132.81A61.81 61.81 0 0 0 71 714.53v182.66A61.81 61.81 0 0 0 132.81 959h758.38A61.81 61.81 0 0 0 953 897.19V714.53a61.81 61.81 0 0 0-61.81-61.81zM643.58 142.21v3.34c-0.67-2-0.67-2.67 0-3.34-0.67-1.32 0-2 0-3.32z" p-id="1456"></path><path d="M846.6 65H338c-18.64 0-34 17.3-34 37.94v501.25h135.22c0 42.6 30.62 77.21 67.9 77.21 37.94 0 67.89-34.61 67.89-77.21h305.54V102.94c0-21.3-15.31-37.94-33.95-37.94z m-399 168.35h289.49c13.86 0 24.12 11.33 24.72 24.72S750 282.8 737.09 282.8H447.62c-13.86 0-24.12-11.33-24.72-24.73s11.79-24.72 24.72-24.72zM737.39 455.5H447.92c-13.86 0-24.12-11.32-24.72-24.72s11.79-24.72 24.72-24.72h289.47c13.86 0 24.12 11.33 24.72 24.72s-11.79 24.72-24.72 24.72zM194.34 142.21h41.85v462H134.34v-402a60 60 0 0 1 60-60z" p-id="1457"></path></svg>