<?xml version="1.0" standalone="no"?><!DOCTYPE svg PUBLIC "-//W3C//DTD SVG 1.1//EN" "http://www.w3.org/Graphics/SVG/1.1/DTD/svg11.dtd"><svg t="1631690013321" class="icon" viewBox="0 0 1024 1024" version="1.1" xmlns="http://www.w3.org/2000/svg" p-id="28452" xmlns:xlink="http://www.w3.org/1999/xlink" width="200" height="200"><defs><style type="text/css"></style></defs><path d="M384 64a179.616 179.616 0 0 0-70.4 23.36L192 224l64 96 128-128h256l64 64v192l-239.04 107.52c-22.4 11.84-16.96 58.56-16.96 84.48v128h128v-128l219.2-99.52A68.128 68.128 0 0 0 832 479.36V238.72a68.544 68.544 0 0 0-19.84-48.32l-101.12-103.04A138.048 138.048 0 0 0 640 64h-256z m64 768v128h128v-128h-128z" fill="#0590DF" p-id="28453"></path></svg>