<?xml version="1.0" standalone="no"?><!DOCTYPE svg PUBLIC "-//W3C//DTD SVG 1.1//EN" "http://www.w3.org/Graphics/SVG/1.1/DTD/svg11.dtd"><svg t="1648955902807" class="icon" viewBox="0 0 1024 1024" version="1.1" xmlns="http://www.w3.org/2000/svg" p-id="6500" xmlns:xlink="http://www.w3.org/1999/xlink" width="200" height="200"><defs><style type="text/css"></style></defs><path d="M300.544 236.507429a157.988571 157.988571 0 0 1 38.765714-65.316572A164.571429 164.571429 0 0 1 489.837714 73.142857h44.324572a164.571429 164.571429 0 0 1 150.528 98.048 157.988571 157.988571 0 0 1 38.765714 65.316572C795.392 248.758857 841.142857 196.937143 841.142857 219.428571c0 40.411429-147.382857 109.714286-329.142857 109.714286S182.857143 259.84 182.857143 219.428571c0-22.491429 45.714286 29.330286 117.686857 17.078858z m-4.425143 95.451428C353.901714 351.451429 429.348571 365.714286 512 365.714286c82.614857 0 158.098286-14.299429 215.881143-33.718857a219.757714 219.757714 0 0 1-154.038857 171.154285l0.841143-1.609143h-125.366858l0.841143 1.609143a219.757714 219.757714 0 0 1-154.038857-171.154285zM73.142857 950.857143c0-223.634286 167.314286-408.210286 383.561143-435.419429l26.038857 48.822857h58.514286l26.038857-48.822857C783.542857 542.646857 950.857143 727.186286 950.857143 950.857143H73.142857z m376.173714-138.24L512 877.714286l62.683429-65.097143-33.426286-217.014857h-58.514286l-33.426286 217.014857z" p-id="6501"></path></svg>