<?xml version="1.0" standalone="no"?><!DOCTYPE svg PUBLIC "-//W3C//DTD SVG 1.1//EN" "http://www.w3.org/Graphics/SVG/1.1/DTD/svg11.dtd"><svg t="1665993170824" class="icon" viewBox="0 0 1025 1024" version="1.1" xmlns="http://www.w3.org/2000/svg" p-id="1915" xmlns:xlink="http://www.w3.org/1999/xlink" width="200.1953125" height="200"><path d="M832 128H192a64 64 0 0 0-64 64v640a64 64 0 0 0 64 64h640a64 64 0 0 0 64-64V192a64 64 0 0 0-64-64zM395.65 626.75L350.39 672 192 513.61l45.25-45.25 113.14-113.14 45.25 45.25-113.13 113.14zM480 768h-64l128-512h64z m193.61-96l-45.25-45.25 113.13-113.14-113.14-113.14 45.25-45.25 113.15 113.13L832 513.61z" p-id="1916"></path></svg>