<?xml version="1.0" standalone="no"?><!DOCTYPE svg PUBLIC "-//W3C//DTD SVG 1.1//EN" "http://www.w3.org/Graphics/SVG/1.1/DTD/svg11.dtd"><svg t="1545633465087" class="icon" style="" viewBox="0 0 1024 1024" version="1.1" xmlns="http://www.w3.org/2000/svg" p-id="3580" xmlns:xlink="http://www.w3.org/1999/xlink" width="200" height="200"><defs><style type="text/css"></style></defs><path d="M595.84 960H428.32A52.48 52.48 0 0 1 376 914.56l-13.2-92.16a340.16 340.16 0 0 1-46.08-26.64l-88.96 35.44a53.28 53.28 0 0 1-64.48-24L80 664a52.96 52.96 0 0 1 12.96-67.92l74.4-57.76c-0.8-9.52-1.2-18.16-1.2-26.4s0-16.96 1.2-26.4l-74.24-57.68A52.64 52.64 0 0 1 80 360l83.68-144a52.56 52.56 0 0 1 64.8-22.88l88 35.2a351.28 351.28 0 0 1 46-26.64l13.52-92.8A52.32 52.32 0 0 1 428.32 64h167.52A52.48 52.48 0 0 1 648 109.44l13.44 92.16a339.68 339.68 0 0 1 46.08 26.64l88.88-35.44a53.2 53.2 0 0 1 64.48 24L944 360a52.96 52.96 0 0 1-12.96 67.92l-74.4 57.76c0.72 8 1.2 17.04 1.2 26.48s-0.48 18.32-1.2 26.48l74.24 57.68a52.8 52.8 0 0 1 13.44 67.28L860.48 808a52.56 52.56 0 0 1-64.8 22.88l-88-35.2a351.04 351.04 0 0 1-46 26.64L648 915.12A52.32 52.32 0 0 1 595.84 960z m-11.2-53.92z m-145.2-0.48z m-1.36-9.6h148.08l17.04-118.4 16.96-6.88a288 288 0 0 0 64-36.8l14.32-10.72 112 44.56 74-127.2-94.8-73.6 2.24-18.08a253.76 253.76 0 0 0 0-73.6l-2.24-18.08 94.8-73.6L809.92 256l-112 44.64-14.4-11.04a272.64 272.64 0 0 0-63.44-36.56l-16.88-6.64L586.16 128H438.08l-17.12 118.4-16.96 6.88a288.56 288.56 0 0 0-64 36.8l-14.08 10.72L214.24 256l-74 127.2 94.8 73.6-2.24 18.08a293.04 293.04 0 0 0-2.72 36.8 293.04 293.04 0 0 0 2.72 36.8l2.24 18.08-94.8 73.6 74 127.84 112-44.64 14.4 11.04a272.8 272.8 0 0 0 63.44 36.56l16.96 6.88z m367.04-120v0.48z m-586.32-0.56zM135.36 392zM805.2 248z m-585.84-0.64v0.48zM584.72 118z m-145.12-0.56zM512 689.6A177.6 177.6 0 1 1 690.64 512 178.32 178.32 0 0 1 512 689.6z m0-291.2A113.6 113.6 0 1 0 626.64 512 114.24 114.24 0 0 0 512 398.4z" p-id="3581"></path></svg>