<?xml version="1.0" standalone="no"?><!DOCTYPE svg PUBLIC "-//W3C//DTD SVG 1.1//EN" "http://www.w3.org/Graphics/SVG/1.1/DTD/svg11.dtd"><svg t="1667293561564" class="icon" viewBox="0 0 1024 1024" version="1.1" xmlns="http://www.w3.org/2000/svg" p-id="4447" xmlns:xlink="http://www.w3.org/1999/xlink" width="200" height="200"><path d="M1016.128 812.992 891.648 100.096c-6.72-44.16-43.776-78.144-89.536-79.936L221.952 20.16C175.552 22.016 137.728 56.96 131.968 102.208l-124.16 710.848C3.136 827.328 0 842.304 0 858.112c0 80.512 65.536 145.728 146.24 145.728l731.456 0c80.704 0 146.304-65.216 146.304-145.728C1024 842.24 1020.8 827.328 1016.128 812.992zM402.24 384.384c0-60.288 49.152-109.312 109.76-109.312s109.696 49.024 109.696 109.312c40.448 0 73.152 32.64 73.152 72.96s-32.704 72.96-73.152 72.96L402.24 530.304c-40.32 0-73.088-32.64-73.088-72.96S361.92 384.384 402.24 384.384zM877.696 931.008 146.24 931.008c-40.256 0-73.088-32.64-73.088-72.896 0-40.128 32.832-72.832 73.088-72.832l731.456 0c40.32 0 73.152 32.704 73.152 72.832C950.848 898.368 918.016 931.008 877.696 931.008zM841.152 821.76c-20.224 0-36.544 16.32-36.544 36.352 0 20.16 16.384 36.416 36.544 36.416s36.544-16.256 36.544-36.416C877.696 838.08 861.312 821.76 841.152 821.76z" p-id="4448"></path></svg>