<?xml version="1.0" standalone="no"?><!DOCTYPE svg PUBLIC "-//W3C//DTD SVG 1.1//EN" "http://www.w3.org/Graphics/SVG/1.1/DTD/svg11.dtd"><svg t="1566198179714" class="icon" viewBox="0 0 1024 1024" version="1.1" xmlns="http://www.w3.org/2000/svg" p-id="1986" xmlns:xlink="http://www.w3.org/1999/xlink" width="200" height="200"><defs><style type="text/css"></style></defs><path d="M183.24 688.67c10.91-1.65 22.19-2.06 32.67-5.18 30.37-9 38.33-32.33 15.52-53.75-31.07-29.2-65.62-54.65-98.69-81.71C114.84 533.36 97 518.54 79 504.08c-15.63-12.5-19.25-30.14-9.71-45 29.5-46.05 58.82-92.74 93.59-134.67 23.11-27.86 47.1-19.26 60.38 15.56 3.63 9.51 5.5 19.69 8.44 29.49 8.71 29.11 27.06 39.53 55 27.6 48-20.52 88.26-52 116-96.93 20-32.39 11.38-54.24-24.38-67.12-16.55-6.01-34.32-8.88-50.12-16.25-24.29-11.35-31-32.79-10.73-48.8 45.61-36.1 94.16-68.85 143.76-99.27 19.1-11.71 39.57 0 53.32 18.31 25.8 34.24 51.32 68.71 77.49 102.66 9.65 12.51 19.22 26.1 31.76 35.05 11.38 8.13 28.35 17.09 40 14.17 20.65-5.16 28.1-24.78 26.49-46.82-0.73-10-1.29-20.72 1.42-30.14 8.08-28.14 36.17-42.09 61.57-28.28 48.62 26.42 87.38 63.86 107.32 116.8 17.28 45.87 1.49 66.11-47.14 69.45-14 1-36.77 8.09-39 16.66-3.25 12.72 3.88 34.5 14.25 43.22C830.65 415 875.28 447 919.24 479.64c48.27 35.89 52.55 53.74 18.74 104.44-23.21 34.81-47.06 69.75-75 100.68-30.79 34.13-60.85 26.41-68.84-18.63-13.74-77.46-61.36-78.23-109-30.37-26.33 26.46-48.42 58.87-65.86 92.08-16.57 31.56-2.37 53.19 31.8 62.82 21.79 6.14 54 7.15 53.89 34.26-0.1 18.45-20.11 40.46-36.66 54.33-29.1 24.39-61.61 45-94.05 65-42 25.86-62 20.49-91.82-19.85C451 881.68 419.32 839.1 387.1 797a79 79 0 0 0-22.91-20.06c-22.41-12.82-40.65-2.33-42.72 23.46-4.1 51.07-38.45 72.53-85.41 50.84-48.55-22.42-81.23-62.07-102.14-110.3-14.72-33.94 7.08-56.43 49.32-52.27z" p-id="1987"></path></svg>