<?xml version="1.0" standalone="no"?><!DOCTYPE svg PUBLIC "-//W3C//DTD SVG 1.1//EN" "http://www.w3.org/Graphics/SVG/1.1/DTD/svg11.dtd"><svg t="1624087271487" class="icon" viewBox="0 0 1024 1024" version="1.1" xmlns="http://www.w3.org/2000/svg" p-id="2113" xmlns:xlink="http://www.w3.org/1999/xlink" width="200" height="200"><defs><style type="text/css"></style></defs><path d="M992 832h-960C14.933333 832 0 817.066667 0 800v-704C0 78.933333 14.933333 64 32 64h960c17.066667 0 32 14.933333 32 32v704c0 17.066667-14.933333 32-32 32zM64 768h896V128H64v640zM864 960h-704c-17.066667 0-32-14.933333-32-32S142.933333 896 160 896h704c17.066667 0 32 14.933333 32 32s-14.933333 32-32 32z" fill="#212121" p-id="2114"></path><path d="M661.333333 452.266667c-17.066667-6.4-23.466667 0-14.933333 14.933333L746.666667 686.933333c6.4 17.066667 17.066667 14.933333 19.2-2.133333l19.2-91.733333 91.733333-19.2c17.066667-4.266667 19.2-12.8 2.133333-19.2L661.333333 452.266667z" fill="#212121" p-id="2115"></path></svg>