<?xml version="1.0" standalone="no"?><!DOCTYPE svg PUBLIC "-//W3C//DTD SVG 1.1//EN" "http://www.w3.org/Graphics/SVG/1.1/DTD/svg11.dtd"><svg t="1683172420806" class="icon" viewBox="0 0 1024 1024" version="1.1" xmlns="http://www.w3.org/2000/svg" p-id="2080" xmlns:xlink="http://www.w3.org/1999/xlink" width="200" height="200"><path d="M995.615288 290.298194c0-39.709926-32.255355-71.821924-71.821924-71.821924h-118.269634V100.349993c0-39.709926-32.255355-71.821924-71.821924-71.821924H290.298194c-39.709926 0-71.821924 32.255355-71.821924 71.821924v118.269635H100.349993c-39.709926 0-71.821924 32.255355-71.821924 71.821923M298.756265 132.031919c0-12.758785 10.321714-23.223856 23.080498-23.223855H702.01988c12.758785 0 23.223856 10.321714 23.223855 23.080498v86.587708H298.756265V132.031919z" p-id="2081"></path><path d="M923.219936 218.47627H100.780064c-39.99664 0-72.395352 32.398712-72.395352 72.395353V923.219936c0 39.99664 32.398712 72.395352 72.395352 72.395352H923.219936c39.99664 0 72.395352-32.398712 72.395352-72.395352V290.871623c0-39.99664-32.398712-72.395352-72.395352-72.395353z m-7.884643 673.061739c0 13.045499-10.608428 23.653927-23.653927 23.653927H132.318634c-13.045499 0-23.653927-10.608428-23.653927-23.653927v-569.127817c0-13.045499 10.608428-23.653927 23.653927-23.653927H891.681366c13.045499 0 23.653927 10.608428 23.653927 23.653927v569.127817z" p-id="2082"></path><path d="M115.115778 591.634887H908.884222c22.220356 0.430071 40.426711-17.346213 40.856783-39.423211 0.430071-22.220356-17.346213-40.426711-39.423211-40.856783H115.115778c-22.220356 0.430071-39.853283 18.636427-39.423212 40.856783 0.430071 21.646927 17.776284 39.136497 39.423212 39.423211z" p-id="2083"></path><path d="M316.389192 458.599468v176.615988c-0.430071 22.220356 17.346213 40.426711 39.423212 40.856783 22.220356 0.430071 40.426711-17.346213 40.856783-39.423212V458.599468c-0.430071-22.220356-18.636427-39.853283-40.856783-39.423212-21.646927 0.430071-39.136497 17.919642-39.423212 39.423212zM627.474171 458.599468v176.615988c-0.430071 22.220356 17.346213 40.426711 39.423211 40.856783 22.220356 0.430071 40.426711-17.346213 40.856783-39.423212V458.599468c-0.430071-22.220356-18.636427-39.853283-40.856783-39.423212-21.646927 0.430071-39.136497 17.919642-39.423211 39.423212z" p-id="2084"></path></svg>