<?xml version="1.0" standalone="no"?><!DOCTYPE svg PUBLIC "-//W3C//DTD SVG 1.1//EN" "http://www.w3.org/Graphics/SVG/1.1/DTD/svg11.dtd"><svg t="1545634114365" class="icon" style="" viewBox="0 0 1024 1024" version="1.1" xmlns="http://www.w3.org/2000/svg" p-id="13029" xmlns:xlink="http://www.w3.org/1999/xlink" width="200" height="200"><defs><style type="text/css"></style></defs><path d="M611.413333 516.693333a231.253333 231.253333 0 1 0-199.253333 0 441.173333 441.173333 0 0 0-341.333333 429.653334h882.773333a441.173333 441.173333 0 0 0-342.186667-429.653334z" p-id="13030"></path><path d="M611.413333 516.693333a231.253333 231.253333 0 1 0-199.253333 0 441.173333 441.173333 0 0 0-341.333333 429.653334h882.773333a441.173333 441.173333 0 0 0-342.186667-429.653334z" p-id="13031"></path><path d="M611.413333 516.693333a231.253333 231.253333 0 1 0-199.253333 0 441.173333 441.173333 0 0 0-341.333333 429.653334h882.773333a441.173333 441.173333 0 0 0-342.186667-429.653334z" p-id="13032"></path><path d="M953.6 946.346667a441.173333 441.173333 0 0 0-341.333333-429.653334 229.546667 229.546667 0 0 0 11.093333-409.173333 228.693333 228.693333 0 0 0-32-3.413333 230.4 230.4 0 0 0-99.413333 438.613333 440.32 440.32 0 0 0-341.333334 403.2z" p-id="13033"></path><path d="M653.653333 334.933333a230.4 230.4 0 0 1-131.413333 207.786667 441.173333 441.173333 0 0 1 341.333333 403.2h90.453334a441.173333 441.173333 0 0 0-341.333334-429.653333 229.546667 229.546667 0 0 0 11.093334-409.173334 228.266667 228.266667 0 0 0-32-3.413333 229.973333 229.973333 0 0 0-85.333334 15.786667 230.826667 230.826667 0 0 1 147.2 215.466666z" p-id="13034"></path><path d="M104.96 206.08A135.68 135.68 0 0 0 31.146667 131.84a9.813333 9.813333 0 0 1 0-18.346667A135.68 135.68 0 0 0 104.96 39.253333a9.813333 9.813333 0 0 1 18.346667 0 135.68 135.68 0 0 0 74.24 74.24 9.813333 9.813333 0 0 1 0 18.346667 135.68 135.68 0 0 0-74.24 74.24 9.813333 9.813333 0 0 1-18.346667 0z" p-id="13035"></path><path d="M905.813333 416a69.546667 69.546667 0 0 0-37.973333-37.973333 5.12 5.12 0 0 1 0-9.386667 69.546667 69.546667 0 0 0 37.973333-37.973333 5.12 5.12 0 0 1 9.386667 0 69.546667 69.546667 0 0 0 37.973333 37.973333 5.12 5.12 0 0 1 0 9.386667 69.546667 69.546667 0 0 0-37.973333 37.973333 5.12 5.12 0 0 1-9.386667 0z" p-id="13036"></path><path d="M42.666667 672a69.546667 69.546667 0 0 0-37.973334-37.973333 5.12 5.12 0 0 1 0-9.386667 69.546667 69.546667 0 0 0 37.973334-38.4 5.12 5.12 0 0 1 9.386666 0 69.546667 69.546667 0 0 0 37.973334 37.973333 5.12 5.12 0 0 1 0 9.386667 69.546667 69.546667 0 0 0-37.973334 37.973333 5.12 5.12 0 0 1-9.386666 0.426667z" p-id="13037"></path></svg>