<?xml version="1.0" standalone="no"?><!DOCTYPE svg PUBLIC "-//W3C//DTD SVG 1.1//EN" "http://www.w3.org/Graphics/SVG/1.1/DTD/svg11.dtd"><svg t="1592626854499" class="icon" viewBox="0 0 1024 1024" version="1.1" xmlns="http://www.w3.org/2000/svg" p-id="4095" xmlns:xlink="http://www.w3.org/1999/xlink" width="200" height="200"><defs><style type="text/css"></style></defs><path d="M415.865 521.623l125.285-72.334 125.288 72.334v144.668L541.15 738.624l-125.285-72.333z" fill="#00b2e5" p-id="4096"></path><path d="M512 994.11c-3.454 0-6.906-0.894-10-2.68L116.956 769.126a19.999 19.999 0 0 1-10-17.32v-89.23c0-11.046 8.954-20 20-20s20 8.954 20 20v77.684l365.109 210.796 205.394-117.021c9.598-5.466 21.81-2.12 27.278 7.478 5.468 9.597 2.12 21.81-7.478 27.278L521.9 991.488a19.992 19.992 0 0 1-9.9 2.622zM838.509 805.615c-6.912 0.001-13.635-3.586-17.339-10.003-5.523-9.565-2.245-21.798 7.32-27.32l48.555-28.033v-421.38L696.681 217.182c-9.621-5.425-13.023-17.623-7.599-27.244 5.426-9.622 17.622-13.023 27.245-7.599l190.541 107.435a20 20 0 0 1 10.177 17.421v444.61a19.998 19.998 0 0 1-10 17.32l-58.555 33.807a19.902 19.902 0 0 1-9.981 2.683zM126.956 577.579c-11.045 0-20-8.954-20-20V307.195a19.998 19.998 0 0 1 10-17.32L502 67.569a19.996 19.996 0 0 1 20 0l86.037 49.674c9.565 5.522 12.844 17.754 7.32 27.32-5.522 9.566-17.755 12.844-27.32 7.32L512 107.984 146.956 318.742v238.837c0 11.046-8.954 20-20 20z" fill="#808080" p-id="4097"></path><path d="M386.865 461.623l125.286-72.334 125.287 72.334v144.668l-125.287 72.333-125.286-72.333z" fill="#00b2e5" p-id="4098"></path><path d="M481.174 362.306V328.5l-94.309-55.294V239.4l125.536-73.915 122.62 74.202v32.946L542.482 328.5l-2.291 33.806-27.79-18.336zM346.522 438.512l94.256-54.72v-33.52l-121.759-71.336-126.057 71.05v144.679l123.909 70.19 29.078-18.622zM190.384 572.305l30.082-17.19 95.115 55.293 30.654-18.05v33.806l30.369 17.764-30.369 15.469v110.874l-30.081 15.04-125.77-70.62zM415.175 665.414l94.361 56.152 97.982-56.152 27.503 16.13v143.732l-126.63 74.49-121.526-73.342V684.896zM644.188 641.635l30.368 18.05v110.299l27.79 15.184 125.77-70.477V571.445l-30.081-16.33-95.402 55.578-27.503-18.621 0.285 33.807zM702.633 564.855l125.483-70.763V350.463l-125.483-71.527-123.001 71.146v33.233l94.732 55.006v111.541z" fill="#808080" p-id="4099"></path></svg>